M48
; DRILL file {KiCad 8.0.2-8.0.2-0~ubuntu24.04.1} date 2024-05-05T00:33:54+0900
; FORMAT={-:-/ absolute / inch / decimal}
; #@! TF.CreationDate,2024-05-05T00:33:54+09:00
; #@! TF.GenerationSoftware,Kicad,Pcbnew,8.0.2-8.0.2-0~ubuntu24.04.1
; #@! TF.FileFunction,Plated,1,2,PTH
FMAT,2
INCH
; #@! TA.AperFunction,Plated,PTH,ViaDrill
T1C0.0118
; #@! TA.AperFunction,Plated,PTH,ViaDrill
T2C0.0138
; #@! TA.AperFunction,Plated,PTH,ComponentDrill
T3C0.0315
; #@! TA.AperFunction,Plated,PTH,ComponentDrill
T4C0.0323
; #@! TA.AperFunction,Plated,PTH,ComponentDrill
T5C0.0394
%
G90
G05
T1
X1.52Y-3.63
X1.52Y-4.34
X1.55Y-3.87
X1.5551Y-3.7598
X1.58Y-4.06
X1.6Y-4.03
X1.6Y-4.475
X1.6043Y-4.3406
X1.6454Y-3.92
X1.65Y-3.61
X1.73Y-4.0984
X1.76Y-3.7
X1.84Y-3.7
X1.85Y-4.36
X1.92Y-3.7
X2.0Y-3.7
X2.08Y-3.7
X2.16Y-3.7
X2.16Y-4.3177
X2.2Y-4.03
X2.23Y-4.05
X2.3Y-3.61
X2.36Y-3.7546
X2.39Y-3.73
X2.46Y-3.96
X2.5Y-4.28
X2.5Y-4.41
X2.53Y-4.03
X2.5352Y-3.7546
X2.6217Y-3.6833
X2.6443Y-4.02
T2
X1.59Y-4.225
X1.6Y-3.99
X1.7202Y-3.74
X1.75Y-3.99
X2.18Y-4.12
X2.21Y-4.38
T3
X2.3Y-3.875
X2.3Y-4.475
X2.4Y-3.875
X2.4Y-4.475
X2.5Y-3.875
X2.5Y-4.475
X2.6Y-3.875
X2.6Y-4.475
X2.7Y-3.875
X2.7Y-4.475
T4
X1.8Y-3.825
X1.8Y-4.125
X1.8Y-4.225
X1.8Y-4.525
X1.9Y-3.825
X1.9Y-4.125
X1.9Y-4.225
X1.9Y-4.525
X2.0Y-3.825
X2.0Y-4.125
X2.0Y-4.225
X2.0Y-4.525
X2.1Y-3.825
X2.1Y-4.125
X2.1Y-4.225
X2.1Y-4.525
T5
X1.5Y-3.4
X1.5Y-3.5
X1.6Y-3.4
X1.6Y-3.5
X1.7Y-3.4
X1.7Y-3.5
X1.8Y-3.4
X1.8Y-3.5
X1.9Y-3.4
X1.9Y-3.5
X2.0Y-3.4
X2.0Y-3.5
X2.1Y-3.4
X2.1Y-3.5
X2.2Y-3.4
X2.2Y-3.5
X2.3Y-3.4
X2.3Y-3.5
X2.4Y-3.4
X2.4Y-3.5
X2.5Y-3.4
X2.5Y-3.5
X2.6Y-3.4
X2.6Y-3.5
X2.7Y-3.4
X2.7Y-3.5
M30
