%TF.GenerationSoftware,KiCad,Pcbnew,8.0.2-8.0.2-0~ubuntu24.04.1*%
%TF.CreationDate,2024-05-05T00:33:56+09:00*%
%TF.ProjectId,development_hat,64657665-6c6f-4706-9d65-6e745f686174,rev?*%
%TF.SameCoordinates,Original*%
%TF.FileFunction,Legend,Top*%
%TF.FilePolarity,Positive*%
%FSLAX46Y46*%
G04 Gerber Fmt 4.6, Leading zero omitted, Abs format (unit mm)*
G04 Created by KiCad (PCBNEW 8.0.2-8.0.2-0~ubuntu24.04.1) date 2024-05-05 00:33:56*
%MOMM*%
%LPD*%
G01*
G04 APERTURE LIST*
%ADD10C,0.100000*%
%ADD11C,0.367500*%
%ADD12C,0.120000*%
G04 APERTURE END LIST*
D10*
X42926000Y-90424000D02*
X55118000Y-90424000D01*
X42926000Y-91186000D02*
X42926000Y-90424000D01*
X50404762Y-91158109D02*
X50119048Y-91158109D01*
X50261905Y-91158109D02*
X50261905Y-90658109D01*
X50261905Y-90658109D02*
X50214286Y-90729538D01*
X50214286Y-90729538D02*
X50166667Y-90777157D01*
X50166667Y-90777157D02*
X50119048Y-90800966D01*
X50857142Y-90658109D02*
X50619047Y-90658109D01*
X50619047Y-90658109D02*
X50595238Y-90896204D01*
X50595238Y-90896204D02*
X50619047Y-90872395D01*
X50619047Y-90872395D02*
X50666666Y-90848585D01*
X50666666Y-90848585D02*
X50785714Y-90848585D01*
X50785714Y-90848585D02*
X50833333Y-90872395D01*
X50833333Y-90872395D02*
X50857142Y-90896204D01*
X50857142Y-90896204D02*
X50880952Y-90943823D01*
X50880952Y-90943823D02*
X50880952Y-91062871D01*
X50880952Y-91062871D02*
X50857142Y-91110490D01*
X50857142Y-91110490D02*
X50833333Y-91134300D01*
X50833333Y-91134300D02*
X50785714Y-91158109D01*
X50785714Y-91158109D02*
X50666666Y-91158109D01*
X50666666Y-91158109D02*
X50619047Y-91134300D01*
X50619047Y-91134300D02*
X50595238Y-91110490D01*
X52228762Y-116304109D02*
X51943048Y-116304109D01*
X52085905Y-116304109D02*
X52085905Y-115804109D01*
X52085905Y-115804109D02*
X52038286Y-115875538D01*
X52038286Y-115875538D02*
X51990667Y-115923157D01*
X51990667Y-115923157D02*
X51943048Y-115946966D01*
X52395428Y-115804109D02*
X52704952Y-115804109D01*
X52704952Y-115804109D02*
X52538285Y-115994585D01*
X52538285Y-115994585D02*
X52609714Y-115994585D01*
X52609714Y-115994585D02*
X52657333Y-116018395D01*
X52657333Y-116018395D02*
X52681142Y-116042204D01*
X52681142Y-116042204D02*
X52704952Y-116089823D01*
X52704952Y-116089823D02*
X52704952Y-116208871D01*
X52704952Y-116208871D02*
X52681142Y-116256490D01*
X52681142Y-116256490D02*
X52657333Y-116280300D01*
X52657333Y-116280300D02*
X52609714Y-116304109D01*
X52609714Y-116304109D02*
X52466857Y-116304109D01*
X52466857Y-116304109D02*
X52419238Y-116280300D01*
X52419238Y-116280300D02*
X52395428Y-116256490D01*
X43267334Y-90658109D02*
X43434000Y-91158109D01*
X43434000Y-91158109D02*
X43600667Y-90658109D01*
X44608762Y-106144109D02*
X44323048Y-106144109D01*
X44465905Y-106144109D02*
X44465905Y-105644109D01*
X44465905Y-105644109D02*
X44418286Y-105715538D01*
X44418286Y-105715538D02*
X44370667Y-105763157D01*
X44370667Y-105763157D02*
X44323048Y-105786966D01*
X45061142Y-105644109D02*
X44823047Y-105644109D01*
X44823047Y-105644109D02*
X44799238Y-105882204D01*
X44799238Y-105882204D02*
X44823047Y-105858395D01*
X44823047Y-105858395D02*
X44870666Y-105834585D01*
X44870666Y-105834585D02*
X44989714Y-105834585D01*
X44989714Y-105834585D02*
X45037333Y-105858395D01*
X45037333Y-105858395D02*
X45061142Y-105882204D01*
X45061142Y-105882204D02*
X45084952Y-105929823D01*
X45084952Y-105929823D02*
X45084952Y-106048871D01*
X45084952Y-106048871D02*
X45061142Y-106096490D01*
X45061142Y-106096490D02*
X45037333Y-106120300D01*
X45037333Y-106120300D02*
X44989714Y-106144109D01*
X44989714Y-106144109D02*
X44870666Y-106144109D01*
X44870666Y-106144109D02*
X44823047Y-106120300D01*
X44823047Y-106120300D02*
X44799238Y-106096490D01*
X47148762Y-116304109D02*
X46863048Y-116304109D01*
X47005905Y-116304109D02*
X47005905Y-115804109D01*
X47005905Y-115804109D02*
X46958286Y-115875538D01*
X46958286Y-115875538D02*
X46910667Y-115923157D01*
X46910667Y-115923157D02*
X46863048Y-115946966D01*
X47601142Y-115804109D02*
X47363047Y-115804109D01*
X47363047Y-115804109D02*
X47339238Y-116042204D01*
X47339238Y-116042204D02*
X47363047Y-116018395D01*
X47363047Y-116018395D02*
X47410666Y-115994585D01*
X47410666Y-115994585D02*
X47529714Y-115994585D01*
X47529714Y-115994585D02*
X47577333Y-116018395D01*
X47577333Y-116018395D02*
X47601142Y-116042204D01*
X47601142Y-116042204D02*
X47624952Y-116089823D01*
X47624952Y-116089823D02*
X47624952Y-116208871D01*
X47624952Y-116208871D02*
X47601142Y-116256490D01*
X47601142Y-116256490D02*
X47577333Y-116280300D01*
X47577333Y-116280300D02*
X47529714Y-116304109D01*
X47529714Y-116304109D02*
X47410666Y-116304109D01*
X47410666Y-116304109D02*
X47363047Y-116280300D01*
X47363047Y-116280300D02*
X47339238Y-116256490D01*
X52404762Y-91158109D02*
X52119048Y-91158109D01*
X52261905Y-91158109D02*
X52261905Y-90658109D01*
X52261905Y-90658109D02*
X52214286Y-90729538D01*
X52214286Y-90729538D02*
X52166667Y-90777157D01*
X52166667Y-90777157D02*
X52119048Y-90800966D01*
X52571428Y-90658109D02*
X52880952Y-90658109D01*
X52880952Y-90658109D02*
X52714285Y-90848585D01*
X52714285Y-90848585D02*
X52785714Y-90848585D01*
X52785714Y-90848585D02*
X52833333Y-90872395D01*
X52833333Y-90872395D02*
X52857142Y-90896204D01*
X52857142Y-90896204D02*
X52880952Y-90943823D01*
X52880952Y-90943823D02*
X52880952Y-91062871D01*
X52880952Y-91062871D02*
X52857142Y-91110490D01*
X52857142Y-91110490D02*
X52833333Y-91134300D01*
X52833333Y-91134300D02*
X52785714Y-91158109D01*
X52785714Y-91158109D02*
X52642857Y-91158109D01*
X52642857Y-91158109D02*
X52595238Y-91134300D01*
X52595238Y-91134300D02*
X52571428Y-91110490D01*
X43545142Y-105644109D02*
X43545142Y-106048871D01*
X43545142Y-106048871D02*
X43568952Y-106096490D01*
X43568952Y-106096490D02*
X43592761Y-106120300D01*
X43592761Y-106120300D02*
X43640380Y-106144109D01*
X43640380Y-106144109D02*
X43735618Y-106144109D01*
X43735618Y-106144109D02*
X43783237Y-106120300D01*
X43783237Y-106120300D02*
X43807047Y-106096490D01*
X43807047Y-106096490D02*
X43830856Y-106048871D01*
X43830856Y-106048871D02*
X43830856Y-105644109D01*
X49688762Y-116304109D02*
X49403048Y-116304109D01*
X49545905Y-116304109D02*
X49545905Y-115804109D01*
X49545905Y-115804109D02*
X49498286Y-115875538D01*
X49498286Y-115875538D02*
X49450667Y-115923157D01*
X49450667Y-115923157D02*
X49403048Y-115946966D01*
X50117333Y-115970776D02*
X50117333Y-116304109D01*
X49998285Y-115780300D02*
X49879238Y-116137442D01*
X49879238Y-116137442D02*
X50188761Y-116137442D01*
X49688762Y-106144109D02*
X49403048Y-106144109D01*
X49545905Y-106144109D02*
X49545905Y-105644109D01*
X49545905Y-105644109D02*
X49498286Y-105715538D01*
X49498286Y-105715538D02*
X49450667Y-105763157D01*
X49450667Y-105763157D02*
X49403048Y-105786966D01*
X49855428Y-105644109D02*
X50164952Y-105644109D01*
X50164952Y-105644109D02*
X49998285Y-105834585D01*
X49998285Y-105834585D02*
X50069714Y-105834585D01*
X50069714Y-105834585D02*
X50117333Y-105858395D01*
X50117333Y-105858395D02*
X50141142Y-105882204D01*
X50141142Y-105882204D02*
X50164952Y-105929823D01*
X50164952Y-105929823D02*
X50164952Y-106048871D01*
X50164952Y-106048871D02*
X50141142Y-106096490D01*
X50141142Y-106096490D02*
X50117333Y-106120300D01*
X50117333Y-106120300D02*
X50069714Y-106144109D01*
X50069714Y-106144109D02*
X49926857Y-106144109D01*
X49926857Y-106144109D02*
X49879238Y-106120300D01*
X49879238Y-106120300D02*
X49855428Y-106096490D01*
X37357890Y-90253429D02*
X37238842Y-90253429D01*
X37286461Y-90134381D02*
X37238842Y-90253429D01*
X37238842Y-90253429D02*
X37286461Y-90372476D01*
X37143604Y-90182000D02*
X37238842Y-90253429D01*
X37238842Y-90253429D02*
X37143604Y-90324857D01*
X37357890Y-90705809D02*
X37000747Y-90705809D01*
X37000747Y-90705809D02*
X36929319Y-90682000D01*
X36929319Y-90682000D02*
X36881700Y-90634381D01*
X36881700Y-90634381D02*
X36857890Y-90562952D01*
X36857890Y-90562952D02*
X36857890Y-90515333D01*
X36857890Y-90943904D02*
X37357890Y-90943904D01*
X37357890Y-90943904D02*
X37357890Y-91134380D01*
X37357890Y-91134380D02*
X37334080Y-91181999D01*
X37334080Y-91181999D02*
X37310271Y-91205809D01*
X37310271Y-91205809D02*
X37262652Y-91229618D01*
X37262652Y-91229618D02*
X37191223Y-91229618D01*
X37191223Y-91229618D02*
X37143604Y-91205809D01*
X37143604Y-91205809D02*
X37119795Y-91181999D01*
X37119795Y-91181999D02*
X37095985Y-91134380D01*
X37095985Y-91134380D02*
X37095985Y-90943904D01*
X36857890Y-91705809D02*
X36857890Y-91420095D01*
X36857890Y-91562952D02*
X37357890Y-91562952D01*
X37357890Y-91562952D02*
X37286461Y-91515333D01*
X37286461Y-91515333D02*
X37238842Y-91467714D01*
X37238842Y-91467714D02*
X37215033Y-91420095D01*
X54514762Y-91196609D02*
X54229048Y-91196609D01*
X54371905Y-91196609D02*
X54371905Y-90696609D01*
X54371905Y-90696609D02*
X54324286Y-90768038D01*
X54324286Y-90768038D02*
X54276667Y-90815657D01*
X54276667Y-90815657D02*
X54229048Y-90839466D01*
X54705238Y-90744228D02*
X54729047Y-90720419D01*
X54729047Y-90720419D02*
X54776666Y-90696609D01*
X54776666Y-90696609D02*
X54895714Y-90696609D01*
X54895714Y-90696609D02*
X54943333Y-90720419D01*
X54943333Y-90720419D02*
X54967142Y-90744228D01*
X54967142Y-90744228D02*
X54990952Y-90791847D01*
X54990952Y-90791847D02*
X54990952Y-90839466D01*
X54990952Y-90839466D02*
X54967142Y-90910895D01*
X54967142Y-90910895D02*
X54681428Y-91196609D01*
X54681428Y-91196609D02*
X54990952Y-91196609D01*
X44608762Y-116304109D02*
X44323048Y-116304109D01*
X44465905Y-116304109D02*
X44465905Y-115804109D01*
X44465905Y-115804109D02*
X44418286Y-115875538D01*
X44418286Y-115875538D02*
X44370667Y-115923157D01*
X44370667Y-115923157D02*
X44323048Y-115946966D01*
X45037333Y-115804109D02*
X44942095Y-115804109D01*
X44942095Y-115804109D02*
X44894476Y-115827919D01*
X44894476Y-115827919D02*
X44870666Y-115851728D01*
X44870666Y-115851728D02*
X44823047Y-115923157D01*
X44823047Y-115923157D02*
X44799238Y-116018395D01*
X44799238Y-116018395D02*
X44799238Y-116208871D01*
X44799238Y-116208871D02*
X44823047Y-116256490D01*
X44823047Y-116256490D02*
X44846857Y-116280300D01*
X44846857Y-116280300D02*
X44894476Y-116304109D01*
X44894476Y-116304109D02*
X44989714Y-116304109D01*
X44989714Y-116304109D02*
X45037333Y-116280300D01*
X45037333Y-116280300D02*
X45061142Y-116256490D01*
X45061142Y-116256490D02*
X45084952Y-116208871D01*
X45084952Y-116208871D02*
X45084952Y-116089823D01*
X45084952Y-116089823D02*
X45061142Y-116042204D01*
X45061142Y-116042204D02*
X45037333Y-116018395D01*
X45037333Y-116018395D02*
X44989714Y-115994585D01*
X44989714Y-115994585D02*
X44894476Y-115994585D01*
X44894476Y-115994585D02*
X44846857Y-116018395D01*
X44846857Y-116018395D02*
X44823047Y-116042204D01*
X44823047Y-116042204D02*
X44799238Y-116089823D01*
X68403623Y-95319163D02*
X67903623Y-95319163D01*
X67903623Y-95319163D02*
X68260766Y-95152496D01*
X68260766Y-95152496D02*
X67903623Y-94985830D01*
X67903623Y-94985830D02*
X68403623Y-94985830D01*
X68403623Y-94747734D02*
X68070290Y-94747734D01*
X67903623Y-94747734D02*
X67927433Y-94771543D01*
X67927433Y-94771543D02*
X67951242Y-94747734D01*
X67951242Y-94747734D02*
X67927433Y-94723924D01*
X67927433Y-94723924D02*
X67903623Y-94747734D01*
X67903623Y-94747734D02*
X67951242Y-94747734D01*
X68379814Y-94295353D02*
X68403623Y-94342972D01*
X68403623Y-94342972D02*
X68403623Y-94438210D01*
X68403623Y-94438210D02*
X68379814Y-94485829D01*
X68379814Y-94485829D02*
X68356004Y-94509639D01*
X68356004Y-94509639D02*
X68308385Y-94533448D01*
X68308385Y-94533448D02*
X68165528Y-94533448D01*
X68165528Y-94533448D02*
X68117909Y-94509639D01*
X68117909Y-94509639D02*
X68094099Y-94485829D01*
X68094099Y-94485829D02*
X68070290Y-94438210D01*
X68070290Y-94438210D02*
X68070290Y-94342972D01*
X68070290Y-94342972D02*
X68094099Y-94295353D01*
X68403623Y-94081068D02*
X68070290Y-94081068D01*
X68165528Y-94081068D02*
X68117909Y-94057258D01*
X68117909Y-94057258D02*
X68094099Y-94033449D01*
X68094099Y-94033449D02*
X68070290Y-93985830D01*
X68070290Y-93985830D02*
X68070290Y-93938211D01*
X68403623Y-93700115D02*
X68379814Y-93747734D01*
X68379814Y-93747734D02*
X68356004Y-93771544D01*
X68356004Y-93771544D02*
X68308385Y-93795353D01*
X68308385Y-93795353D02*
X68165528Y-93795353D01*
X68165528Y-93795353D02*
X68117909Y-93771544D01*
X68117909Y-93771544D02*
X68094099Y-93747734D01*
X68094099Y-93747734D02*
X68070290Y-93700115D01*
X68070290Y-93700115D02*
X68070290Y-93628687D01*
X68070290Y-93628687D02*
X68094099Y-93581068D01*
X68094099Y-93581068D02*
X68117909Y-93557258D01*
X68117909Y-93557258D02*
X68165528Y-93533449D01*
X68165528Y-93533449D02*
X68308385Y-93533449D01*
X68308385Y-93533449D02*
X68356004Y-93557258D01*
X68356004Y-93557258D02*
X68379814Y-93581068D01*
X68379814Y-93581068D02*
X68403623Y-93628687D01*
X68403623Y-93628687D02*
X68403623Y-93700115D01*
X68403623Y-93319163D02*
X67903623Y-93319163D01*
X67903623Y-93319163D02*
X67903623Y-93128687D01*
X67903623Y-93128687D02*
X67927433Y-93081068D01*
X67927433Y-93081068D02*
X67951242Y-93057258D01*
X67951242Y-93057258D02*
X67998861Y-93033449D01*
X67998861Y-93033449D02*
X68070290Y-93033449D01*
X68070290Y-93033449D02*
X68117909Y-93057258D01*
X68117909Y-93057258D02*
X68141718Y-93081068D01*
X68141718Y-93081068D02*
X68165528Y-93128687D01*
X68165528Y-93128687D02*
X68165528Y-93319163D01*
X68403623Y-92819163D02*
X67903623Y-92819163D01*
X68403623Y-92604877D02*
X68141718Y-92604877D01*
X68141718Y-92604877D02*
X68094099Y-92628687D01*
X68094099Y-92628687D02*
X68070290Y-92676306D01*
X68070290Y-92676306D02*
X68070290Y-92747734D01*
X68070290Y-92747734D02*
X68094099Y-92795353D01*
X68094099Y-92795353D02*
X68117909Y-92819163D01*
X68403623Y-92152496D02*
X68141718Y-92152496D01*
X68141718Y-92152496D02*
X68094099Y-92176306D01*
X68094099Y-92176306D02*
X68070290Y-92223925D01*
X68070290Y-92223925D02*
X68070290Y-92319163D01*
X68070290Y-92319163D02*
X68094099Y-92366782D01*
X68379814Y-92152496D02*
X68403623Y-92200115D01*
X68403623Y-92200115D02*
X68403623Y-92319163D01*
X68403623Y-92319163D02*
X68379814Y-92366782D01*
X68379814Y-92366782D02*
X68332194Y-92390591D01*
X68332194Y-92390591D02*
X68284575Y-92390591D01*
X68284575Y-92390591D02*
X68236956Y-92366782D01*
X68236956Y-92366782D02*
X68213147Y-92319163D01*
X68213147Y-92319163D02*
X68213147Y-92200115D01*
X68213147Y-92200115D02*
X68189337Y-92152496D01*
X68379814Y-91938210D02*
X68403623Y-91890591D01*
X68403623Y-91890591D02*
X68403623Y-91795353D01*
X68403623Y-91795353D02*
X68379814Y-91747734D01*
X68379814Y-91747734D02*
X68332194Y-91723925D01*
X68332194Y-91723925D02*
X68308385Y-91723925D01*
X68308385Y-91723925D02*
X68260766Y-91747734D01*
X68260766Y-91747734D02*
X68236956Y-91795353D01*
X68236956Y-91795353D02*
X68236956Y-91866782D01*
X68236956Y-91866782D02*
X68213147Y-91914401D01*
X68213147Y-91914401D02*
X68165528Y-91938210D01*
X68165528Y-91938210D02*
X68141718Y-91938210D01*
X68141718Y-91938210D02*
X68094099Y-91914401D01*
X68094099Y-91914401D02*
X68070290Y-91866782D01*
X68070290Y-91866782D02*
X68070290Y-91795353D01*
X68070290Y-91795353D02*
X68094099Y-91747734D01*
X68379814Y-91319163D02*
X68403623Y-91366782D01*
X68403623Y-91366782D02*
X68403623Y-91462020D01*
X68403623Y-91462020D02*
X68379814Y-91509639D01*
X68379814Y-91509639D02*
X68332194Y-91533448D01*
X68332194Y-91533448D02*
X68141718Y-91533448D01*
X68141718Y-91533448D02*
X68094099Y-91509639D01*
X68094099Y-91509639D02*
X68070290Y-91462020D01*
X68070290Y-91462020D02*
X68070290Y-91366782D01*
X68070290Y-91366782D02*
X68094099Y-91319163D01*
X68094099Y-91319163D02*
X68141718Y-91295353D01*
X68141718Y-91295353D02*
X68189337Y-91295353D01*
X68189337Y-91295353D02*
X68236956Y-91533448D01*
X68708595Y-95366782D02*
X68708595Y-95033449D01*
X68708595Y-95033449D02*
X69208595Y-95366782D01*
X69208595Y-95366782D02*
X69208595Y-95033449D01*
X68708595Y-94890592D02*
X68708595Y-94557259D01*
X68708595Y-94557259D02*
X69208595Y-94771544D01*
X69018119Y-94366783D02*
X69018119Y-93985831D01*
X69208595Y-93509640D02*
X69208595Y-93747735D01*
X69208595Y-93747735D02*
X68708595Y-93747735D01*
X69208595Y-93342973D02*
X68875262Y-93342973D01*
X68708595Y-93342973D02*
X68732405Y-93366782D01*
X68732405Y-93366782D02*
X68756214Y-93342973D01*
X68756214Y-93342973D02*
X68732405Y-93319163D01*
X68732405Y-93319163D02*
X68708595Y-93342973D01*
X68708595Y-93342973D02*
X68756214Y-93342973D01*
X68875262Y-93176306D02*
X68875262Y-92985830D01*
X68708595Y-93104878D02*
X69137166Y-93104878D01*
X69137166Y-93104878D02*
X69184786Y-93081068D01*
X69184786Y-93081068D02*
X69208595Y-93033449D01*
X69208595Y-93033449D02*
X69208595Y-92985830D01*
X69184786Y-92628688D02*
X69208595Y-92676307D01*
X69208595Y-92676307D02*
X69208595Y-92771545D01*
X69208595Y-92771545D02*
X69184786Y-92819164D01*
X69184786Y-92819164D02*
X69137166Y-92842973D01*
X69137166Y-92842973D02*
X68946690Y-92842973D01*
X68946690Y-92842973D02*
X68899071Y-92819164D01*
X68899071Y-92819164D02*
X68875262Y-92771545D01*
X68875262Y-92771545D02*
X68875262Y-92676307D01*
X68875262Y-92676307D02*
X68899071Y-92628688D01*
X68899071Y-92628688D02*
X68946690Y-92604878D01*
X68946690Y-92604878D02*
X68994309Y-92604878D01*
X68994309Y-92604878D02*
X69041928Y-92842973D01*
X69208595Y-92009641D02*
X68708595Y-92009641D01*
X68946690Y-92009641D02*
X68946690Y-91723927D01*
X69208595Y-91723927D02*
X68708595Y-91723927D01*
X69065738Y-91509640D02*
X69065738Y-91271545D01*
X69208595Y-91557259D02*
X68708595Y-91390593D01*
X68708595Y-91390593D02*
X69208595Y-91223926D01*
X68708595Y-91128688D02*
X68708595Y-90842974D01*
X69208595Y-90985831D02*
X68708595Y-90985831D01*
X48404762Y-91158109D02*
X48119048Y-91158109D01*
X48261905Y-91158109D02*
X48261905Y-90658109D01*
X48261905Y-90658109D02*
X48214286Y-90729538D01*
X48214286Y-90729538D02*
X48166667Y-90777157D01*
X48166667Y-90777157D02*
X48119048Y-90800966D01*
X48833333Y-90658109D02*
X48738095Y-90658109D01*
X48738095Y-90658109D02*
X48690476Y-90681919D01*
X48690476Y-90681919D02*
X48666666Y-90705728D01*
X48666666Y-90705728D02*
X48619047Y-90777157D01*
X48619047Y-90777157D02*
X48595238Y-90872395D01*
X48595238Y-90872395D02*
X48595238Y-91062871D01*
X48595238Y-91062871D02*
X48619047Y-91110490D01*
X48619047Y-91110490D02*
X48642857Y-91134300D01*
X48642857Y-91134300D02*
X48690476Y-91158109D01*
X48690476Y-91158109D02*
X48785714Y-91158109D01*
X48785714Y-91158109D02*
X48833333Y-91134300D01*
X48833333Y-91134300D02*
X48857142Y-91110490D01*
X48857142Y-91110490D02*
X48880952Y-91062871D01*
X48880952Y-91062871D02*
X48880952Y-90943823D01*
X48880952Y-90943823D02*
X48857142Y-90896204D01*
X48857142Y-90896204D02*
X48833333Y-90872395D01*
X48833333Y-90872395D02*
X48785714Y-90848585D01*
X48785714Y-90848585D02*
X48690476Y-90848585D01*
X48690476Y-90848585D02*
X48642857Y-90872395D01*
X48642857Y-90872395D02*
X48619047Y-90896204D01*
X48619047Y-90896204D02*
X48595238Y-90943823D01*
X52228762Y-106144109D02*
X51943048Y-106144109D01*
X52085905Y-106144109D02*
X52085905Y-105644109D01*
X52085905Y-105644109D02*
X52038286Y-105715538D01*
X52038286Y-105715538D02*
X51990667Y-105763157D01*
X51990667Y-105763157D02*
X51943048Y-105786966D01*
X52419238Y-105691728D02*
X52443047Y-105667919D01*
X52443047Y-105667919D02*
X52490666Y-105644109D01*
X52490666Y-105644109D02*
X52609714Y-105644109D01*
X52609714Y-105644109D02*
X52657333Y-105667919D01*
X52657333Y-105667919D02*
X52681142Y-105691728D01*
X52681142Y-105691728D02*
X52704952Y-105739347D01*
X52704952Y-105739347D02*
X52704952Y-105786966D01*
X52704952Y-105786966D02*
X52681142Y-105858395D01*
X52681142Y-105858395D02*
X52395428Y-106144109D01*
X52395428Y-106144109D02*
X52704952Y-106144109D01*
X46386762Y-91158109D02*
X46101048Y-91158109D01*
X46243905Y-91158109D02*
X46243905Y-90658109D01*
X46243905Y-90658109D02*
X46196286Y-90729538D01*
X46196286Y-90729538D02*
X46148667Y-90777157D01*
X46148667Y-90777157D02*
X46101048Y-90800966D01*
X46553428Y-90658109D02*
X46886761Y-90658109D01*
X46886761Y-90658109D02*
X46672476Y-91158109D01*
X37729217Y-90255623D02*
X38038741Y-90255623D01*
X38038741Y-90255623D02*
X37872074Y-90446099D01*
X37872074Y-90446099D02*
X37943503Y-90446099D01*
X37943503Y-90446099D02*
X37991122Y-90469909D01*
X37991122Y-90469909D02*
X38014931Y-90493718D01*
X38014931Y-90493718D02*
X38038741Y-90541337D01*
X38038741Y-90541337D02*
X38038741Y-90660385D01*
X38038741Y-90660385D02*
X38014931Y-90708004D01*
X38014931Y-90708004D02*
X37991122Y-90731814D01*
X37991122Y-90731814D02*
X37943503Y-90755623D01*
X37943503Y-90755623D02*
X37800646Y-90755623D01*
X37800646Y-90755623D02*
X37753027Y-90731814D01*
X37753027Y-90731814D02*
X37729217Y-90708004D01*
X38276836Y-90755623D02*
X38372074Y-90755623D01*
X38372074Y-90755623D02*
X38419693Y-90731814D01*
X38419693Y-90731814D02*
X38443502Y-90708004D01*
X38443502Y-90708004D02*
X38491121Y-90636575D01*
X38491121Y-90636575D02*
X38514931Y-90541337D01*
X38514931Y-90541337D02*
X38514931Y-90350861D01*
X38514931Y-90350861D02*
X38491121Y-90303242D01*
X38491121Y-90303242D02*
X38467312Y-90279433D01*
X38467312Y-90279433D02*
X38419693Y-90255623D01*
X38419693Y-90255623D02*
X38324455Y-90255623D01*
X38324455Y-90255623D02*
X38276836Y-90279433D01*
X38276836Y-90279433D02*
X38253026Y-90303242D01*
X38253026Y-90303242D02*
X38229217Y-90350861D01*
X38229217Y-90350861D02*
X38229217Y-90469909D01*
X38229217Y-90469909D02*
X38253026Y-90517528D01*
X38253026Y-90517528D02*
X38276836Y-90541337D01*
X38276836Y-90541337D02*
X38324455Y-90565147D01*
X38324455Y-90565147D02*
X38419693Y-90565147D01*
X38419693Y-90565147D02*
X38467312Y-90541337D01*
X38467312Y-90541337D02*
X38491121Y-90517528D01*
X38491121Y-90517528D02*
X38514931Y-90469909D01*
X37991122Y-91227262D02*
X37991122Y-91560595D01*
X37872074Y-91036786D02*
X37753027Y-91393928D01*
X37753027Y-91393928D02*
X38062550Y-91393928D01*
X38348264Y-91060595D02*
X38395883Y-91060595D01*
X38395883Y-91060595D02*
X38443502Y-91084405D01*
X38443502Y-91084405D02*
X38467312Y-91108214D01*
X38467312Y-91108214D02*
X38491121Y-91155833D01*
X38491121Y-91155833D02*
X38514931Y-91251071D01*
X38514931Y-91251071D02*
X38514931Y-91370119D01*
X38514931Y-91370119D02*
X38491121Y-91465357D01*
X38491121Y-91465357D02*
X38467312Y-91512976D01*
X38467312Y-91512976D02*
X38443502Y-91536786D01*
X38443502Y-91536786D02*
X38395883Y-91560595D01*
X38395883Y-91560595D02*
X38348264Y-91560595D01*
X38348264Y-91560595D02*
X38300645Y-91536786D01*
X38300645Y-91536786D02*
X38276836Y-91512976D01*
X38276836Y-91512976D02*
X38253026Y-91465357D01*
X38253026Y-91465357D02*
X38229217Y-91370119D01*
X38229217Y-91370119D02*
X38229217Y-91251071D01*
X38229217Y-91251071D02*
X38253026Y-91155833D01*
X38253026Y-91155833D02*
X38276836Y-91108214D01*
X38276836Y-91108214D02*
X38300645Y-91084405D01*
X38300645Y-91084405D02*
X38348264Y-91060595D01*
X44354762Y-91158109D02*
X44069048Y-91158109D01*
X44211905Y-91158109D02*
X44211905Y-90658109D01*
X44211905Y-90658109D02*
X44164286Y-90729538D01*
X44164286Y-90729538D02*
X44116667Y-90777157D01*
X44116667Y-90777157D02*
X44069048Y-90800966D01*
X44640476Y-90872395D02*
X44592857Y-90848585D01*
X44592857Y-90848585D02*
X44569047Y-90824776D01*
X44569047Y-90824776D02*
X44545238Y-90777157D01*
X44545238Y-90777157D02*
X44545238Y-90753347D01*
X44545238Y-90753347D02*
X44569047Y-90705728D01*
X44569047Y-90705728D02*
X44592857Y-90681919D01*
X44592857Y-90681919D02*
X44640476Y-90658109D01*
X44640476Y-90658109D02*
X44735714Y-90658109D01*
X44735714Y-90658109D02*
X44783333Y-90681919D01*
X44783333Y-90681919D02*
X44807142Y-90705728D01*
X44807142Y-90705728D02*
X44830952Y-90753347D01*
X44830952Y-90753347D02*
X44830952Y-90777157D01*
X44830952Y-90777157D02*
X44807142Y-90824776D01*
X44807142Y-90824776D02*
X44783333Y-90848585D01*
X44783333Y-90848585D02*
X44735714Y-90872395D01*
X44735714Y-90872395D02*
X44640476Y-90872395D01*
X44640476Y-90872395D02*
X44592857Y-90896204D01*
X44592857Y-90896204D02*
X44569047Y-90920014D01*
X44569047Y-90920014D02*
X44545238Y-90967633D01*
X44545238Y-90967633D02*
X44545238Y-91062871D01*
X44545238Y-91062871D02*
X44569047Y-91110490D01*
X44569047Y-91110490D02*
X44592857Y-91134300D01*
X44592857Y-91134300D02*
X44640476Y-91158109D01*
X44640476Y-91158109D02*
X44735714Y-91158109D01*
X44735714Y-91158109D02*
X44783333Y-91134300D01*
X44783333Y-91134300D02*
X44807142Y-91110490D01*
X44807142Y-91110490D02*
X44830952Y-91062871D01*
X44830952Y-91062871D02*
X44830952Y-90967633D01*
X44830952Y-90967633D02*
X44807142Y-90920014D01*
X44807142Y-90920014D02*
X44783333Y-90896204D01*
X44783333Y-90896204D02*
X44735714Y-90872395D01*
X43473714Y-115804109D02*
X43592762Y-116304109D01*
X43592762Y-116304109D02*
X43688000Y-115946966D01*
X43688000Y-115946966D02*
X43783238Y-116304109D01*
X43783238Y-116304109D02*
X43902286Y-115804109D01*
X47148762Y-106144109D02*
X46863048Y-106144109D01*
X47005905Y-106144109D02*
X47005905Y-105644109D01*
X47005905Y-105644109D02*
X46958286Y-105715538D01*
X46958286Y-105715538D02*
X46910667Y-105763157D01*
X46910667Y-105763157D02*
X46863048Y-105786966D01*
X47577333Y-105810776D02*
X47577333Y-106144109D01*
X47458285Y-105620300D02*
X47339238Y-105977442D01*
X47339238Y-105977442D02*
X47648761Y-105977442D01*
X60661027Y-91625794D02*
X60899122Y-91625794D01*
X60613408Y-91768651D02*
X60780074Y-91268651D01*
X60780074Y-91268651D02*
X60946741Y-91768651D01*
X61113407Y-91721032D02*
X61137217Y-91744842D01*
X61137217Y-91744842D02*
X61113407Y-91768651D01*
X61113407Y-91768651D02*
X61089598Y-91744842D01*
X61089598Y-91744842D02*
X61113407Y-91721032D01*
X61113407Y-91721032D02*
X61113407Y-91768651D01*
X61113407Y-91459127D02*
X61137217Y-91482937D01*
X61137217Y-91482937D02*
X61113407Y-91506746D01*
X61113407Y-91506746D02*
X61089598Y-91482937D01*
X61089598Y-91482937D02*
X61113407Y-91459127D01*
X61113407Y-91459127D02*
X61113407Y-91506746D01*
X61661026Y-91268651D02*
X61946740Y-91268651D01*
X61803883Y-91768651D02*
X61803883Y-91268651D01*
X62375311Y-91768651D02*
X62089597Y-91768651D01*
X62232454Y-91768651D02*
X62232454Y-91268651D01*
X62232454Y-91268651D02*
X62184835Y-91340080D01*
X62184835Y-91340080D02*
X62137216Y-91387699D01*
X62137216Y-91387699D02*
X62089597Y-91411508D01*
X62803882Y-91435318D02*
X62803882Y-91768651D01*
X62684834Y-91244842D02*
X62565787Y-91601984D01*
X62565787Y-91601984D02*
X62875310Y-91601984D01*
X63446738Y-91506746D02*
X63613405Y-91506746D01*
X63684833Y-91768651D02*
X63446738Y-91768651D01*
X63446738Y-91768651D02*
X63446738Y-91268651D01*
X63446738Y-91268651D02*
X63684833Y-91268651D01*
X63899119Y-91721032D02*
X63922929Y-91744842D01*
X63922929Y-91744842D02*
X63899119Y-91768651D01*
X63899119Y-91768651D02*
X63875310Y-91744842D01*
X63875310Y-91744842D02*
X63899119Y-91721032D01*
X63899119Y-91721032D02*
X63899119Y-91768651D01*
X63899119Y-91459127D02*
X63922929Y-91482937D01*
X63922929Y-91482937D02*
X63899119Y-91506746D01*
X63899119Y-91506746D02*
X63875310Y-91482937D01*
X63875310Y-91482937D02*
X63899119Y-91459127D01*
X63899119Y-91459127D02*
X63899119Y-91506746D01*
X64446738Y-91268651D02*
X64732452Y-91268651D01*
X64589595Y-91768651D02*
X64589595Y-91268651D01*
X65161023Y-91768651D02*
X64875309Y-91768651D01*
X65018166Y-91768651D02*
X65018166Y-91268651D01*
X65018166Y-91268651D02*
X64970547Y-91340080D01*
X64970547Y-91340080D02*
X64922928Y-91387699D01*
X64922928Y-91387699D02*
X64875309Y-91411508D01*
X65637213Y-91768651D02*
X65351499Y-91768651D01*
X65494356Y-91768651D02*
X65494356Y-91268651D01*
X65494356Y-91268651D02*
X65446737Y-91340080D01*
X65446737Y-91340080D02*
X65399118Y-91387699D01*
X65399118Y-91387699D02*
X65351499Y-91411508D01*
X60851503Y-92311718D02*
X60922931Y-92335528D01*
X60922931Y-92335528D02*
X60946741Y-92359337D01*
X60946741Y-92359337D02*
X60970550Y-92406956D01*
X60970550Y-92406956D02*
X60970550Y-92478385D01*
X60970550Y-92478385D02*
X60946741Y-92526004D01*
X60946741Y-92526004D02*
X60922931Y-92549814D01*
X60922931Y-92549814D02*
X60875312Y-92573623D01*
X60875312Y-92573623D02*
X60684836Y-92573623D01*
X60684836Y-92573623D02*
X60684836Y-92073623D01*
X60684836Y-92073623D02*
X60851503Y-92073623D01*
X60851503Y-92073623D02*
X60899122Y-92097433D01*
X60899122Y-92097433D02*
X60922931Y-92121242D01*
X60922931Y-92121242D02*
X60946741Y-92168861D01*
X60946741Y-92168861D02*
X60946741Y-92216480D01*
X60946741Y-92216480D02*
X60922931Y-92264099D01*
X60922931Y-92264099D02*
X60899122Y-92287909D01*
X60899122Y-92287909D02*
X60851503Y-92311718D01*
X60851503Y-92311718D02*
X60684836Y-92311718D01*
X61184836Y-92526004D02*
X61208646Y-92549814D01*
X61208646Y-92549814D02*
X61184836Y-92573623D01*
X61184836Y-92573623D02*
X61161027Y-92549814D01*
X61161027Y-92549814D02*
X61184836Y-92526004D01*
X61184836Y-92526004D02*
X61184836Y-92573623D01*
X61184836Y-92264099D02*
X61208646Y-92287909D01*
X61208646Y-92287909D02*
X61184836Y-92311718D01*
X61184836Y-92311718D02*
X61161027Y-92287909D01*
X61161027Y-92287909D02*
X61184836Y-92264099D01*
X61184836Y-92264099D02*
X61184836Y-92311718D01*
X61732455Y-92073623D02*
X62018169Y-92073623D01*
X61875312Y-92573623D02*
X61875312Y-92073623D01*
X62446740Y-92573623D02*
X62161026Y-92573623D01*
X62303883Y-92573623D02*
X62303883Y-92073623D01*
X62303883Y-92073623D02*
X62256264Y-92145052D01*
X62256264Y-92145052D02*
X62208645Y-92192671D01*
X62208645Y-92192671D02*
X62161026Y-92216480D01*
X62899120Y-92073623D02*
X62661025Y-92073623D01*
X62661025Y-92073623D02*
X62637216Y-92311718D01*
X62637216Y-92311718D02*
X62661025Y-92287909D01*
X62661025Y-92287909D02*
X62708644Y-92264099D01*
X62708644Y-92264099D02*
X62827692Y-92264099D01*
X62827692Y-92264099D02*
X62875311Y-92287909D01*
X62875311Y-92287909D02*
X62899120Y-92311718D01*
X62899120Y-92311718D02*
X62922930Y-92359337D01*
X62922930Y-92359337D02*
X62922930Y-92478385D01*
X62922930Y-92478385D02*
X62899120Y-92526004D01*
X62899120Y-92526004D02*
X62875311Y-92549814D01*
X62875311Y-92549814D02*
X62827692Y-92573623D01*
X62827692Y-92573623D02*
X62708644Y-92573623D01*
X62708644Y-92573623D02*
X62661025Y-92549814D01*
X62661025Y-92549814D02*
X62637216Y-92526004D01*
X63684834Y-92311718D02*
X63518167Y-92311718D01*
X63518167Y-92573623D02*
X63518167Y-92073623D01*
X63518167Y-92073623D02*
X63756262Y-92073623D01*
X63946738Y-92526004D02*
X63970548Y-92549814D01*
X63970548Y-92549814D02*
X63946738Y-92573623D01*
X63946738Y-92573623D02*
X63922929Y-92549814D01*
X63922929Y-92549814D02*
X63946738Y-92526004D01*
X63946738Y-92526004D02*
X63946738Y-92573623D01*
X63946738Y-92264099D02*
X63970548Y-92287909D01*
X63970548Y-92287909D02*
X63946738Y-92311718D01*
X63946738Y-92311718D02*
X63922929Y-92287909D01*
X63922929Y-92287909D02*
X63946738Y-92264099D01*
X63946738Y-92264099D02*
X63946738Y-92311718D01*
X64494357Y-92073623D02*
X64780071Y-92073623D01*
X64637214Y-92573623D02*
X64637214Y-92073623D01*
X65208642Y-92573623D02*
X64922928Y-92573623D01*
X65065785Y-92573623D02*
X65065785Y-92073623D01*
X65065785Y-92073623D02*
X65018166Y-92145052D01*
X65018166Y-92145052D02*
X64970547Y-92192671D01*
X64970547Y-92192671D02*
X64922928Y-92216480D01*
X65399118Y-92121242D02*
X65422927Y-92097433D01*
X65422927Y-92097433D02*
X65470546Y-92073623D01*
X65470546Y-92073623D02*
X65589594Y-92073623D01*
X65589594Y-92073623D02*
X65637213Y-92097433D01*
X65637213Y-92097433D02*
X65661022Y-92121242D01*
X65661022Y-92121242D02*
X65684832Y-92168861D01*
X65684832Y-92168861D02*
X65684832Y-92216480D01*
X65684832Y-92216480D02*
X65661022Y-92287909D01*
X65661022Y-92287909D02*
X65375308Y-92573623D01*
X65375308Y-92573623D02*
X65684832Y-92573623D01*
X60970550Y-93330976D02*
X60946741Y-93354786D01*
X60946741Y-93354786D02*
X60875312Y-93378595D01*
X60875312Y-93378595D02*
X60827693Y-93378595D01*
X60827693Y-93378595D02*
X60756265Y-93354786D01*
X60756265Y-93354786D02*
X60708646Y-93307166D01*
X60708646Y-93307166D02*
X60684836Y-93259547D01*
X60684836Y-93259547D02*
X60661027Y-93164309D01*
X60661027Y-93164309D02*
X60661027Y-93092881D01*
X60661027Y-93092881D02*
X60684836Y-92997643D01*
X60684836Y-92997643D02*
X60708646Y-92950024D01*
X60708646Y-92950024D02*
X60756265Y-92902405D01*
X60756265Y-92902405D02*
X60827693Y-92878595D01*
X60827693Y-92878595D02*
X60875312Y-92878595D01*
X60875312Y-92878595D02*
X60946741Y-92902405D01*
X60946741Y-92902405D02*
X60970550Y-92926214D01*
X61184836Y-93330976D02*
X61208646Y-93354786D01*
X61208646Y-93354786D02*
X61184836Y-93378595D01*
X61184836Y-93378595D02*
X61161027Y-93354786D01*
X61161027Y-93354786D02*
X61184836Y-93330976D01*
X61184836Y-93330976D02*
X61184836Y-93378595D01*
X61184836Y-93069071D02*
X61208646Y-93092881D01*
X61208646Y-93092881D02*
X61184836Y-93116690D01*
X61184836Y-93116690D02*
X61161027Y-93092881D01*
X61161027Y-93092881D02*
X61184836Y-93069071D01*
X61184836Y-93069071D02*
X61184836Y-93116690D01*
X61732455Y-92878595D02*
X62018169Y-92878595D01*
X61875312Y-93378595D02*
X61875312Y-92878595D01*
X62446740Y-93378595D02*
X62161026Y-93378595D01*
X62303883Y-93378595D02*
X62303883Y-92878595D01*
X62303883Y-92878595D02*
X62256264Y-92950024D01*
X62256264Y-92950024D02*
X62208645Y-92997643D01*
X62208645Y-92997643D02*
X62161026Y-93021452D01*
X62613406Y-92878595D02*
X62946739Y-92878595D01*
X62946739Y-92878595D02*
X62732454Y-93378595D01*
X63780072Y-92902405D02*
X63732453Y-92878595D01*
X63732453Y-92878595D02*
X63661024Y-92878595D01*
X63661024Y-92878595D02*
X63589596Y-92902405D01*
X63589596Y-92902405D02*
X63541977Y-92950024D01*
X63541977Y-92950024D02*
X63518167Y-92997643D01*
X63518167Y-92997643D02*
X63494358Y-93092881D01*
X63494358Y-93092881D02*
X63494358Y-93164309D01*
X63494358Y-93164309D02*
X63518167Y-93259547D01*
X63518167Y-93259547D02*
X63541977Y-93307166D01*
X63541977Y-93307166D02*
X63589596Y-93354786D01*
X63589596Y-93354786D02*
X63661024Y-93378595D01*
X63661024Y-93378595D02*
X63708643Y-93378595D01*
X63708643Y-93378595D02*
X63780072Y-93354786D01*
X63780072Y-93354786D02*
X63803881Y-93330976D01*
X63803881Y-93330976D02*
X63803881Y-93164309D01*
X63803881Y-93164309D02*
X63708643Y-93164309D01*
X64018167Y-93330976D02*
X64041977Y-93354786D01*
X64041977Y-93354786D02*
X64018167Y-93378595D01*
X64018167Y-93378595D02*
X63994358Y-93354786D01*
X63994358Y-93354786D02*
X64018167Y-93330976D01*
X64018167Y-93330976D02*
X64018167Y-93378595D01*
X64018167Y-93069071D02*
X64041977Y-93092881D01*
X64041977Y-93092881D02*
X64018167Y-93116690D01*
X64018167Y-93116690D02*
X63994358Y-93092881D01*
X63994358Y-93092881D02*
X64018167Y-93069071D01*
X64018167Y-93069071D02*
X64018167Y-93116690D01*
X64922928Y-93378595D02*
X64756262Y-93140500D01*
X64637214Y-93378595D02*
X64637214Y-92878595D01*
X64637214Y-92878595D02*
X64827690Y-92878595D01*
X64827690Y-92878595D02*
X64875309Y-92902405D01*
X64875309Y-92902405D02*
X64899119Y-92926214D01*
X64899119Y-92926214D02*
X64922928Y-92973833D01*
X64922928Y-92973833D02*
X64922928Y-93045262D01*
X64922928Y-93045262D02*
X64899119Y-93092881D01*
X64899119Y-93092881D02*
X64875309Y-93116690D01*
X64875309Y-93116690D02*
X64827690Y-93140500D01*
X64827690Y-93140500D02*
X64637214Y-93140500D01*
X65399119Y-93378595D02*
X65113405Y-93378595D01*
X65256262Y-93378595D02*
X65256262Y-92878595D01*
X65256262Y-92878595D02*
X65208643Y-92950024D01*
X65208643Y-92950024D02*
X65161024Y-92997643D01*
X65161024Y-92997643D02*
X65113405Y-93021452D01*
X65684833Y-93092881D02*
X65637214Y-93069071D01*
X65637214Y-93069071D02*
X65613404Y-93045262D01*
X65613404Y-93045262D02*
X65589595Y-92997643D01*
X65589595Y-92997643D02*
X65589595Y-92973833D01*
X65589595Y-92973833D02*
X65613404Y-92926214D01*
X65613404Y-92926214D02*
X65637214Y-92902405D01*
X65637214Y-92902405D02*
X65684833Y-92878595D01*
X65684833Y-92878595D02*
X65780071Y-92878595D01*
X65780071Y-92878595D02*
X65827690Y-92902405D01*
X65827690Y-92902405D02*
X65851499Y-92926214D01*
X65851499Y-92926214D02*
X65875309Y-92973833D01*
X65875309Y-92973833D02*
X65875309Y-92997643D01*
X65875309Y-92997643D02*
X65851499Y-93045262D01*
X65851499Y-93045262D02*
X65827690Y-93069071D01*
X65827690Y-93069071D02*
X65780071Y-93092881D01*
X65780071Y-93092881D02*
X65684833Y-93092881D01*
X65684833Y-93092881D02*
X65637214Y-93116690D01*
X65637214Y-93116690D02*
X65613404Y-93140500D01*
X65613404Y-93140500D02*
X65589595Y-93188119D01*
X65589595Y-93188119D02*
X65589595Y-93283357D01*
X65589595Y-93283357D02*
X65613404Y-93330976D01*
X65613404Y-93330976D02*
X65637214Y-93354786D01*
X65637214Y-93354786D02*
X65684833Y-93378595D01*
X65684833Y-93378595D02*
X65780071Y-93378595D01*
X65780071Y-93378595D02*
X65827690Y-93354786D01*
X65827690Y-93354786D02*
X65851499Y-93330976D01*
X65851499Y-93330976D02*
X65875309Y-93283357D01*
X65875309Y-93283357D02*
X65875309Y-93188119D01*
X65875309Y-93188119D02*
X65851499Y-93140500D01*
X65851499Y-93140500D02*
X65827690Y-93116690D01*
X65827690Y-93116690D02*
X65780071Y-93092881D01*
X60684836Y-94183567D02*
X60684836Y-93683567D01*
X60684836Y-93683567D02*
X60803884Y-93683567D01*
X60803884Y-93683567D02*
X60875312Y-93707377D01*
X60875312Y-93707377D02*
X60922931Y-93754996D01*
X60922931Y-93754996D02*
X60946741Y-93802615D01*
X60946741Y-93802615D02*
X60970550Y-93897853D01*
X60970550Y-93897853D02*
X60970550Y-93969281D01*
X60970550Y-93969281D02*
X60946741Y-94064519D01*
X60946741Y-94064519D02*
X60922931Y-94112138D01*
X60922931Y-94112138D02*
X60875312Y-94159758D01*
X60875312Y-94159758D02*
X60803884Y-94183567D01*
X60803884Y-94183567D02*
X60684836Y-94183567D01*
X61184836Y-94135948D02*
X61208646Y-94159758D01*
X61208646Y-94159758D02*
X61184836Y-94183567D01*
X61184836Y-94183567D02*
X61161027Y-94159758D01*
X61161027Y-94159758D02*
X61184836Y-94135948D01*
X61184836Y-94135948D02*
X61184836Y-94183567D01*
X61184836Y-93874043D02*
X61208646Y-93897853D01*
X61208646Y-93897853D02*
X61184836Y-93921662D01*
X61184836Y-93921662D02*
X61161027Y-93897853D01*
X61161027Y-93897853D02*
X61184836Y-93874043D01*
X61184836Y-93874043D02*
X61184836Y-93921662D01*
X61732455Y-93683567D02*
X62018169Y-93683567D01*
X61875312Y-94183567D02*
X61875312Y-93683567D01*
X62446740Y-94183567D02*
X62161026Y-94183567D01*
X62303883Y-94183567D02*
X62303883Y-93683567D01*
X62303883Y-93683567D02*
X62256264Y-93754996D01*
X62256264Y-93754996D02*
X62208645Y-93802615D01*
X62208645Y-93802615D02*
X62161026Y-93826424D01*
X62756263Y-93683567D02*
X62803882Y-93683567D01*
X62803882Y-93683567D02*
X62851501Y-93707377D01*
X62851501Y-93707377D02*
X62875311Y-93731186D01*
X62875311Y-93731186D02*
X62899120Y-93778805D01*
X62899120Y-93778805D02*
X62922930Y-93874043D01*
X62922930Y-93874043D02*
X62922930Y-93993091D01*
X62922930Y-93993091D02*
X62899120Y-94088329D01*
X62899120Y-94088329D02*
X62875311Y-94135948D01*
X62875311Y-94135948D02*
X62851501Y-94159758D01*
X62851501Y-94159758D02*
X62803882Y-94183567D01*
X62803882Y-94183567D02*
X62756263Y-94183567D01*
X62756263Y-94183567D02*
X62708644Y-94159758D01*
X62708644Y-94159758D02*
X62684835Y-94135948D01*
X62684835Y-94135948D02*
X62661025Y-94088329D01*
X62661025Y-94088329D02*
X62637216Y-93993091D01*
X62637216Y-93993091D02*
X62637216Y-93874043D01*
X62637216Y-93874043D02*
X62661025Y-93778805D01*
X62661025Y-93778805D02*
X62684835Y-93731186D01*
X62684835Y-93731186D02*
X62708644Y-93707377D01*
X62708644Y-93707377D02*
X62756263Y-93683567D01*
X63518167Y-94183567D02*
X63518167Y-93683567D01*
X63518167Y-93683567D02*
X63708643Y-93683567D01*
X63708643Y-93683567D02*
X63756262Y-93707377D01*
X63756262Y-93707377D02*
X63780072Y-93731186D01*
X63780072Y-93731186D02*
X63803881Y-93778805D01*
X63803881Y-93778805D02*
X63803881Y-93850234D01*
X63803881Y-93850234D02*
X63780072Y-93897853D01*
X63780072Y-93897853D02*
X63756262Y-93921662D01*
X63756262Y-93921662D02*
X63708643Y-93945472D01*
X63708643Y-93945472D02*
X63518167Y-93945472D01*
X64018167Y-94135948D02*
X64041977Y-94159758D01*
X64041977Y-94159758D02*
X64018167Y-94183567D01*
X64018167Y-94183567D02*
X63994358Y-94159758D01*
X63994358Y-94159758D02*
X64018167Y-94135948D01*
X64018167Y-94135948D02*
X64018167Y-94183567D01*
X64018167Y-93874043D02*
X64041977Y-93897853D01*
X64041977Y-93897853D02*
X64018167Y-93921662D01*
X64018167Y-93921662D02*
X63994358Y-93897853D01*
X63994358Y-93897853D02*
X64018167Y-93874043D01*
X64018167Y-93874043D02*
X64018167Y-93921662D01*
X64922928Y-94183567D02*
X64756262Y-93945472D01*
X64637214Y-94183567D02*
X64637214Y-93683567D01*
X64637214Y-93683567D02*
X64827690Y-93683567D01*
X64827690Y-93683567D02*
X64875309Y-93707377D01*
X64875309Y-93707377D02*
X64899119Y-93731186D01*
X64899119Y-93731186D02*
X64922928Y-93778805D01*
X64922928Y-93778805D02*
X64922928Y-93850234D01*
X64922928Y-93850234D02*
X64899119Y-93897853D01*
X64899119Y-93897853D02*
X64875309Y-93921662D01*
X64875309Y-93921662D02*
X64827690Y-93945472D01*
X64827690Y-93945472D02*
X64637214Y-93945472D01*
X65399119Y-94183567D02*
X65113405Y-94183567D01*
X65256262Y-94183567D02*
X65256262Y-93683567D01*
X65256262Y-93683567D02*
X65208643Y-93754996D01*
X65208643Y-93754996D02*
X65161024Y-93802615D01*
X65161024Y-93802615D02*
X65113405Y-93826424D01*
X65827690Y-93850234D02*
X65827690Y-94183567D01*
X65708642Y-93659758D02*
X65589595Y-94016900D01*
X65589595Y-94016900D02*
X65899118Y-94016900D01*
X41332836Y-107414109D02*
X41332836Y-106914109D01*
X41332836Y-106914109D02*
X41523312Y-106914109D01*
X41523312Y-106914109D02*
X41570931Y-106937919D01*
X41570931Y-106937919D02*
X41594741Y-106961728D01*
X41594741Y-106961728D02*
X41618550Y-107009347D01*
X41618550Y-107009347D02*
X41618550Y-107080776D01*
X41618550Y-107080776D02*
X41594741Y-107128395D01*
X41594741Y-107128395D02*
X41570931Y-107152204D01*
X41570931Y-107152204D02*
X41523312Y-107176014D01*
X41523312Y-107176014D02*
X41332836Y-107176014D01*
X42094741Y-107414109D02*
X41809027Y-107414109D01*
X41951884Y-107414109D02*
X41951884Y-106914109D01*
X41951884Y-106914109D02*
X41904265Y-106985538D01*
X41904265Y-106985538D02*
X41856646Y-107033157D01*
X41856646Y-107033157D02*
X41809027Y-107056966D01*
X42523312Y-107080776D02*
X42523312Y-107414109D01*
X42404264Y-106890300D02*
X42285217Y-107247442D01*
X42285217Y-107247442D02*
X42594740Y-107247442D01*
X41428074Y-97016014D02*
X41428074Y-97254109D01*
X41261408Y-96754109D02*
X41428074Y-97016014D01*
X41428074Y-97016014D02*
X41594741Y-96754109D01*
X42023312Y-97254109D02*
X41737598Y-97254109D01*
X41880455Y-97254109D02*
X41880455Y-96754109D01*
X41880455Y-96754109D02*
X41832836Y-96825538D01*
X41832836Y-96825538D02*
X41785217Y-96873157D01*
X41785217Y-96873157D02*
X41737598Y-96896966D01*
X42451883Y-96920776D02*
X42451883Y-97254109D01*
X42332835Y-96730300D02*
X42213788Y-97087442D01*
X42213788Y-97087442D02*
X42523311Y-97087442D01*
%TO.C,SW1*%
X43460000Y-97155000D02*
X55600000Y-97155000D01*
X55600000Y-104775000D01*
X43460000Y-104775000D01*
X43460000Y-97155000D01*
D11*
X44633750Y-103505000D02*
G75*
G02*
X44266250Y-103505000I-183750J0D01*
G01*
X44266250Y-103505000D02*
G75*
G02*
X44633750Y-103505000I183750J0D01*
G01*
D12*
%TO.C,D5*%
X45747000Y-91910000D02*
X45747000Y-94370000D01*
X45747000Y-94370000D02*
X47217000Y-94370000D01*
X47217000Y-94370000D02*
X47217000Y-91910000D01*
%TO.C,D2*%
X51843000Y-91910000D02*
X51843000Y-94370000D01*
X51843000Y-94370000D02*
X53313000Y-94370000D01*
X53313000Y-94370000D02*
X53313000Y-91910000D01*
%TO.C,D4*%
X47779000Y-91910000D02*
X47779000Y-94370000D01*
X47779000Y-94370000D02*
X49249000Y-94370000D01*
X49249000Y-94370000D02*
X49249000Y-91910000D01*
%TO.C,D6*%
X43715000Y-91910000D02*
X43715000Y-94370000D01*
X43715000Y-94370000D02*
X45185000Y-94370000D01*
X45185000Y-94370000D02*
X45185000Y-91910000D01*
%TO.C,SW3*%
X37370000Y-97830000D02*
X37370000Y-104230000D01*
X37370000Y-104230000D02*
X38570000Y-104230000D01*
X38570000Y-97830000D02*
X37370000Y-97830000D01*
X40170000Y-104230000D02*
X41370000Y-104230000D01*
X41370000Y-97830000D02*
X40170000Y-97830000D01*
X41370000Y-104230000D02*
X41370000Y-97830000D01*
%TO.C,SW4*%
X37370000Y-107860000D02*
X37370000Y-114260000D01*
X37370000Y-114260000D02*
X38570000Y-114260000D01*
X38570000Y-107860000D02*
X37370000Y-107860000D01*
X40170000Y-114260000D02*
X41370000Y-114260000D01*
X41370000Y-107860000D02*
X40170000Y-107860000D01*
X41370000Y-114260000D02*
X41370000Y-107860000D01*
%TO.C,SW2*%
D10*
X43460000Y-107315000D02*
X55600000Y-107315000D01*
X55600000Y-114935000D01*
X43460000Y-114935000D01*
X43460000Y-107315000D01*
D11*
X44633750Y-113665000D02*
G75*
G02*
X44266250Y-113665000I-183750J0D01*
G01*
X44266250Y-113665000D02*
G75*
G02*
X44633750Y-113665000I183750J0D01*
G01*
D12*
%TO.C,D3*%
X49811000Y-91910000D02*
X49811000Y-94370000D01*
X49811000Y-94370000D02*
X51281000Y-94370000D01*
X51281000Y-94370000D02*
X51281000Y-91910000D01*
%TO.C,D1*%
X53875000Y-91910000D02*
X53875000Y-94370000D01*
X53875000Y-94370000D02*
X55345000Y-94370000D01*
X55345000Y-94370000D02*
X55345000Y-91910000D01*
%TO.C,U1*%
X66962467Y-111107467D02*
G75*
G02*
X66017533Y-111107467I-472467J0D01*
G01*
X66017533Y-111107467D02*
G75*
G02*
X66962467Y-111107467I472467J0D01*
G01*
X57140000Y-96435000D02*
X57140000Y-115655000D01*
X57140000Y-96435000D02*
X69860000Y-96435000D01*
X57140000Y-115655000D02*
X69860000Y-115655000D01*
X57620000Y-116005000D02*
X59230000Y-116005000D01*
X61579400Y-100481800D02*
X61579400Y-105841200D01*
X61579400Y-106019000D02*
X61579400Y-110921200D01*
X61757200Y-100456400D02*
X65440200Y-100456400D01*
X61757200Y-105917400D02*
X65440200Y-105917400D01*
X61757200Y-110921200D02*
X65440200Y-110921200D01*
X65618000Y-100481800D02*
X65618000Y-105841200D01*
X65618000Y-106019000D02*
X65618000Y-110921200D01*
X69860000Y-96435000D02*
X69860000Y-115655000D01*
%TD*%
M02*
