%TF.GenerationSoftware,KiCad,Pcbnew,8.0.2-8.0.2-0~ubuntu24.04.1*%
%TF.CreationDate,2024-05-05T00:33:56+09:00*%
%TF.ProjectId,development_hat,64657665-6c6f-4706-9d65-6e745f686174,rev?*%
%TF.SameCoordinates,Original*%
%TF.FileFunction,Copper,L1,Top*%
%TF.FilePolarity,Positive*%
%FSLAX46Y46*%
G04 Gerber Fmt 4.6, Leading zero omitted, Abs format (unit mm)*
G04 Created by KiCad (PCBNEW 8.0.2-8.0.2-0~ubuntu24.04.1) date 2024-05-05 00:33:56*
%MOMM*%
%LPD*%
G01*
G04 APERTURE LIST*
G04 Aperture macros list*
%AMRoundRect*
0 Rectangle with rounded corners*
0 $1 Rounding radius*
0 $2 $3 $4 $5 $6 $7 $8 $9 X,Y pos of 4 corners*
0 Add a 4 corners polygon primitive as box body*
4,1,4,$2,$3,$4,$5,$6,$7,$8,$9,$2,$3,0*
0 Add four circle primitives for the rounded corners*
1,1,$1+$1,$2,$3*
1,1,$1+$1,$4,$5*
1,1,$1+$1,$6,$7*
1,1,$1+$1,$8,$9*
0 Add four rect primitives between the rounded corners*
20,1,$1+$1,$2,$3,$4,$5,0*
20,1,$1+$1,$4,$5,$6,$7,0*
20,1,$1+$1,$6,$7,$8,$9,0*
20,1,$1+$1,$8,$9,$2,$3,0*%
G04 Aperture macros list end*
%TA.AperFunction,ComponentPad*%
%ADD10C,1.400000*%
%TD*%
%TA.AperFunction,SMDPad,CuDef*%
%ADD11RoundRect,0.237500X0.237500X-0.287500X0.237500X0.287500X-0.237500X0.287500X-0.237500X-0.287500X0*%
%TD*%
%TA.AperFunction,SMDPad,CuDef*%
%ADD12R,1.000000X1.250000*%
%TD*%
%TA.AperFunction,ComponentPad*%
%ADD13C,1.600000*%
%TD*%
%TA.AperFunction,ComponentPad*%
%ADD14R,1.600000X1.600000*%
%TD*%
%TA.AperFunction,ComponentPad*%
%ADD15R,1.700000X1.700000*%
%TD*%
%TA.AperFunction,ComponentPad*%
%ADD16O,1.700000X1.700000*%
%TD*%
%TA.AperFunction,ViaPad*%
%ADD17C,0.600000*%
%TD*%
%TA.AperFunction,ViaPad*%
%ADD18C,0.700000*%
%TD*%
%TA.AperFunction,Conductor*%
%ADD19C,0.250000*%
%TD*%
%TA.AperFunction,Conductor*%
%ADD20C,0.300000*%
%TD*%
G04 APERTURE END LIST*
D10*
%TO.P,SW1,1*%
%TO.N,/U15*%
X45720000Y-104775000D03*
%TO.P,SW1,2*%
%TO.N,/U14*%
X48260000Y-104775000D03*
%TO.P,SW1,3*%
%TO.N,/U13*%
X50800000Y-104775000D03*
%TO.P,SW1,4*%
%TO.N,/U12*%
X53340000Y-104775000D03*
%TO.P,SW1,5*%
%TO.N,GND*%
X53340000Y-97155000D03*
%TO.P,SW1,6*%
X50800000Y-97155000D03*
%TO.P,SW1,7*%
X48260000Y-97155000D03*
%TO.P,SW1,8*%
X45720000Y-97155000D03*
%TD*%
D11*
%TO.P,D5,1,K*%
%TO.N,Net-(D5-K)*%
X46482000Y-93585000D03*
%TO.P,D5,2,A*%
%TO.N,/V17*%
X46482000Y-91835000D03*
%TD*%
%TO.P,D2,1,K*%
%TO.N,Net-(D2-K)*%
X52578000Y-93585000D03*
%TO.P,D2,2,A*%
%TO.N,/V13*%
X52578000Y-91835000D03*
%TD*%
%TO.P,D4,1,K*%
%TO.N,Net-(D4-K)*%
X48514000Y-93585000D03*
%TO.P,D4,2,A*%
%TO.N,/V16*%
X48514000Y-91835000D03*
%TD*%
%TO.P,D6,1,K*%
%TO.N,Net-(D6-K)*%
X44450000Y-93585000D03*
%TO.P,D6,2,A*%
%TO.N,/V18*%
X44450000Y-91835000D03*
%TD*%
D12*
%TO.P,SW3,1,1*%
%TO.N,/Y14*%
X39370000Y-97155000D03*
%TO.P,SW3,2,2*%
%TO.N,GND*%
X39370000Y-104905000D03*
%TD*%
%TO.P,SW4,1,1*%
%TO.N,/P14*%
X39370000Y-114935000D03*
%TO.P,SW4,2,2*%
%TO.N,GND*%
X39370000Y-107185000D03*
%TD*%
D10*
%TO.P,SW2,1*%
%TO.N,/W16*%
X45720000Y-114935000D03*
%TO.P,SW2,2*%
%TO.N,/W15*%
X48260000Y-114935000D03*
%TO.P,SW2,3*%
%TO.N,/W14*%
X50800000Y-114935000D03*
%TO.P,SW2,4*%
%TO.N,/W13*%
X53340000Y-114935000D03*
%TO.P,SW2,5*%
%TO.N,GND*%
X53340000Y-107315000D03*
%TO.P,SW2,6*%
X50800000Y-107315000D03*
%TO.P,SW2,7*%
X48260000Y-107315000D03*
%TO.P,SW2,8*%
X45720000Y-107315000D03*
%TD*%
D11*
%TO.P,D3,1,K*%
%TO.N,Net-(D3-K)*%
X50546000Y-93585000D03*
%TO.P,D3,2,A*%
%TO.N,/V15*%
X50546000Y-91835000D03*
%TD*%
%TO.P,D1,1,K*%
%TO.N,Net-(D1-K)*%
X54610000Y-93585000D03*
%TO.P,D1,2,A*%
%TO.N,/V12*%
X54610000Y-91835000D03*
%TD*%
D13*
%TO.P,U1,10,G*%
%TO.N,/R18*%
X58420000Y-98425000D03*
%TO.P,U1,9,F*%
%TO.N,/T12*%
X60960000Y-98425000D03*
%TO.P,U1,8,CC*%
%TO.N,Net-(R15-Pad1)*%
X63500000Y-98425000D03*
%TO.P,U1,7,A*%
%TO.N,/T14*%
X66040000Y-98425000D03*
%TO.P,U1,6,B*%
%TO.N,/T15*%
X68580000Y-98425000D03*
%TO.P,U1,5,DP*%
%TO.N,/R14*%
X68580000Y-113665000D03*
%TO.P,U1,4,C*%
%TO.N,/T17*%
X66040000Y-113665000D03*
%TO.P,U1,3,CC*%
%TO.N,Net-(R15-Pad1)*%
X63500000Y-113665000D03*
%TO.P,U1,2,D*%
%TO.N,/T10*%
X60960000Y-113665000D03*
D14*
%TO.P,U1,1,E*%
%TO.N,/T11*%
X58420000Y-113665000D03*
%TD*%
D15*
%TO.P,J1,1,Pin_1*%
%TO.N,/V17*%
X68580000Y-86360000D03*
D16*
%TO.P,J1,2,Pin_2*%
%TO.N,/V18*%
X68580000Y-88900000D03*
%TO.P,J1,3,Pin_3*%
%TO.N,/W14*%
X66040000Y-86360000D03*
%TO.P,J1,4,Pin_4*%
%TO.N,/Y14*%
X66040000Y-88900000D03*
%TO.P,J1,5,Pin_5*%
%TO.N,/V16*%
X63500000Y-86360000D03*
%TO.P,J1,6,Pin_6*%
%TO.N,/W16*%
X63500000Y-88900000D03*
%TO.P,J1,7,Pin_7*%
%TO.N,/T17*%
X60960000Y-86360000D03*
%TO.P,J1,8,Pin_8*%
%TO.N,/R18*%
X60960000Y-88900000D03*
%TO.P,J1,9,Pin_9*%
%TO.N,/V12*%
X58420000Y-86360000D03*
%TO.P,J1,10,Pin_10*%
%TO.N,/W13*%
X58420000Y-88900000D03*
%TO.P,J1,11,Pin_11*%
%TO.N,/T14*%
X55880000Y-86360000D03*
%TO.P,J1,12,Pin_12*%
%TO.N,/T15*%
X55880000Y-88900000D03*
%TO.P,J1,13,Pin_13*%
%TO.N,/T11*%
X53340000Y-86360000D03*
%TO.P,J1,14,Pin_14*%
%TO.N,/T10*%
X53340000Y-88900000D03*
%TO.P,J1,15,Pin_15*%
%TO.N,+3.3V*%
X50800000Y-86360000D03*
%TO.P,J1,16,Pin_16*%
%TO.N,GND*%
X50800000Y-88900000D03*
%TO.P,J1,17,Pin_17*%
%TO.N,/V15*%
X48260000Y-86360000D03*
%TO.P,J1,18,Pin_18*%
%TO.N,/W15*%
X48260000Y-88900000D03*
%TO.P,J1,19,Pin_19*%
%TO.N,/P14*%
X45720000Y-86360000D03*
%TO.P,J1,20,Pin_20*%
%TO.N,/R14*%
X45720000Y-88900000D03*
%TO.P,J1,21,Pin_21*%
%TO.N,/U14*%
X43180000Y-86360000D03*
%TO.P,J1,22,Pin_22*%
%TO.N,/U15*%
X43180000Y-88900000D03*
%TO.P,J1,23,Pin_23*%
%TO.N,/U13*%
X40640000Y-86360000D03*
%TO.P,J1,24,Pin_24*%
%TO.N,/V13*%
X40640000Y-88900000D03*
%TO.P,J1,25,Pin_25*%
%TO.N,/T12*%
X38100000Y-86360000D03*
%TO.P,J1,26,Pin_26*%
%TO.N,/U12*%
X38100000Y-88900000D03*
%TD*%
D17*
%TO.N,Net-(D1-K)*%
X54864000Y-93980000D03*
%TO.N,Net-(D2-K)*%
X52832000Y-93980000D03*
%TO.N,Net-(D3-K)*%
X50800000Y-93980000D03*
%TO.N,Net-(D4-K)*%
X48768000Y-93980000D03*
%TO.N,Net-(D5-K)*%
X46736000Y-93980000D03*
%TO.N,Net-(D6-K)*%
X44704000Y-93980000D03*
D18*
%TO.N,GND*%
X40386000Y-107315000D03*
D17*
X40750000Y-110250000D03*
D18*
X43693000Y-94996000D03*
D17*
X39500000Y-95500000D03*
%TO.N,/T15*%
X60706000Y-94742000D03*
%TO.N,/Y14*%
X66590001Y-93554675D03*
X39370000Y-98298000D03*
%TO.N,/T10*%
X56642000Y-102870000D03*
%TO.N,/W13*%
X62484000Y-100584000D03*
X54864000Y-109669000D03*
X64262000Y-102362000D03*
D18*
%TO.N,+3.3V*%
X56134000Y-111252000D03*
X40640000Y-101346000D03*
X55372000Y-104648000D03*
X44450000Y-101346000D03*
D17*
%TO.N,/R14*%
X41793000Y-99568000D03*
%TO.N,/R18*%
X58420000Y-91694000D03*
%TO.N,/U13*%
X40132000Y-103124000D03*
%TO.N,/W16*%
X46990000Y-110744000D03*
%TO.N,/P14*%
X41910000Y-91694000D03*
X40640000Y-113665000D03*
%TO.N,/U12*%
X40640000Y-102362000D03*
X38608000Y-92202000D03*
%TO.N,/T11*%
X55880000Y-102362000D03*
%TO.N,/W15*%
X43942000Y-104100500D03*
%TO.N,/T17*%
X64394116Y-95367000D03*
X67165000Y-102108000D03*
%TO.N,/T14*%
X59944000Y-95367000D03*
%TO.N,/T12*%
X38608000Y-110236000D03*
%TO.N,Net-(R15-Pad1)*%
X63500000Y-108712000D03*
X63500000Y-112014000D03*
%TD*%
D19*
%TO.N,/V12*%
X54610000Y-91835000D02*
X57245000Y-89200000D01*
X57245000Y-87535000D02*
X58420000Y-86360000D01*
X57245000Y-89200000D02*
X57245000Y-87535000D01*
%TO.N,Net-(D1-K)*%
X54610000Y-93585000D02*
X54610000Y-93726000D01*
X54610000Y-93726000D02*
X54864000Y-93980000D01*
%TO.N,Net-(D2-K)*%
X52578000Y-93585000D02*
X52578000Y-93726000D01*
X52578000Y-93726000D02*
X52832000Y-93980000D01*
%TO.N,/V13*%
X48991076Y-90985000D02*
X41201000Y-90985000D01*
X41201000Y-90985000D02*
X40640000Y-90424000D01*
X52578000Y-91835000D02*
X51728000Y-92685000D01*
X51728000Y-92685000D02*
X50068924Y-92685000D01*
X49746000Y-92362076D02*
X49746000Y-91739924D01*
X49746000Y-91739924D02*
X48991076Y-90985000D01*
X40640000Y-90424000D02*
X40640000Y-88900000D01*
X50068924Y-92685000D02*
X49746000Y-92362076D01*
%TO.N,Net-(D3-K)*%
X50546000Y-93726000D02*
X50800000Y-93980000D01*
X50546000Y-93585000D02*
X50546000Y-93726000D01*
%TO.N,/V15*%
X49435000Y-90724000D02*
X49435000Y-87535000D01*
X49435000Y-87535000D02*
X48260000Y-86360000D01*
X50546000Y-91835000D02*
X49435000Y-90724000D01*
%TO.N,Net-(D4-K)*%
X48514000Y-93585000D02*
X48514000Y-93726000D01*
X48514000Y-93726000D02*
X48768000Y-93980000D01*
%TO.N,/V16*%
X58039000Y-92456000D02*
X63246000Y-92456000D01*
X50165000Y-94615000D02*
X55880000Y-94615000D01*
X48514000Y-91835000D02*
X49746000Y-93067000D01*
X49746000Y-94196000D02*
X50165000Y-94615000D01*
X64770000Y-87630000D02*
X63500000Y-86360000D01*
X55880000Y-94615000D02*
X58039000Y-92456000D01*
X49746000Y-93067000D02*
X49746000Y-94196000D01*
X63246000Y-92456000D02*
X64770000Y-90932000D01*
X64770000Y-90932000D02*
X64770000Y-87630000D01*
%TO.N,Net-(D5-K)*%
X46482000Y-93585000D02*
X46482000Y-93726000D01*
X46482000Y-93726000D02*
X46736000Y-93980000D01*
%TO.N,/V17*%
X67215000Y-91409396D02*
X67215000Y-87725000D01*
X48666924Y-95065000D02*
X56066396Y-95065000D01*
X58225396Y-92906000D02*
X65718396Y-92906000D01*
X47714000Y-93067000D02*
X47714000Y-94112076D01*
X65718396Y-92906000D02*
X67215000Y-91409396D01*
X67215000Y-87725000D02*
X68580000Y-86360000D01*
X46482000Y-91835000D02*
X47714000Y-93067000D01*
X56066396Y-95065000D02*
X58225396Y-92906000D01*
X47714000Y-94112076D02*
X48666924Y-95065000D01*
%TO.N,/V18*%
X56252792Y-95515000D02*
X58411792Y-93356000D01*
X45682000Y-93067000D02*
X45682000Y-94112076D01*
X65904792Y-93356000D02*
X68580000Y-90680792D01*
X44450000Y-91835000D02*
X45682000Y-93067000D01*
X58411792Y-93356000D02*
X65904792Y-93356000D01*
X47084924Y-95515000D02*
X56252792Y-95515000D01*
X68580000Y-90680792D02*
X68580000Y-88900000D01*
X45682000Y-94112076D02*
X47084924Y-95515000D01*
%TO.N,Net-(D6-K)*%
X44450000Y-93726000D02*
X44704000Y-93980000D01*
X44450000Y-93585000D02*
X44450000Y-93726000D01*
D20*
%TO.N,GND*%
X39370000Y-107185000D02*
X39621000Y-107185000D01*
X45720000Y-97155000D02*
X53340000Y-97155000D01*
X39370000Y-100838000D02*
X43053000Y-97155000D01*
X43053000Y-97155000D02*
X45720000Y-97155000D01*
X39370000Y-104905000D02*
X39370000Y-100838000D01*
X39621000Y-107185000D02*
X39751000Y-107315000D01*
X39751000Y-107315000D02*
X40386000Y-107315000D01*
X39370000Y-107185000D02*
X39370000Y-104905000D01*
D19*
%TO.N,/T15*%
X66040000Y-94835000D02*
X67080000Y-95875000D01*
X65947000Y-94742000D02*
X60706000Y-94742000D01*
X68580000Y-97375000D02*
X65947000Y-94742000D01*
X67080000Y-95875000D02*
X68580000Y-97375000D01*
X68580000Y-98425000D02*
X68580000Y-97375000D01*
%TO.N,/Y14*%
X58598188Y-93806000D02*
X65741324Y-93806000D01*
X39370000Y-97155000D02*
X40560000Y-95965000D01*
X40560000Y-95965000D02*
X56439188Y-95965000D01*
X56439188Y-95965000D02*
X58598188Y-93806000D01*
X39370000Y-98298000D02*
X39370000Y-97155000D01*
X66338676Y-93806000D02*
X66590001Y-93554675D01*
X65741324Y-93806000D02*
X66338676Y-93806000D01*
%TO.N,/T10*%
X56642000Y-102995604D02*
X56642000Y-102870000D01*
X58484198Y-104837802D02*
X56642000Y-102995604D01*
X58484198Y-104837802D02*
X60960000Y-107313604D01*
X60960000Y-107313604D02*
X60960000Y-113665000D01*
%TO.N,/W13*%
X62484000Y-100584000D02*
X64262000Y-102362000D01*
X53340000Y-114935000D02*
X53340000Y-111193000D01*
X53340000Y-111193000D02*
X54864000Y-109669000D01*
D20*
%TO.N,+3.3V*%
X56134000Y-106426000D02*
X56134000Y-111252000D01*
X55372000Y-104648000D02*
X55372000Y-105664000D01*
X55372000Y-105664000D02*
X56134000Y-106426000D01*
X44450000Y-101346000D02*
X40640000Y-101346000D01*
D19*
%TO.N,/R14*%
X60452000Y-105664000D02*
X64008000Y-105664000D01*
X41793000Y-99568000D02*
X54356000Y-99568000D01*
X54356000Y-99568000D02*
X60452000Y-105664000D01*
X68580000Y-110236000D02*
X68580000Y-113665000D01*
X64008000Y-105664000D02*
X68580000Y-110236000D01*
%TO.N,/R18*%
X60960000Y-89916000D02*
X60960000Y-88900000D01*
X59182000Y-91694000D02*
X60960000Y-89916000D01*
X58420000Y-91694000D02*
X59182000Y-91694000D01*
%TO.N,/U13*%
X40132000Y-103124000D02*
X49149000Y-103124000D01*
X49149000Y-103124000D02*
X50800000Y-104775000D01*
%TO.N,/W16*%
X46990000Y-110744000D02*
X45720000Y-112014000D01*
X45720000Y-112014000D02*
X45720000Y-114935000D01*
%TO.N,/P14*%
X39370000Y-109982000D02*
X39370000Y-113538000D01*
X40005000Y-113665000D02*
X40640000Y-113665000D01*
X39370000Y-114300000D02*
X40005000Y-113665000D01*
X38354000Y-95250000D02*
X38354000Y-108966000D01*
X39370000Y-114046000D02*
X39370000Y-114935000D01*
X39751000Y-113665000D02*
X39370000Y-114046000D01*
X39370000Y-113538000D02*
X39370000Y-114046000D01*
X38354000Y-108966000D02*
X39370000Y-109982000D01*
X41910000Y-91694000D02*
X38354000Y-95250000D01*
X39370000Y-114935000D02*
X39370000Y-114300000D01*
X39497000Y-113665000D02*
X39370000Y-113538000D01*
X40640000Y-113665000D02*
X39497000Y-113665000D01*
X40640000Y-113665000D02*
X39751000Y-113665000D01*
%TO.N,/U12*%
X41148000Y-102362000D02*
X40640000Y-102362000D01*
X38608000Y-92202000D02*
X38100000Y-91694000D01*
X50927000Y-102362000D02*
X41148000Y-102362000D01*
X53340000Y-104775000D02*
X50927000Y-102362000D01*
X38100000Y-91694000D02*
X38100000Y-88900000D01*
%TO.N,/T11*%
X55880000Y-102362000D02*
X55880000Y-102991884D01*
X55880000Y-102991884D02*
X58420000Y-105531884D01*
X58420000Y-105531884D02*
X58420000Y-113665000D01*
%TO.N,/W15*%
X47498000Y-109220000D02*
X48260000Y-109982000D01*
X43942000Y-104100500D02*
X43942000Y-106680000D01*
X44450000Y-109220000D02*
X47498000Y-109220000D01*
X48260000Y-109982000D02*
X48260000Y-114935000D01*
X43942000Y-108712000D02*
X44450000Y-109220000D01*
X43942000Y-108712000D02*
X43942000Y-106680000D01*
%TO.N,/T17*%
X67165000Y-97790000D02*
X64742000Y-95367000D01*
X64742000Y-95367000D02*
X64394116Y-95367000D01*
X67165000Y-102108000D02*
X67165000Y-97790000D01*
%TO.N,/T14*%
X64325500Y-96710500D02*
X66040000Y-98425000D01*
X64325500Y-96710500D02*
X62982000Y-95367000D01*
X62982000Y-95367000D02*
X59944000Y-95367000D01*
%TO.N,/T12*%
X38100000Y-86360000D02*
X39275000Y-87535000D01*
X37904000Y-109532000D02*
X38608000Y-110236000D01*
X39275000Y-87535000D02*
X39275000Y-92805000D01*
X39275000Y-92805000D02*
X37904000Y-94176000D01*
X37904000Y-94176000D02*
X37904000Y-109532000D01*
%TO.N,Net-(R15-Pad1)*%
X63500000Y-108712000D02*
X63500000Y-112014000D01*
%TD*%
%TA.AperFunction,Conductor*%
%TO.N,GND*%
G36*
X43617539Y-91430185D02*
G01*
X43663294Y-91482989D01*
X43674500Y-91534500D01*
X43674500Y-92164618D01*
X43684882Y-92251074D01*
X43684882Y-92251075D01*
X43739139Y-92388660D01*
X43828499Y-92506500D01*
X43946339Y-92595860D01*
X43946342Y-92595862D01*
X43946343Y-92595862D01*
X43953734Y-92600018D01*
X43952647Y-92601951D01*
X43998403Y-92637554D01*
X44021595Y-92703463D01*
X44005472Y-92771447D01*
X43955154Y-92819922D01*
X43948163Y-92823113D01*
X43946339Y-92824139D01*
X43828499Y-92913499D01*
X43739139Y-93031339D01*
X43684882Y-93168924D01*
X43684882Y-93168925D01*
X43674500Y-93255381D01*
X43674500Y-93914618D01*
X43684882Y-94001074D01*
X43684882Y-94001075D01*
X43684883Y-94001077D01*
X43738390Y-94136762D01*
X43739139Y-94138660D01*
X43828499Y-94256500D01*
X43946339Y-94345860D01*
X43946342Y-94345862D01*
X44083923Y-94400117D01*
X44141562Y-94407039D01*
X44170381Y-94410500D01*
X44170382Y-94410500D01*
X44236517Y-94410500D01*
X44303556Y-94430185D01*
X44311989Y-94436114D01*
X44401159Y-94504536D01*
X44401162Y-94504537D01*
X44401163Y-94504538D01*
X44474198Y-94534790D01*
X44547238Y-94565044D01*
X44625619Y-94575363D01*
X44703999Y-94585682D01*
X44704000Y-94585682D01*
X44704001Y-94585682D01*
X44756254Y-94578802D01*
X44860762Y-94565044D01*
X45006841Y-94504536D01*
X45132282Y-94408282D01*
X45152222Y-94382294D01*
X45208645Y-94341094D01*
X45278391Y-94336937D01*
X45338277Y-94370101D01*
X46295995Y-95327819D01*
X46329480Y-95389142D01*
X46324496Y-95458834D01*
X46282624Y-95514767D01*
X46217160Y-95539184D01*
X46208314Y-95539500D01*
X40616018Y-95539500D01*
X40503981Y-95539500D01*
X40395763Y-95568497D01*
X40395761Y-95568498D01*
X40395760Y-95568498D01*
X40298740Y-95624513D01*
X40298734Y-95624517D01*
X39730070Y-96193181D01*
X39668747Y-96226666D01*
X39642389Y-96229500D01*
X38903500Y-96229500D01*
X38836461Y-96209815D01*
X38790706Y-96157011D01*
X38779500Y-96105500D01*
X38779500Y-95477609D01*
X38799185Y-95410570D01*
X38815814Y-95389933D01*
X41875706Y-92330040D01*
X41937027Y-92296557D01*
X41947187Y-92294786D01*
X42066762Y-92279044D01*
X42212841Y-92218536D01*
X42338282Y-92122282D01*
X42434536Y-91996841D01*
X42495044Y-91850762D01*
X42513232Y-91712609D01*
X42515682Y-91694001D01*
X42515682Y-91694000D01*
X42508307Y-91637982D01*
X42496814Y-91550684D01*
X42507579Y-91481650D01*
X42553959Y-91429394D01*
X42619753Y-91410500D01*
X43550500Y-91410500D01*
X43617539Y-91430185D01*
G37*
%TD.AperFunction*%
%TA.AperFunction,Conductor*%
G36*
X70054539Y-84855685D02*
G01*
X70100294Y-84908489D01*
X70111500Y-84960000D01*
X70111500Y-116208000D01*
X70091815Y-116275039D01*
X70039011Y-116320794D01*
X69987500Y-116332000D01*
X36692500Y-116332000D01*
X36625461Y-116312315D01*
X36579706Y-116259511D01*
X36568500Y-116208000D01*
X36568500Y-86360000D01*
X36944571Y-86360000D01*
X36964244Y-86572310D01*
X37015559Y-86752662D01*
X37022596Y-86777392D01*
X37022596Y-86777394D01*
X37117632Y-86968253D01*
X37236244Y-87125319D01*
X37246128Y-87138407D01*
X37403698Y-87282052D01*
X37584981Y-87394298D01*
X37783802Y-87471321D01*
X37980613Y-87508111D01*
X38042893Y-87539779D01*
X38078166Y-87600092D01*
X38075232Y-87669900D01*
X38035023Y-87727040D01*
X37980613Y-87751888D01*
X37783802Y-87788679D01*
X37783799Y-87788679D01*
X37783799Y-87788680D01*
X37584982Y-87865701D01*
X37584980Y-87865702D01*
X37403699Y-87977947D01*
X37246127Y-88121593D01*
X37117632Y-88291746D01*
X37022596Y-88482605D01*
X37022596Y-88482607D01*
X36964244Y-88687689D01*
X36944571Y-88899999D01*
X36944571Y-88900000D01*
X36964244Y-89112310D01*
X37022596Y-89317392D01*
X37022596Y-89317394D01*
X37117632Y-89508253D01*
X37161028Y-89565718D01*
X37246128Y-89678407D01*
X37403698Y-89822052D01*
X37584981Y-89934298D01*
X37595290Y-89938291D01*
X37650692Y-89980860D01*
X37674285Y-90046626D01*
X37674500Y-90053919D01*
X37674500Y-91637982D01*
X37674500Y-91750018D01*
X37703497Y-91858237D01*
X37759515Y-91955263D01*
X37759517Y-91955265D01*
X37971957Y-92167705D01*
X38005442Y-92229028D01*
X38007215Y-92239200D01*
X38022956Y-92358761D01*
X38022956Y-92358762D01*
X38073381Y-92480500D01*
X38083464Y-92504841D01*
X38179718Y-92630282D01*
X38305159Y-92726536D01*
X38449469Y-92786311D01*
X38503872Y-92830152D01*
X38525937Y-92896446D01*
X38508658Y-92964145D01*
X38489697Y-92988553D01*
X37642737Y-93835515D01*
X37563517Y-93914734D01*
X37563513Y-93914740D01*
X37507498Y-94011760D01*
X37507497Y-94011763D01*
X37478500Y-94119982D01*
X37478500Y-109475982D01*
X37478500Y-109588018D01*
X37507497Y-109696237D01*
X37563515Y-109793263D01*
X37563517Y-109793265D01*
X37971957Y-110201705D01*
X38005442Y-110263028D01*
X38007215Y-110273200D01*
X38012813Y-110315718D01*
X38022956Y-110392762D01*
X38083464Y-110538841D01*
X38179718Y-110664282D01*
X38305159Y-110760536D01*
X38451238Y-110821044D01*
X38529619Y-110831363D01*
X38607999Y-110841682D01*
X38608000Y-110841682D01*
X38608001Y-110841682D01*
X38647190Y-110836522D01*
X38764762Y-110821044D01*
X38773046Y-110817612D01*
X38842511Y-110810141D01*
X38904991Y-110841413D01*
X38940647Y-110901500D01*
X38944500Y-110932172D01*
X38944500Y-113885561D01*
X38924815Y-113952600D01*
X38872011Y-113998355D01*
X38827672Y-114009353D01*
X38825144Y-114009499D01*
X38800011Y-114012414D01*
X38800008Y-114012415D01*
X38697235Y-114057793D01*
X38617794Y-114137234D01*
X38572415Y-114240006D01*
X38572415Y-114240008D01*
X38569500Y-114265131D01*
X38569500Y-115604856D01*
X38569502Y-115604882D01*
X38572413Y-115629987D01*
X38572415Y-115629991D01*
X38617793Y-115732764D01*
X38617794Y-115732765D01*
X38697235Y-115812206D01*
X38800009Y-115857585D01*
X38825135Y-115860500D01*
X39914864Y-115860499D01*
X39914879Y-115860497D01*
X39914882Y-115860497D01*
X39939987Y-115857586D01*
X39939988Y-115857585D01*
X39939991Y-115857585D01*
X40042765Y-115812206D01*
X40122206Y-115732765D01*
X40167585Y-115629991D01*
X40170500Y-115604865D01*
X40170499Y-114935000D01*
X44714659Y-114935000D01*
X44733975Y-115131129D01*
X44791188Y-115319733D01*
X44884086Y-115493532D01*
X44884090Y-115493539D01*
X45009116Y-115645883D01*
X45161460Y-115770909D01*
X45161467Y-115770913D01*
X45335266Y-115863811D01*
X45335269Y-115863811D01*
X45335273Y-115863814D01*
X45523868Y-115921024D01*
X45720000Y-115940341D01*
X45916132Y-115921024D01*
X46104727Y-115863814D01*
X46116383Y-115857584D01*
X46278532Y-115770913D01*
X46278538Y-115770910D01*
X46430883Y-115645883D01*
X46555910Y-115493538D01*
X46648814Y-115319727D01*
X46706024Y-115131132D01*
X46725341Y-114935000D01*
X46706024Y-114738868D01*
X46648814Y-114550273D01*
X46648811Y-114550269D01*
X46648811Y-114550266D01*
X46555913Y-114376467D01*
X46555909Y-114376460D01*
X46430883Y-114224116D01*
X46278539Y-114099090D01*
X46211045Y-114063013D01*
X46161202Y-114014050D01*
X46145500Y-113953656D01*
X46145500Y-112241609D01*
X46165185Y-112174570D01*
X46181819Y-112153928D01*
X46544464Y-111791283D01*
X46955706Y-111380040D01*
X47017027Y-111346557D01*
X47027187Y-111344786D01*
X47146762Y-111329044D01*
X47292841Y-111268536D01*
X47418282Y-111172282D01*
X47514536Y-111046841D01*
X47575044Y-110900762D01*
X47587561Y-110805684D01*
X47615827Y-110741788D01*
X47617138Y-110740922D01*
X47591523Y-110701064D01*
X47587561Y-110682314D01*
X47575044Y-110587239D01*
X47575044Y-110587238D01*
X47514536Y-110441159D01*
X47418282Y-110315718D01*
X47292841Y-110219464D01*
X47269051Y-110209610D01*
X47146762Y-110158956D01*
X47146760Y-110158955D01*
X46990001Y-110138318D01*
X46989999Y-110138318D01*
X46833239Y-110158955D01*
X46833237Y-110158956D01*
X46687160Y-110219463D01*
X46561718Y-110315718D01*
X46465463Y-110441160D01*
X46404956Y-110587237D01*
X46404956Y-110587239D01*
X46389215Y-110706798D01*
X46360948Y-110770694D01*
X46353957Y-110778293D01*
X45441296Y-111690955D01*
X45441295Y-111690955D01*
X45441296Y-111690956D01*
X45379514Y-111752738D01*
X45379513Y-111752740D01*
X45323498Y-111849760D01*
X45323497Y-111849763D01*
X45294500Y-111957982D01*
X45294500Y-113953656D01*
X45274815Y-114020695D01*
X45228955Y-114063013D01*
X45161460Y-114099090D01*
X45009116Y-114224116D01*
X44884090Y-114376460D01*
X44884086Y-114376467D01*
X44791188Y-114550266D01*
X44733975Y-114738870D01*
X44714659Y-114935000D01*
X40170499Y-114935000D01*
X40170499Y-114306081D01*
X40190184Y-114239043D01*
X40242987Y-114193288D01*
X40312146Y-114183344D01*
X40341949Y-114191520D01*
X40483238Y-114250044D01*
X40561619Y-114260363D01*
X40639999Y-114270682D01*
X40640000Y-114270682D01*
X40640001Y-114270682D01*
X40692254Y-114263802D01*
X40796762Y-114250044D01*
X40942841Y-114189536D01*
X41068282Y-114093282D01*
X41164536Y-113967841D01*
X41225044Y-113821762D01*
X41245682Y-113665000D01*
X41225044Y-113508238D01*
X41164536Y-113362159D01*
X41068282Y-113236718D01*
X40942841Y-113140464D01*
X40796762Y-113079956D01*
X40796760Y-113079955D01*
X40640001Y-113059318D01*
X40639999Y-113059318D01*
X40483239Y-113079955D01*
X40483237Y-113079956D01*
X40337157Y-113140464D01*
X40241485Y-113213876D01*
X40176315Y-113239070D01*
X40165999Y-113239500D01*
X39919500Y-113239500D01*
X39852461Y-113219815D01*
X39806706Y-113167011D01*
X39795500Y-113115500D01*
X39795500Y-109925984D01*
X39795500Y-109925982D01*
X39766503Y-109817763D01*
X39710485Y-109720737D01*
X39631263Y-109641515D01*
X38815819Y-108826071D01*
X38782334Y-108764748D01*
X38779500Y-108738390D01*
X38779500Y-103123998D01*
X39526318Y-103123998D01*
X39526318Y-103124001D01*
X39546955Y-103280760D01*
X39546956Y-103280762D01*
X39607464Y-103426841D01*
X39703718Y-103552282D01*
X39829159Y-103648536D01*
X39975238Y-103709044D01*
X40053619Y-103719363D01*
X40131999Y-103729682D01*
X40132000Y-103729682D01*
X40132001Y-103729682D01*
X40184254Y-103722802D01*
X40288762Y-103709044D01*
X40434841Y-103648536D01*
X40478060Y-103615373D01*
X40530515Y-103575124D01*
X40595685Y-103549930D01*
X40606001Y-103549500D01*
X43356436Y-103549500D01*
X43423475Y-103569185D01*
X43469230Y-103621989D01*
X43479174Y-103691147D01*
X43454812Y-103748984D01*
X43438949Y-103769659D01*
X43417463Y-103797660D01*
X43356956Y-103943737D01*
X43356955Y-103943739D01*
X43336318Y-104100498D01*
X43336318Y-104100501D01*
X43356955Y-104257260D01*
X43356956Y-104257262D01*
X43417464Y-104403341D01*
X43490877Y-104499015D01*
X43516070Y-104564181D01*
X43516500Y-104574499D01*
X43516500Y-106623982D01*
X43516500Y-108655982D01*
X43516500Y-108768018D01*
X43531366Y-108823497D01*
X43545497Y-108876236D01*
X43545498Y-108876239D01*
X43547391Y-108879517D01*
X43601515Y-108973263D01*
X44109515Y-109481263D01*
X44188737Y-109560485D01*
X44232059Y-109585497D01*
X44285763Y-109616503D01*
X44393981Y-109645500D01*
X44393982Y-109645500D01*
X47270390Y-109645500D01*
X47337429Y-109665185D01*
X47358071Y-109681819D01*
X47798181Y-110121929D01*
X47831666Y-110183252D01*
X47834500Y-110209610D01*
X47834500Y-110666129D01*
X47814815Y-110733168D01*
X47804457Y-110742142D01*
X47833019Y-110802764D01*
X47834500Y-110821870D01*
X47834500Y-113953656D01*
X47814815Y-114020695D01*
X47768955Y-114063013D01*
X47701460Y-114099090D01*
X47549116Y-114224116D01*
X47424090Y-114376460D01*
X47424086Y-114376467D01*
X47331188Y-114550266D01*
X47273975Y-114738870D01*
X47254659Y-114935000D01*
X47273975Y-115131129D01*
X47331188Y-115319733D01*
X47424086Y-115493532D01*
X47424090Y-115493539D01*
X47549116Y-115645883D01*
X47701460Y-115770909D01*
X47701467Y-115770913D01*
X47875266Y-115863811D01*
X47875269Y-115863811D01*
X47875273Y-115863814D01*
X48063868Y-115921024D01*
X48260000Y-115940341D01*
X48456132Y-115921024D01*
X48644727Y-115863814D01*
X48656383Y-115857584D01*
X48818532Y-115770913D01*
X48818538Y-115770910D01*
X48970883Y-115645883D01*
X49095910Y-115493538D01*
X49188814Y-115319727D01*
X49246024Y-115131132D01*
X49265341Y-114935000D01*
X49794659Y-114935000D01*
X49813975Y-115131129D01*
X49871188Y-115319733D01*
X49964086Y-115493532D01*
X49964090Y-115493539D01*
X50089116Y-115645883D01*
X50241460Y-115770909D01*
X50241467Y-115770913D01*
X50415266Y-115863811D01*
X50415269Y-115863811D01*
X50415273Y-115863814D01*
X50603868Y-115921024D01*
X50800000Y-115940341D01*
X50996132Y-115921024D01*
X51184727Y-115863814D01*
X51196383Y-115857584D01*
X51358532Y-115770913D01*
X51358538Y-115770910D01*
X51510883Y-115645883D01*
X51635910Y-115493538D01*
X51728814Y-115319727D01*
X51786024Y-115131132D01*
X51805341Y-114935000D01*
X52334659Y-114935000D01*
X52353975Y-115131129D01*
X52411188Y-115319733D01*
X52504086Y-115493532D01*
X52504090Y-115493539D01*
X52629116Y-115645883D01*
X52781460Y-115770909D01*
X52781467Y-115770913D01*
X52955266Y-115863811D01*
X52955269Y-115863811D01*
X52955273Y-115863814D01*
X53143868Y-115921024D01*
X53340000Y-115940341D01*
X53536132Y-115921024D01*
X53724727Y-115863814D01*
X53736383Y-115857584D01*
X53898532Y-115770913D01*
X53898538Y-115770910D01*
X54050883Y-115645883D01*
X54175910Y-115493538D01*
X54268814Y-115319727D01*
X54326024Y-115131132D01*
X54345341Y-114935000D01*
X54326024Y-114738868D01*
X54268814Y-114550273D01*
X54268811Y-114550269D01*
X54268811Y-114550266D01*
X54175913Y-114376467D01*
X54175909Y-114376460D01*
X54050883Y-114224116D01*
X53898539Y-114099090D01*
X53831045Y-114063013D01*
X53781202Y-114014050D01*
X53765500Y-113953656D01*
X53765500Y-111420609D01*
X53785185Y-111353570D01*
X53801814Y-111332932D01*
X54829706Y-110305040D01*
X54891027Y-110271557D01*
X54901187Y-110269786D01*
X55020762Y-110254044D01*
X55166841Y-110193536D01*
X55292282Y-110097282D01*
X55388536Y-109971841D01*
X55444939Y-109835671D01*
X55488780Y-109781268D01*
X55555074Y-109759203D01*
X55622773Y-109776482D01*
X55670384Y-109827619D01*
X55683500Y-109883124D01*
X55683500Y-110726240D01*
X55663815Y-110793279D01*
X55648153Y-110811556D01*
X55648491Y-110811856D01*
X55643515Y-110817472D01*
X55553781Y-110947475D01*
X55553780Y-110947476D01*
X55497762Y-111095181D01*
X55478722Y-111251999D01*
X55478722Y-111252000D01*
X55497762Y-111408818D01*
X55547513Y-111539999D01*
X55553780Y-111556523D01*
X55643517Y-111686530D01*
X55761760Y-111791283D01*
X55761762Y-111791284D01*
X55901634Y-111864696D01*
X56055014Y-111902500D01*
X56055015Y-111902500D01*
X56212985Y-111902500D01*
X56366365Y-111864696D01*
X56394823Y-111849760D01*
X56506240Y-111791283D01*
X56624483Y-111686530D01*
X56714220Y-111556523D01*
X56770237Y-111408818D01*
X56789278Y-111252000D01*
X56779599Y-111172281D01*
X56770237Y-111095181D01*
X56745048Y-111028763D01*
X56714220Y-110947477D01*
X56624483Y-110817470D01*
X56624479Y-110817466D01*
X56619509Y-110811856D01*
X56620953Y-110810576D01*
X56589145Y-110759860D01*
X56584500Y-110726240D01*
X56584500Y-106366692D01*
X56560286Y-106276325D01*
X56560286Y-106276324D01*
X56557042Y-106264219D01*
X56553799Y-106252113D01*
X56494490Y-106149386D01*
X55858819Y-105513715D01*
X55825334Y-105452392D01*
X55822500Y-105426034D01*
X55822500Y-105173759D01*
X55842185Y-105106720D01*
X55857846Y-105088444D01*
X55857509Y-105088145D01*
X55862481Y-105082532D01*
X55862481Y-105082531D01*
X55862483Y-105082530D01*
X55952220Y-104952523D01*
X56008237Y-104804818D01*
X56027278Y-104648000D01*
X56018354Y-104574499D01*
X56008237Y-104491181D01*
X55974923Y-104403341D01*
X55952220Y-104343477D01*
X55862483Y-104213470D01*
X55744240Y-104108717D01*
X55744238Y-104108716D01*
X55744237Y-104108715D01*
X55604365Y-104035303D01*
X55450986Y-103997500D01*
X55450985Y-103997500D01*
X55293015Y-103997500D01*
X55293014Y-103997500D01*
X55139634Y-104035303D01*
X54999762Y-104108715D01*
X54881516Y-104213471D01*
X54791781Y-104343475D01*
X54791780Y-104343476D01*
X54735762Y-104491181D01*
X54716722Y-104647999D01*
X54716722Y-104648000D01*
X54735762Y-104804818D01*
X54791780Y-104952523D01*
X54791781Y-104952524D01*
X54881518Y-105082532D01*
X54886491Y-105088145D01*
X54885044Y-105089426D01*
X54916850Y-105140120D01*
X54921500Y-105173759D01*
X54921500Y-105723309D01*
X54931606Y-105761024D01*
X54952201Y-105837887D01*
X55011511Y-105940614D01*
X55011513Y-105940616D01*
X55647181Y-106576284D01*
X55680666Y-106637607D01*
X55683500Y-106663965D01*
X55683500Y-109454875D01*
X55663815Y-109521914D01*
X55611011Y-109567669D01*
X55541853Y-109577613D01*
X55478297Y-109548588D01*
X55444939Y-109502328D01*
X55388536Y-109366160D01*
X55388536Y-109366159D01*
X55292282Y-109240718D01*
X55166841Y-109144464D01*
X55020762Y-109083956D01*
X55020760Y-109083955D01*
X54864001Y-109063318D01*
X54863999Y-109063318D01*
X54707239Y-109083955D01*
X54707237Y-109083956D01*
X54561160Y-109144463D01*
X54435718Y-109240718D01*
X54339463Y-109366160D01*
X54278956Y-109512237D01*
X54278956Y-109512239D01*
X54263215Y-109631798D01*
X54234948Y-109695694D01*
X54227957Y-109703293D01*
X53078737Y-110852515D01*
X52999517Y-110931734D01*
X52999513Y-110931740D01*
X52943498Y-111028760D01*
X52943497Y-111028763D01*
X52914500Y-111136982D01*
X52914500Y-113953656D01*
X52894815Y-114020695D01*
X52848955Y-114063013D01*
X52781460Y-114099090D01*
X52629116Y-114224116D01*
X52504090Y-114376460D01*
X52504086Y-114376467D01*
X52411188Y-114550266D01*
X52353975Y-114738870D01*
X52334659Y-114935000D01*
X51805341Y-114935000D01*
X51786024Y-114738868D01*
X51728814Y-114550273D01*
X51728811Y-114550269D01*
X51728811Y-114550266D01*
X51635913Y-114376467D01*
X51635909Y-114376460D01*
X51510883Y-114224116D01*
X51358539Y-114099090D01*
X51358532Y-114099086D01*
X51184733Y-114006188D01*
X51184727Y-114006186D01*
X50996132Y-113948976D01*
X50996129Y-113948975D01*
X50800000Y-113929659D01*
X50603870Y-113948975D01*
X50415266Y-114006188D01*
X50241467Y-114099086D01*
X50241460Y-114099090D01*
X50089116Y-114224116D01*
X49964090Y-114376460D01*
X49964086Y-114376467D01*
X49871188Y-114550266D01*
X49813975Y-114738870D01*
X49794659Y-114935000D01*
X49265341Y-114935000D01*
X49246024Y-114738868D01*
X49188814Y-114550273D01*
X49188811Y-114550269D01*
X49188811Y-114550266D01*
X49095913Y-114376467D01*
X49095909Y-114376460D01*
X48970883Y-114224116D01*
X48818539Y-114099090D01*
X48751045Y-114063013D01*
X48701202Y-114014050D01*
X48685500Y-113953656D01*
X48685500Y-109925984D01*
X48685500Y-109925982D01*
X48656503Y-109817763D01*
X48600485Y-109720737D01*
X48521263Y-109641515D01*
X47759263Y-108879515D01*
X47694579Y-108842169D01*
X47662239Y-108823498D01*
X47662238Y-108823497D01*
X47662237Y-108823497D01*
X47554018Y-108794500D01*
X47554017Y-108794500D01*
X44677610Y-108794500D01*
X44610571Y-108774815D01*
X44589929Y-108758181D01*
X44403819Y-108572071D01*
X44370334Y-108510748D01*
X44367500Y-108484390D01*
X44367500Y-104574499D01*
X44387185Y-104507460D01*
X44393110Y-104499031D01*
X44466536Y-104403341D01*
X44527044Y-104257262D01*
X44546600Y-104108717D01*
X44547682Y-104100501D01*
X44547682Y-104100498D01*
X44527044Y-103943739D01*
X44527044Y-103943738D01*
X44466536Y-103797659D01*
X44429187Y-103748984D01*
X44403994Y-103683817D01*
X44418032Y-103615373D01*
X44466846Y-103565383D01*
X44527564Y-103549500D01*
X45477374Y-103549500D01*
X45544413Y-103569185D01*
X45590168Y-103621989D01*
X45600112Y-103691147D01*
X45571087Y-103754703D01*
X45513370Y-103792160D01*
X45335271Y-103846186D01*
X45161467Y-103939086D01*
X45161460Y-103939090D01*
X45009116Y-104064116D01*
X44884090Y-104216460D01*
X44884086Y-104216467D01*
X44791188Y-104390266D01*
X44733975Y-104578870D01*
X44714659Y-104775000D01*
X44733975Y-104971129D01*
X44733976Y-104971132D01*
X44775106Y-105106720D01*
X44791188Y-105159733D01*
X44884086Y-105333532D01*
X44884090Y-105333539D01*
X45009116Y-105485883D01*
X45161460Y-105610909D01*
X45161467Y-105610913D01*
X45335266Y-105703811D01*
X45335269Y-105703811D01*
X45335273Y-105703814D01*
X45523868Y-105761024D01*
X45720000Y-105780341D01*
X45916132Y-105761024D01*
X46104727Y-105703814D01*
X46278538Y-105610910D01*
X46430883Y-105485883D01*
X46555910Y-105333538D01*
X46648814Y-105159727D01*
X46706024Y-104971132D01*
X46725341Y-104775000D01*
X46706024Y-104578868D01*
X46648814Y-104390273D01*
X46648811Y-104390269D01*
X46648811Y-104390266D01*
X46555913Y-104216467D01*
X46555909Y-104216460D01*
X46430883Y-104064116D01*
X46278539Y-103939090D01*
X46278532Y-103939086D01*
X46104728Y-103846186D01*
X45926630Y-103792160D01*
X45868192Y-103753863D01*
X45839735Y-103690051D01*
X45850296Y-103620984D01*
X45896521Y-103568590D01*
X45962626Y-103549500D01*
X48017374Y-103549500D01*
X48084413Y-103569185D01*
X48130168Y-103621989D01*
X48140112Y-103691147D01*
X48111087Y-103754703D01*
X48053370Y-103792160D01*
X47875271Y-103846186D01*
X47701467Y-103939086D01*
X47701460Y-103939090D01*
X47549116Y-104064116D01*
X47424090Y-104216460D01*
X47424086Y-104216467D01*
X47331188Y-104390266D01*
X47273975Y-104578870D01*
X47254659Y-104775000D01*
X47273975Y-104971129D01*
X47273976Y-104971132D01*
X47315106Y-105106720D01*
X47331188Y-105159733D01*
X47424086Y-105333532D01*
X47424090Y-105333539D01*
X47549116Y-105485883D01*
X47701460Y-105610909D01*
X47701467Y-105610913D01*
X47875266Y-105703811D01*
X47875269Y-105703811D01*
X47875273Y-105703814D01*
X48063868Y-105761024D01*
X48260000Y-105780341D01*
X48456132Y-105761024D01*
X48644727Y-105703814D01*
X48818538Y-105610910D01*
X48970883Y-105485883D01*
X49095910Y-105333538D01*
X49188814Y-105159727D01*
X49246024Y-104971132D01*
X49265341Y-104775000D01*
X49246024Y-104578868D01*
X49188814Y-104390273D01*
X49188811Y-104390269D01*
X49188811Y-104390266D01*
X49095913Y-104216467D01*
X49095909Y-104216460D01*
X48970883Y-104064116D01*
X48818539Y-103939090D01*
X48818532Y-103939086D01*
X48644728Y-103846186D01*
X48466630Y-103792160D01*
X48408192Y-103753863D01*
X48379735Y-103690051D01*
X48390296Y-103620984D01*
X48436521Y-103568590D01*
X48502626Y-103549500D01*
X48921390Y-103549500D01*
X48988429Y-103569185D01*
X49009071Y-103585819D01*
X49805210Y-104381958D01*
X49838695Y-104443281D01*
X49836190Y-104505632D01*
X49813976Y-104578865D01*
X49813975Y-104578868D01*
X49794659Y-104775000D01*
X49813975Y-104971129D01*
X49813976Y-104971132D01*
X49855106Y-105106720D01*
X49871188Y-105159733D01*
X49964086Y-105333532D01*
X49964090Y-105333539D01*
X50089116Y-105485883D01*
X50241460Y-105610909D01*
X50241467Y-105610913D01*
X50415266Y-105703811D01*
X50415269Y-105703811D01*
X50415273Y-105703814D01*
X50603868Y-105761024D01*
X50800000Y-105780341D01*
X50996132Y-105761024D01*
X51184727Y-105703814D01*
X51358538Y-105610910D01*
X51510883Y-105485883D01*
X51635910Y-105333538D01*
X51728814Y-105159727D01*
X51786024Y-104971132D01*
X51805341Y-104775000D01*
X51786024Y-104578868D01*
X51728814Y-104390273D01*
X51728811Y-104390269D01*
X51728811Y-104390266D01*
X51635913Y-104216467D01*
X51635909Y-104216460D01*
X51510883Y-104064116D01*
X51358539Y-103939090D01*
X51358532Y-103939086D01*
X51184733Y-103846188D01*
X51184727Y-103846186D01*
X50996132Y-103788976D01*
X50996129Y-103788975D01*
X50800000Y-103769659D01*
X50603868Y-103788975D01*
X50603865Y-103788976D01*
X50530632Y-103811190D01*
X50460765Y-103811812D01*
X50406958Y-103780210D01*
X49625929Y-102999181D01*
X49592444Y-102937858D01*
X49597428Y-102868166D01*
X49639300Y-102812233D01*
X49704764Y-102787816D01*
X49713610Y-102787500D01*
X50699390Y-102787500D01*
X50766429Y-102807185D01*
X50787071Y-102823819D01*
X52345210Y-104381958D01*
X52378695Y-104443281D01*
X52376190Y-104505632D01*
X52353976Y-104578865D01*
X52353975Y-104578868D01*
X52334659Y-104775000D01*
X52353975Y-104971129D01*
X52353976Y-104971132D01*
X52395106Y-105106720D01*
X52411188Y-105159733D01*
X52504086Y-105333532D01*
X52504090Y-105333539D01*
X52629116Y-105485883D01*
X52781460Y-105610909D01*
X52781467Y-105610913D01*
X52955266Y-105703811D01*
X52955269Y-105703811D01*
X52955273Y-105703814D01*
X53143868Y-105761024D01*
X53340000Y-105780341D01*
X53536132Y-105761024D01*
X53724727Y-105703814D01*
X53898538Y-105610910D01*
X54050883Y-105485883D01*
X54175910Y-105333538D01*
X54268814Y-105159727D01*
X54326024Y-104971132D01*
X54345341Y-104775000D01*
X54326024Y-104578868D01*
X54268814Y-104390273D01*
X54268811Y-104390269D01*
X54268811Y-104390266D01*
X54175913Y-104216467D01*
X54175909Y-104216460D01*
X54050883Y-104064116D01*
X53898539Y-103939090D01*
X53898532Y-103939086D01*
X53724733Y-103846188D01*
X53724727Y-103846186D01*
X53536132Y-103788976D01*
X53536129Y-103788975D01*
X53340000Y-103769659D01*
X53143868Y-103788975D01*
X53143865Y-103788976D01*
X53070632Y-103811190D01*
X53000765Y-103811812D01*
X52946958Y-103780210D01*
X51188265Y-102021517D01*
X51188263Y-102021515D01*
X51123579Y-101984169D01*
X51091239Y-101965498D01*
X51091238Y-101965497D01*
X51091237Y-101965497D01*
X50983018Y-101936500D01*
X50983017Y-101936500D01*
X45069087Y-101936500D01*
X45002048Y-101916815D01*
X44956293Y-101864011D01*
X44946349Y-101794853D01*
X44967037Y-101742060D01*
X44978152Y-101725957D01*
X45030220Y-101650523D01*
X45086237Y-101502818D01*
X45105278Y-101346000D01*
X45086237Y-101189182D01*
X45078599Y-101169043D01*
X45055652Y-101108536D01*
X45030220Y-101041477D01*
X44940483Y-100911470D01*
X44822240Y-100806717D01*
X44822238Y-100806716D01*
X44822237Y-100806715D01*
X44682365Y-100733303D01*
X44528986Y-100695500D01*
X44528985Y-100695500D01*
X44371015Y-100695500D01*
X44371014Y-100695500D01*
X44217634Y-100733303D01*
X44077762Y-100806715D01*
X44012744Y-100864316D01*
X43949510Y-100894037D01*
X43930517Y-100895500D01*
X41159483Y-100895500D01*
X41092444Y-100875815D01*
X41077256Y-100864316D01*
X41012240Y-100806717D01*
X41012238Y-100806716D01*
X41012237Y-100806715D01*
X40872365Y-100733303D01*
X40718986Y-100695500D01*
X40718985Y-100695500D01*
X40561015Y-100695500D01*
X40561014Y-100695500D01*
X40407634Y-100733303D01*
X40267762Y-100806715D01*
X40149516Y-100911471D01*
X40059781Y-101041475D01*
X40059780Y-101041476D01*
X40003762Y-101189181D01*
X39984722Y-101345999D01*
X39984722Y-101346000D01*
X40003762Y-101502818D01*
X40059780Y-101650523D01*
X40059781Y-101650524D01*
X40149516Y-101780529D01*
X40170029Y-101798702D01*
X40207155Y-101857892D01*
X40206387Y-101927757D01*
X40186177Y-101967003D01*
X40115464Y-102059157D01*
X40054956Y-102205237D01*
X40054955Y-102205239D01*
X40034318Y-102361998D01*
X40034318Y-102362001D01*
X40040935Y-102412264D01*
X40030169Y-102481299D01*
X39983789Y-102533555D01*
X39965449Y-102543010D01*
X39829160Y-102599463D01*
X39703718Y-102695718D01*
X39607463Y-102821160D01*
X39546956Y-102967237D01*
X39546955Y-102967239D01*
X39526318Y-103123998D01*
X38779500Y-103123998D01*
X38779500Y-99567998D01*
X41187318Y-99567998D01*
X41187318Y-99568001D01*
X41207955Y-99724760D01*
X41207956Y-99724762D01*
X41268464Y-99870841D01*
X41364718Y-99996282D01*
X41490159Y-100092536D01*
X41636238Y-100153044D01*
X41714619Y-100163363D01*
X41792999Y-100173682D01*
X41793000Y-100173682D01*
X41793001Y-100173682D01*
X41845254Y-100166802D01*
X41949762Y-100153044D01*
X42095841Y-100092536D01*
X42113328Y-100079117D01*
X42191515Y-100019124D01*
X42256685Y-99993930D01*
X42267001Y-99993500D01*
X54128390Y-99993500D01*
X54195429Y-100013185D01*
X54216071Y-100029819D01*
X55761698Y-101575446D01*
X55795183Y-101636769D01*
X55790199Y-101706461D01*
X55748327Y-101762394D01*
X55721470Y-101777688D01*
X55577160Y-101837463D01*
X55451718Y-101933718D01*
X55355463Y-102059160D01*
X55294956Y-102205237D01*
X55294955Y-102205239D01*
X55274318Y-102361998D01*
X55274318Y-102362001D01*
X55294955Y-102518760D01*
X55294956Y-102518762D01*
X55328383Y-102599463D01*
X55355464Y-102664841D01*
X55428877Y-102760515D01*
X55454070Y-102825681D01*
X55454500Y-102835999D01*
X55454500Y-102935866D01*
X55454500Y-103047902D01*
X55483497Y-103156121D01*
X55539515Y-103253147D01*
X55539517Y-103253149D01*
X57958181Y-105671813D01*
X57991666Y-105733136D01*
X57994500Y-105759494D01*
X57994500Y-112440500D01*
X57974815Y-112507539D01*
X57922011Y-112553294D01*
X57870500Y-112564500D01*
X57575143Y-112564500D01*
X57575117Y-112564502D01*
X57550012Y-112567413D01*
X57550008Y-112567415D01*
X57447235Y-112612793D01*
X57367794Y-112692234D01*
X57322415Y-112795006D01*
X57322415Y-112795008D01*
X57319500Y-112820131D01*
X57319500Y-114509856D01*
X57319502Y-114509882D01*
X57322413Y-114534987D01*
X57322415Y-114534991D01*
X57367793Y-114637764D01*
X57367794Y-114637765D01*
X57447235Y-114717206D01*
X57550009Y-114762585D01*
X57575135Y-114765500D01*
X59264864Y-114765499D01*
X59264879Y-114765497D01*
X59264882Y-114765497D01*
X59289987Y-114762586D01*
X59289988Y-114762585D01*
X59289991Y-114762585D01*
X59392765Y-114717206D01*
X59472206Y-114637765D01*
X59517585Y-114534991D01*
X59520500Y-114509865D01*
X59520499Y-112820136D01*
X59520497Y-112820117D01*
X59517586Y-112795012D01*
X59517585Y-112795010D01*
X59517585Y-112795009D01*
X59472206Y-112692235D01*
X59392765Y-112612794D01*
X59368267Y-112601977D01*
X59289992Y-112567415D01*
X59264868Y-112564500D01*
X59264865Y-112564500D01*
X58969500Y-112564500D01*
X58902461Y-112544815D01*
X58856706Y-112492011D01*
X58845500Y-112440500D01*
X58845500Y-106100214D01*
X58865185Y-106033175D01*
X58917989Y-105987420D01*
X58987147Y-105977476D01*
X59050703Y-106006501D01*
X59057181Y-106012533D01*
X60498181Y-107453533D01*
X60531666Y-107514856D01*
X60534500Y-107541214D01*
X60534500Y-112565444D01*
X60514815Y-112632483D01*
X60471447Y-112671359D01*
X60472237Y-112672634D01*
X60293960Y-112783017D01*
X60293958Y-112783019D01*
X60143237Y-112920418D01*
X60020327Y-113083178D01*
X59929422Y-113265739D01*
X59929417Y-113265752D01*
X59873602Y-113461917D01*
X59854785Y-113664999D01*
X59854785Y-113665000D01*
X59873602Y-113868082D01*
X59929417Y-114064247D01*
X59929422Y-114064260D01*
X60020327Y-114246821D01*
X60143237Y-114409581D01*
X60293958Y-114546980D01*
X60293960Y-114546982D01*
X60393141Y-114608392D01*
X60467363Y-114654348D01*
X60657544Y-114728024D01*
X60858024Y-114765500D01*
X60858026Y-114765500D01*
X61061974Y-114765500D01*
X61061976Y-114765500D01*
X61262456Y-114728024D01*
X61452637Y-114654348D01*
X61626041Y-114546981D01*
X61776764Y-114409579D01*
X61899673Y-114246821D01*
X61990582Y-114064250D01*
X62046397Y-113868083D01*
X62065215Y-113665000D01*
X62065215Y-113664999D01*
X62394785Y-113664999D01*
X62394785Y-113665000D01*
X62413602Y-113868082D01*
X62469417Y-114064247D01*
X62469422Y-114064260D01*
X62560327Y-114246821D01*
X62683237Y-114409581D01*
X62833958Y-114546980D01*
X62833960Y-114546982D01*
X62933141Y-114608392D01*
X63007363Y-114654348D01*
X63197544Y-114728024D01*
X63398024Y-114765500D01*
X63398026Y-114765500D01*
X63601974Y-114765500D01*
X63601976Y-114765500D01*
X63802456Y-114728024D01*
X63992637Y-114654348D01*
X64166041Y-114546981D01*
X64316764Y-114409579D01*
X64439673Y-114246821D01*
X64530582Y-114064250D01*
X64586397Y-113868083D01*
X64605215Y-113665000D01*
X64605215Y-113664999D01*
X64934785Y-113664999D01*
X64934785Y-113665000D01*
X64953602Y-113868082D01*
X65009417Y-114064247D01*
X65009422Y-114064260D01*
X65100327Y-114246821D01*
X65223237Y-114409581D01*
X65373958Y-114546980D01*
X65373960Y-114546982D01*
X65473141Y-114608392D01*
X65547363Y-114654348D01*
X65737544Y-114728024D01*
X65938024Y-114765500D01*
X65938026Y-114765500D01*
X66141974Y-114765500D01*
X66141976Y-114765500D01*
X66342456Y-114728024D01*
X66532637Y-114654348D01*
X66706041Y-114546981D01*
X66856764Y-114409579D01*
X66979673Y-114246821D01*
X67070582Y-114064250D01*
X67126397Y-113868083D01*
X67145215Y-113665000D01*
X67126397Y-113461917D01*
X67070582Y-113265750D01*
X66979673Y-113083179D01*
X66856764Y-112920421D01*
X66856762Y-112920418D01*
X66706041Y-112783019D01*
X66706039Y-112783017D01*
X66532642Y-112675655D01*
X66532635Y-112675651D01*
X66383597Y-112617914D01*
X66342456Y-112601976D01*
X66141976Y-112564500D01*
X65938024Y-112564500D01*
X65737544Y-112601976D01*
X65737541Y-112601976D01*
X65737541Y-112601977D01*
X65547364Y-112675651D01*
X65547357Y-112675655D01*
X65373960Y-112783017D01*
X65373958Y-112783019D01*
X65223237Y-112920418D01*
X65100327Y-113083178D01*
X65009422Y-113265739D01*
X65009417Y-113265752D01*
X64953602Y-113461917D01*
X64934785Y-113664999D01*
X64605215Y-113664999D01*
X64586397Y-113461917D01*
X64530582Y-113265750D01*
X64439673Y-113083179D01*
X64316764Y-112920421D01*
X64316762Y-112920418D01*
X64166041Y-112783019D01*
X64166039Y-112783017D01*
X63992642Y-112675655D01*
X63992640Y-112675654D01*
X63992637Y-112675652D01*
X63992634Y-112675651D01*
X63992629Y-112675648D01*
X63953494Y-112660487D01*
X63898093Y-112617914D01*
X63874503Y-112552146D01*
X63890215Y-112484066D01*
X63922804Y-112446485D01*
X63928282Y-112442282D01*
X64024536Y-112316841D01*
X64085044Y-112170762D01*
X64105682Y-112014000D01*
X64085044Y-111857238D01*
X64024536Y-111711159D01*
X64024535Y-111711158D01*
X64024535Y-111711157D01*
X63951124Y-111615485D01*
X63925930Y-111550315D01*
X63925500Y-111539999D01*
X63925500Y-109185999D01*
X63945185Y-109118960D01*
X63951110Y-109110531D01*
X64024536Y-109014841D01*
X64085044Y-108868762D01*
X64105682Y-108712000D01*
X64085044Y-108555238D01*
X64024536Y-108409159D01*
X63928282Y-108283718D01*
X63802841Y-108187464D01*
X63656762Y-108126956D01*
X63656760Y-108126955D01*
X63500001Y-108106318D01*
X63499999Y-108106318D01*
X63343239Y-108126955D01*
X63343237Y-108126956D01*
X63197160Y-108187463D01*
X63071718Y-108283718D01*
X62975463Y-108409160D01*
X62914956Y-108555237D01*
X62914955Y-108555239D01*
X62894318Y-108711998D01*
X62894318Y-108712001D01*
X62914955Y-108868760D01*
X62914956Y-108868762D01*
X62975464Y-109014841D01*
X63048877Y-109110515D01*
X63074070Y-109175681D01*
X63074500Y-109185999D01*
X63074500Y-111539999D01*
X63054815Y-111607038D01*
X63048876Y-111615485D01*
X62975464Y-111711157D01*
X62914956Y-111857237D01*
X62914955Y-111857239D01*
X62894318Y-112013998D01*
X62894318Y-112014001D01*
X62914955Y-112170760D01*
X62914956Y-112170762D01*
X62975464Y-112316841D01*
X63071718Y-112442282D01*
X63077196Y-112446485D01*
X63118399Y-112502912D01*
X63122554Y-112572658D01*
X63088342Y-112633579D01*
X63046506Y-112660487D01*
X63007367Y-112675650D01*
X63007357Y-112675655D01*
X62833960Y-112783017D01*
X62833958Y-112783019D01*
X62683237Y-112920418D01*
X62560327Y-113083178D01*
X62469422Y-113265739D01*
X62469417Y-113265752D01*
X62413602Y-113461917D01*
X62394785Y-113664999D01*
X62065215Y-113664999D01*
X62046397Y-113461917D01*
X61990582Y-113265750D01*
X61899673Y-113083179D01*
X61776764Y-112920421D01*
X61776762Y-112920418D01*
X61626041Y-112783019D01*
X61626039Y-112783017D01*
X61447763Y-112672634D01*
X61448620Y-112671248D01*
X61402987Y-112628934D01*
X61385500Y-112565444D01*
X61385500Y-107257588D01*
X61385500Y-107257586D01*
X61356503Y-107149367D01*
X61300485Y-107052341D01*
X61221263Y-106973119D01*
X60549325Y-106301181D01*
X60515840Y-106239858D01*
X60520824Y-106170166D01*
X60562696Y-106114233D01*
X60628160Y-106089816D01*
X60637006Y-106089500D01*
X63780390Y-106089500D01*
X63847429Y-106109185D01*
X63868071Y-106125819D01*
X68118181Y-110375929D01*
X68151666Y-110437252D01*
X68154500Y-110463610D01*
X68154500Y-112565444D01*
X68134815Y-112632483D01*
X68091447Y-112671359D01*
X68092237Y-112672634D01*
X67913960Y-112783017D01*
X67913958Y-112783019D01*
X67763237Y-112920418D01*
X67640327Y-113083178D01*
X67549422Y-113265739D01*
X67549417Y-113265752D01*
X67493602Y-113461917D01*
X67474785Y-113664999D01*
X67474785Y-113665000D01*
X67493602Y-113868082D01*
X67549417Y-114064247D01*
X67549422Y-114064260D01*
X67640327Y-114246821D01*
X67763237Y-114409581D01*
X67913958Y-114546980D01*
X67913960Y-114546982D01*
X68013141Y-114608392D01*
X68087363Y-114654348D01*
X68277544Y-114728024D01*
X68478024Y-114765500D01*
X68478026Y-114765500D01*
X68681974Y-114765500D01*
X68681976Y-114765500D01*
X68882456Y-114728024D01*
X69072637Y-114654348D01*
X69246041Y-114546981D01*
X69396764Y-114409579D01*
X69519673Y-114246821D01*
X69610582Y-114064250D01*
X69666397Y-113868083D01*
X69685215Y-113665000D01*
X69666397Y-113461917D01*
X69610582Y-113265750D01*
X69519673Y-113083179D01*
X69396764Y-112920421D01*
X69396762Y-112920418D01*
X69246041Y-112783019D01*
X69246039Y-112783017D01*
X69067763Y-112672634D01*
X69068620Y-112671248D01*
X69022987Y-112628934D01*
X69005500Y-112565444D01*
X69005500Y-110179984D01*
X69005500Y-110179982D01*
X68976503Y-110071763D01*
X68920485Y-109974737D01*
X68841263Y-109895515D01*
X64269263Y-105323515D01*
X64172237Y-105267497D01*
X64064018Y-105238500D01*
X64064017Y-105238500D01*
X60679610Y-105238500D01*
X60612571Y-105218815D01*
X60591929Y-105202181D01*
X55973746Y-100583998D01*
X61878318Y-100583998D01*
X61878318Y-100584001D01*
X61898955Y-100740760D01*
X61898956Y-100740762D01*
X61959464Y-100886841D01*
X62055718Y-101012282D01*
X62181159Y-101108536D01*
X62327238Y-101169044D01*
X62446798Y-101184784D01*
X62510695Y-101213050D01*
X62518294Y-101220042D01*
X63625957Y-102327705D01*
X63659442Y-102389028D01*
X63661215Y-102399200D01*
X63676956Y-102518761D01*
X63676956Y-102518762D01*
X63710383Y-102599463D01*
X63737464Y-102664841D01*
X63833718Y-102790282D01*
X63959159Y-102886536D01*
X64105238Y-102947044D01*
X64183619Y-102957363D01*
X64261999Y-102967682D01*
X64262000Y-102967682D01*
X64262001Y-102967682D01*
X64314254Y-102960802D01*
X64418762Y-102947044D01*
X64564841Y-102886536D01*
X64690282Y-102790282D01*
X64786536Y-102664841D01*
X64847044Y-102518762D01*
X64867682Y-102362000D01*
X64867224Y-102358523D01*
X64847044Y-102205239D01*
X64847044Y-102205238D01*
X64786536Y-102059159D01*
X64690282Y-101933718D01*
X64564841Y-101837464D01*
X64418762Y-101776956D01*
X64391563Y-101773375D01*
X64299200Y-101761215D01*
X64235304Y-101732948D01*
X64227705Y-101725957D01*
X63120042Y-100618294D01*
X63086557Y-100556971D01*
X63084784Y-100546798D01*
X63069044Y-100427239D01*
X63069044Y-100427238D01*
X63008536Y-100281159D01*
X62912282Y-100155718D01*
X62786841Y-100059464D01*
X62640762Y-99998956D01*
X62640760Y-99998955D01*
X62484001Y-99978318D01*
X62483999Y-99978318D01*
X62327239Y-99998955D01*
X62327237Y-99998956D01*
X62181160Y-100059463D01*
X62055718Y-100155718D01*
X61959463Y-100281160D01*
X61898956Y-100427237D01*
X61898955Y-100427239D01*
X61878318Y-100583998D01*
X55973746Y-100583998D01*
X54617265Y-99227517D01*
X54617263Y-99227515D01*
X54520237Y-99171497D01*
X54412018Y-99142500D01*
X54412017Y-99142500D01*
X42267001Y-99142500D01*
X42199962Y-99122815D01*
X42191515Y-99116876D01*
X42095842Y-99043464D01*
X41949762Y-98982956D01*
X41949760Y-98982955D01*
X41793001Y-98962318D01*
X41792999Y-98962318D01*
X41636239Y-98982955D01*
X41636237Y-98982956D01*
X41490160Y-99043463D01*
X41364718Y-99139718D01*
X41268463Y-99265160D01*
X41207956Y-99411237D01*
X41207955Y-99411239D01*
X41187318Y-99567998D01*
X38779500Y-99567998D01*
X38779500Y-98853254D01*
X38799185Y-98786215D01*
X38851989Y-98740460D01*
X38921147Y-98730516D01*
X38978985Y-98754878D01*
X39018333Y-98785071D01*
X39067157Y-98822535D01*
X39067158Y-98822535D01*
X39067159Y-98822536D01*
X39213238Y-98883044D01*
X39291619Y-98893363D01*
X39369999Y-98903682D01*
X39370000Y-98903682D01*
X39370001Y-98903682D01*
X39422254Y-98896802D01*
X39526762Y-98883044D01*
X39672841Y-98822536D01*
X39798282Y-98726282D01*
X39894536Y-98600841D01*
X39955044Y-98454762D01*
X39958962Y-98424999D01*
X57314785Y-98424999D01*
X57314785Y-98425000D01*
X57333602Y-98628082D01*
X57389417Y-98824247D01*
X57389422Y-98824260D01*
X57480327Y-99006821D01*
X57603237Y-99169581D01*
X57753958Y-99306980D01*
X57753960Y-99306982D01*
X57853141Y-99368392D01*
X57927363Y-99414348D01*
X58117544Y-99488024D01*
X58318024Y-99525500D01*
X58318026Y-99525500D01*
X58521974Y-99525500D01*
X58521976Y-99525500D01*
X58722456Y-99488024D01*
X58912637Y-99414348D01*
X59086041Y-99306981D01*
X59234660Y-99171497D01*
X59236762Y-99169581D01*
X59257213Y-99142500D01*
X59359673Y-99006821D01*
X59450582Y-98824250D01*
X59506397Y-98628083D01*
X59525215Y-98425000D01*
X59525215Y-98424999D01*
X59854785Y-98424999D01*
X59854785Y-98425000D01*
X59873602Y-98628082D01*
X59929417Y-98824247D01*
X59929422Y-98824260D01*
X60020327Y-99006821D01*
X60143237Y-99169581D01*
X60293958Y-99306980D01*
X60293960Y-99306982D01*
X60393141Y-99368392D01*
X60467363Y-99414348D01*
X60657544Y-99488024D01*
X60858024Y-99525500D01*
X60858026Y-99525500D01*
X61061974Y-99525500D01*
X61061976Y-99525500D01*
X61262456Y-99488024D01*
X61452637Y-99414348D01*
X61626041Y-99306981D01*
X61774660Y-99171497D01*
X61776762Y-99169581D01*
X61797213Y-99142500D01*
X61899673Y-99006821D01*
X61990582Y-98824250D01*
X62046397Y-98628083D01*
X62065215Y-98425000D01*
X62065215Y-98424999D01*
X62394785Y-98424999D01*
X62394785Y-98425000D01*
X62413602Y-98628082D01*
X62469417Y-98824247D01*
X62469422Y-98824260D01*
X62560327Y-99006821D01*
X62683237Y-99169581D01*
X62833958Y-99306980D01*
X62833960Y-99306982D01*
X62933141Y-99368392D01*
X63007363Y-99414348D01*
X63197544Y-99488024D01*
X63398024Y-99525500D01*
X63398026Y-99525500D01*
X63601974Y-99525500D01*
X63601976Y-99525500D01*
X63802456Y-99488024D01*
X63992637Y-99414348D01*
X64166041Y-99306981D01*
X64314660Y-99171497D01*
X64316762Y-99169581D01*
X64337213Y-99142500D01*
X64439673Y-99006821D01*
X64530582Y-98824250D01*
X64586397Y-98628083D01*
X64605215Y-98425000D01*
X64586397Y-98221917D01*
X64530582Y-98025750D01*
X64523991Y-98012514D01*
X64486272Y-97936764D01*
X64439673Y-97843179D01*
X64316764Y-97680421D01*
X64316762Y-97680418D01*
X64166041Y-97543019D01*
X64166039Y-97543017D01*
X63992642Y-97435655D01*
X63992635Y-97435651D01*
X63856715Y-97382996D01*
X63802456Y-97361976D01*
X63601976Y-97324500D01*
X63398024Y-97324500D01*
X63197544Y-97361976D01*
X63197541Y-97361976D01*
X63197541Y-97361977D01*
X63007364Y-97435651D01*
X63007357Y-97435655D01*
X62833960Y-97543017D01*
X62833958Y-97543019D01*
X62683237Y-97680418D01*
X62560327Y-97843178D01*
X62469422Y-98025739D01*
X62469417Y-98025752D01*
X62413602Y-98221917D01*
X62394785Y-98424999D01*
X62065215Y-98424999D01*
X62046397Y-98221917D01*
X61990582Y-98025750D01*
X61983991Y-98012514D01*
X61946272Y-97936764D01*
X61899673Y-97843179D01*
X61776764Y-97680421D01*
X61776762Y-97680418D01*
X61626041Y-97543019D01*
X61626039Y-97543017D01*
X61452642Y-97435655D01*
X61452635Y-97435651D01*
X61316715Y-97382996D01*
X61262456Y-97361976D01*
X61061976Y-97324500D01*
X60858024Y-97324500D01*
X60657544Y-97361976D01*
X60657541Y-97361976D01*
X60657541Y-97361977D01*
X60467364Y-97435651D01*
X60467357Y-97435655D01*
X60293960Y-97543017D01*
X60293958Y-97543019D01*
X60143237Y-97680418D01*
X60020327Y-97843178D01*
X59929422Y-98025739D01*
X59929417Y-98025752D01*
X59873602Y-98221917D01*
X59854785Y-98424999D01*
X59525215Y-98424999D01*
X59506397Y-98221917D01*
X59450582Y-98025750D01*
X59443991Y-98012514D01*
X59406272Y-97936764D01*
X59359673Y-97843179D01*
X59236764Y-97680421D01*
X59236762Y-97680418D01*
X59086041Y-97543019D01*
X59086039Y-97543017D01*
X58912642Y-97435655D01*
X58912635Y-97435651D01*
X58776715Y-97382996D01*
X58722456Y-97361976D01*
X58521976Y-97324500D01*
X58318024Y-97324500D01*
X58117544Y-97361976D01*
X58117541Y-97361976D01*
X58117541Y-97361977D01*
X57927364Y-97435651D01*
X57927357Y-97435655D01*
X57753960Y-97543017D01*
X57753958Y-97543019D01*
X57603237Y-97680418D01*
X57480327Y-97843178D01*
X57389422Y-98025739D01*
X57389417Y-98025752D01*
X57333602Y-98221917D01*
X57314785Y-98424999D01*
X39958962Y-98424999D01*
X39975682Y-98298000D01*
X39958422Y-98166897D01*
X39969188Y-98097863D01*
X40015567Y-98045607D01*
X40031266Y-98037283D01*
X40042765Y-98032206D01*
X40122206Y-97952765D01*
X40167585Y-97849991D01*
X40170500Y-97824865D01*
X40170499Y-97007609D01*
X40190183Y-96940571D01*
X40206818Y-96919929D01*
X40699929Y-96426819D01*
X40761252Y-96393334D01*
X40787610Y-96390500D01*
X56495204Y-96390500D01*
X56495206Y-96390500D01*
X56603425Y-96361503D01*
X56700451Y-96305485D01*
X58738117Y-94267819D01*
X58799440Y-94234334D01*
X58825798Y-94231500D01*
X60089359Y-94231500D01*
X60156398Y-94251185D01*
X60202153Y-94303989D01*
X60212097Y-94373147D01*
X60187735Y-94430986D01*
X60181464Y-94439157D01*
X60120956Y-94585237D01*
X60120956Y-94585238D01*
X60111340Y-94658279D01*
X60083073Y-94722175D01*
X60024749Y-94760646D01*
X59972218Y-94765032D01*
X59944004Y-94761318D01*
X59943999Y-94761318D01*
X59787239Y-94781955D01*
X59787237Y-94781956D01*
X59641160Y-94842463D01*
X59515718Y-94938718D01*
X59419463Y-95064160D01*
X59358956Y-95210237D01*
X59358955Y-95210239D01*
X59338318Y-95366998D01*
X59338318Y-95367001D01*
X59358955Y-95523760D01*
X59358956Y-95523762D01*
X59419464Y-95669841D01*
X59515718Y-95795282D01*
X59641159Y-95891536D01*
X59787238Y-95952044D01*
X59865619Y-95962363D01*
X59943999Y-95972682D01*
X59944000Y-95972682D01*
X59944001Y-95972682D01*
X60012423Y-95963674D01*
X60100762Y-95952044D01*
X60246841Y-95891536D01*
X60264328Y-95878117D01*
X60342515Y-95818124D01*
X60407685Y-95792930D01*
X60418001Y-95792500D01*
X62754390Y-95792500D01*
X62821429Y-95812185D01*
X62842071Y-95828819D01*
X64964443Y-97951191D01*
X64997928Y-98012514D01*
X64996029Y-98072806D01*
X64953602Y-98221921D01*
X64934785Y-98424999D01*
X64934785Y-98425000D01*
X64953602Y-98628082D01*
X65009417Y-98824247D01*
X65009422Y-98824260D01*
X65100327Y-99006821D01*
X65223237Y-99169581D01*
X65373958Y-99306980D01*
X65373960Y-99306982D01*
X65473141Y-99368392D01*
X65547363Y-99414348D01*
X65737544Y-99488024D01*
X65938024Y-99525500D01*
X65938026Y-99525500D01*
X66141974Y-99525500D01*
X66141976Y-99525500D01*
X66342456Y-99488024D01*
X66532637Y-99414348D01*
X66550222Y-99403459D01*
X66617582Y-99384903D01*
X66684281Y-99405711D01*
X66729143Y-99459275D01*
X66739500Y-99508886D01*
X66739500Y-101633999D01*
X66719815Y-101701038D01*
X66713876Y-101709485D01*
X66640464Y-101805157D01*
X66579956Y-101951237D01*
X66579955Y-101951239D01*
X66559318Y-102107998D01*
X66559318Y-102108001D01*
X66579955Y-102264760D01*
X66579956Y-102264762D01*
X66620232Y-102361998D01*
X66640464Y-102410841D01*
X66736718Y-102536282D01*
X66862159Y-102632536D01*
X67008238Y-102693044D01*
X67086619Y-102703363D01*
X67164999Y-102713682D01*
X67165000Y-102713682D01*
X67165001Y-102713682D01*
X67217254Y-102706802D01*
X67321762Y-102693044D01*
X67467841Y-102632536D01*
X67593282Y-102536282D01*
X67689536Y-102410841D01*
X67750044Y-102264762D01*
X67770682Y-102108000D01*
X67750044Y-101951238D01*
X67689536Y-101805159D01*
X67689535Y-101805158D01*
X67689535Y-101805157D01*
X67616124Y-101709485D01*
X67590930Y-101644315D01*
X67590500Y-101633999D01*
X67590500Y-99292942D01*
X67610185Y-99225903D01*
X67662989Y-99180148D01*
X67732147Y-99170204D01*
X67795703Y-99199229D01*
X67798030Y-99201298D01*
X67880500Y-99276479D01*
X67913958Y-99306980D01*
X67913960Y-99306982D01*
X68013141Y-99368392D01*
X68087363Y-99414348D01*
X68277544Y-99488024D01*
X68478024Y-99525500D01*
X68478026Y-99525500D01*
X68681974Y-99525500D01*
X68681976Y-99525500D01*
X68882456Y-99488024D01*
X69072637Y-99414348D01*
X69246041Y-99306981D01*
X69394660Y-99171497D01*
X69396762Y-99169581D01*
X69417213Y-99142500D01*
X69519673Y-99006821D01*
X69610582Y-98824250D01*
X69666397Y-98628083D01*
X69685215Y-98425000D01*
X69666397Y-98221917D01*
X69610582Y-98025750D01*
X69603991Y-98012514D01*
X69566272Y-97936764D01*
X69519673Y-97843179D01*
X69396764Y-97680421D01*
X69396762Y-97680418D01*
X69246041Y-97543019D01*
X69246039Y-97543017D01*
X69067763Y-97432634D01*
X69068620Y-97431248D01*
X69022987Y-97388934D01*
X69005500Y-97325444D01*
X69005500Y-97318984D01*
X69005500Y-97318982D01*
X68976503Y-97210763D01*
X68920485Y-97113737D01*
X68841263Y-97034515D01*
X68841262Y-97034514D01*
X68836932Y-97030184D01*
X68836921Y-97030174D01*
X67341263Y-95534515D01*
X66249929Y-94443181D01*
X66216444Y-94381858D01*
X66221428Y-94312166D01*
X66263300Y-94256233D01*
X66328764Y-94231816D01*
X66337610Y-94231500D01*
X66394692Y-94231500D01*
X66394694Y-94231500D01*
X66502913Y-94202503D01*
X66550390Y-94175091D01*
X66596203Y-94159540D01*
X66746763Y-94139719D01*
X66892842Y-94079211D01*
X67018283Y-93982957D01*
X67114537Y-93857516D01*
X67175045Y-93711437D01*
X67195683Y-93554675D01*
X67175045Y-93397913D01*
X67114537Y-93251834D01*
X67018283Y-93126393D01*
X66970815Y-93089970D01*
X66929615Y-93033544D01*
X66925460Y-92963798D01*
X66958621Y-92903917D01*
X68920484Y-90942056D01*
X68928033Y-90928982D01*
X68976503Y-90845029D01*
X69005500Y-90736810D01*
X69005500Y-90053919D01*
X69025185Y-89986880D01*
X69077989Y-89941125D01*
X69084687Y-89938300D01*
X69095019Y-89934298D01*
X69276302Y-89822052D01*
X69433872Y-89678407D01*
X69562366Y-89508255D01*
X69657405Y-89317389D01*
X69715756Y-89112310D01*
X69735429Y-88900000D01*
X69715756Y-88687690D01*
X69657405Y-88482611D01*
X69657403Y-88482606D01*
X69657403Y-88482605D01*
X69562367Y-88291746D01*
X69433872Y-88121593D01*
X69345546Y-88041073D01*
X69276302Y-87977948D01*
X69095019Y-87865702D01*
X69095017Y-87865701D01*
X68995608Y-87827190D01*
X68896198Y-87788679D01*
X68723453Y-87756387D01*
X68661174Y-87724720D01*
X68625901Y-87664407D01*
X68628835Y-87594599D01*
X68669044Y-87537459D01*
X68733762Y-87511128D01*
X68746240Y-87510499D01*
X69474856Y-87510499D01*
X69474864Y-87510499D01*
X69474879Y-87510497D01*
X69474882Y-87510497D01*
X69499987Y-87507586D01*
X69499988Y-87507585D01*
X69499991Y-87507585D01*
X69602765Y-87462206D01*
X69682206Y-87382765D01*
X69727585Y-87279991D01*
X69730500Y-87254865D01*
X69730499Y-85465136D01*
X69730497Y-85465117D01*
X69727586Y-85440012D01*
X69727585Y-85440010D01*
X69727585Y-85440009D01*
X69682206Y-85337235D01*
X69602765Y-85257794D01*
X69582124Y-85248680D01*
X69499992Y-85212415D01*
X69474865Y-85209500D01*
X67685143Y-85209500D01*
X67685117Y-85209502D01*
X67660012Y-85212413D01*
X67660008Y-85212415D01*
X67557235Y-85257793D01*
X67477794Y-85337234D01*
X67432415Y-85440006D01*
X67432415Y-85440008D01*
X67429500Y-85465131D01*
X67429500Y-86203946D01*
X67409815Y-86270985D01*
X67357011Y-86316740D01*
X67287853Y-86326684D01*
X67224297Y-86297659D01*
X67186523Y-86238881D01*
X67182029Y-86215387D01*
X67180969Y-86203946D01*
X67175756Y-86147690D01*
X67117405Y-85942611D01*
X67117403Y-85942606D01*
X67117403Y-85942605D01*
X67022367Y-85751746D01*
X66893872Y-85581593D01*
X66766133Y-85465143D01*
X66736302Y-85437948D01*
X66555019Y-85325702D01*
X66555017Y-85325701D01*
X66455608Y-85287190D01*
X66356198Y-85248679D01*
X66146610Y-85209500D01*
X65933390Y-85209500D01*
X65723802Y-85248679D01*
X65723799Y-85248679D01*
X65723799Y-85248680D01*
X65524982Y-85325701D01*
X65524980Y-85325702D01*
X65343699Y-85437947D01*
X65186127Y-85581593D01*
X65057632Y-85751746D01*
X64962596Y-85942605D01*
X64962596Y-85942607D01*
X64904244Y-86147689D01*
X64893471Y-86263951D01*
X64867685Y-86328888D01*
X64823130Y-86360804D01*
X64859503Y-86381668D01*
X64891693Y-86443681D01*
X64893470Y-86456047D01*
X64904244Y-86572310D01*
X64955559Y-86752662D01*
X64962596Y-86777392D01*
X64962596Y-86777394D01*
X65057634Y-86968256D01*
X65060181Y-86972370D01*
X65078733Y-87039732D01*
X65057922Y-87106430D01*
X65004354Y-87151288D01*
X64935038Y-87160065D01*
X64871981Y-87129973D01*
X64867070Y-87125323D01*
X64616025Y-86874278D01*
X64582540Y-86812955D01*
X64584439Y-86752664D01*
X64635756Y-86572310D01*
X64646529Y-86456047D01*
X64672315Y-86391111D01*
X64716869Y-86359194D01*
X64680497Y-86338331D01*
X64648307Y-86276318D01*
X64646529Y-86263951D01*
X64642029Y-86215387D01*
X64635756Y-86147690D01*
X64577405Y-85942611D01*
X64577403Y-85942606D01*
X64577403Y-85942605D01*
X64482367Y-85751746D01*
X64353872Y-85581593D01*
X64226133Y-85465143D01*
X64196302Y-85437948D01*
X64015019Y-85325702D01*
X64015017Y-85325701D01*
X63915608Y-85287190D01*
X63816198Y-85248679D01*
X63606610Y-85209500D01*
X63393390Y-85209500D01*
X63183802Y-85248679D01*
X63183799Y-85248679D01*
X63183799Y-85248680D01*
X62984982Y-85325701D01*
X62984980Y-85325702D01*
X62803699Y-85437947D01*
X62646127Y-85581593D01*
X62517632Y-85751746D01*
X62422596Y-85942605D01*
X62422596Y-85942607D01*
X62364244Y-86147689D01*
X62353471Y-86263951D01*
X62327685Y-86328888D01*
X62283130Y-86360804D01*
X62319503Y-86381668D01*
X62351693Y-86443681D01*
X62353470Y-86456047D01*
X62364244Y-86572310D01*
X62415559Y-86752662D01*
X62422596Y-86777392D01*
X62422596Y-86777394D01*
X62517632Y-86968253D01*
X62636244Y-87125319D01*
X62646128Y-87138407D01*
X62803698Y-87282052D01*
X62984981Y-87394298D01*
X63183802Y-87471321D01*
X63380613Y-87508111D01*
X63442893Y-87539779D01*
X63478166Y-87600092D01*
X63475232Y-87669900D01*
X63435023Y-87727040D01*
X63380613Y-87751888D01*
X63183802Y-87788679D01*
X63183799Y-87788679D01*
X63183799Y-87788680D01*
X62984982Y-87865701D01*
X62984980Y-87865702D01*
X62803699Y-87977947D01*
X62646127Y-88121593D01*
X62517632Y-88291746D01*
X62422596Y-88482605D01*
X62422596Y-88482607D01*
X62364244Y-88687689D01*
X62353471Y-88803951D01*
X62327685Y-88868888D01*
X62283130Y-88900804D01*
X62319503Y-88921668D01*
X62351693Y-88983681D01*
X62353471Y-88996048D01*
X62364244Y-89112310D01*
X62422596Y-89317392D01*
X62422596Y-89317394D01*
X62517632Y-89508253D01*
X62561028Y-89565718D01*
X62646128Y-89678407D01*
X62803698Y-89822052D01*
X62984981Y-89934298D01*
X63183802Y-90011321D01*
X63393390Y-90050500D01*
X63393392Y-90050500D01*
X63606608Y-90050500D01*
X63606610Y-90050500D01*
X63816198Y-90011321D01*
X64015019Y-89934298D01*
X64155224Y-89847486D01*
X64222583Y-89828931D01*
X64289282Y-89849739D01*
X64334144Y-89903304D01*
X64344500Y-89952914D01*
X64344500Y-90704390D01*
X64324815Y-90771429D01*
X64308181Y-90792071D01*
X63106071Y-91994181D01*
X63044748Y-92027666D01*
X63018390Y-92030500D01*
X59746610Y-92030500D01*
X59679571Y-92010815D01*
X59633816Y-91958011D01*
X59623872Y-91888853D01*
X59652897Y-91825297D01*
X59658929Y-91818819D01*
X60471082Y-91006666D01*
X61300485Y-90177263D01*
X61356503Y-90080237D01*
X61370119Y-90029419D01*
X61406482Y-89969762D01*
X61445101Y-89945888D01*
X61475011Y-89934301D01*
X61475010Y-89934301D01*
X61475019Y-89934298D01*
X61656302Y-89822052D01*
X61813872Y-89678407D01*
X61942366Y-89508255D01*
X62037405Y-89317389D01*
X62095756Y-89112310D01*
X62106529Y-88996047D01*
X62132315Y-88931111D01*
X62176869Y-88899194D01*
X62140497Y-88878331D01*
X62108307Y-88816318D01*
X62106529Y-88803951D01*
X62105849Y-88796613D01*
X62095756Y-88687690D01*
X62037405Y-88482611D01*
X62037403Y-88482606D01*
X62037403Y-88482605D01*
X61942367Y-88291746D01*
X61813872Y-88121593D01*
X61725546Y-88041073D01*
X61656302Y-87977948D01*
X61475019Y-87865702D01*
X61475017Y-87865701D01*
X61375608Y-87827190D01*
X61276198Y-87788679D01*
X61079385Y-87751888D01*
X61017106Y-87720221D01*
X60981833Y-87659908D01*
X60984767Y-87590100D01*
X61024976Y-87532960D01*
X61079384Y-87508111D01*
X61276198Y-87471321D01*
X61475019Y-87394298D01*
X61656302Y-87282052D01*
X61813872Y-87138407D01*
X61942366Y-86968255D01*
X61997570Y-86857389D01*
X62037403Y-86777394D01*
X62037403Y-86777393D01*
X62037405Y-86777389D01*
X62095756Y-86572310D01*
X62106529Y-86456047D01*
X62132315Y-86391111D01*
X62176869Y-86359194D01*
X62140497Y-86338331D01*
X62108307Y-86276318D01*
X62106529Y-86263951D01*
X62102029Y-86215387D01*
X62095756Y-86147690D01*
X62037405Y-85942611D01*
X62037403Y-85942606D01*
X62037403Y-85942605D01*
X61942367Y-85751746D01*
X61813872Y-85581593D01*
X61686133Y-85465143D01*
X61656302Y-85437948D01*
X61475019Y-85325702D01*
X61475017Y-85325701D01*
X61375608Y-85287190D01*
X61276198Y-85248679D01*
X61066610Y-85209500D01*
X60853390Y-85209500D01*
X60643802Y-85248679D01*
X60643799Y-85248679D01*
X60643799Y-85248680D01*
X60444982Y-85325701D01*
X60444980Y-85325702D01*
X60263699Y-85437947D01*
X60106127Y-85581593D01*
X59977632Y-85751746D01*
X59882596Y-85942605D01*
X59882596Y-85942607D01*
X59824244Y-86147689D01*
X59813471Y-86263951D01*
X59787685Y-86328888D01*
X59743130Y-86360804D01*
X59779503Y-86381668D01*
X59811693Y-86443681D01*
X59813470Y-86456047D01*
X59824244Y-86572310D01*
X59875559Y-86752662D01*
X59882596Y-86777392D01*
X59882596Y-86777394D01*
X59977632Y-86968253D01*
X60096244Y-87125319D01*
X60106128Y-87138407D01*
X60263698Y-87282052D01*
X60444981Y-87394298D01*
X60643802Y-87471321D01*
X60840613Y-87508111D01*
X60902893Y-87539779D01*
X60938166Y-87600092D01*
X60935232Y-87669900D01*
X60895023Y-87727040D01*
X60840613Y-87751888D01*
X60643802Y-87788679D01*
X60643799Y-87788679D01*
X60643799Y-87788680D01*
X60444982Y-87865701D01*
X60444980Y-87865702D01*
X60263699Y-87977947D01*
X60106127Y-88121593D01*
X59977632Y-88291746D01*
X59882596Y-88482605D01*
X59882596Y-88482607D01*
X59824244Y-88687689D01*
X59813471Y-88803951D01*
X59787685Y-88868888D01*
X59743130Y-88900804D01*
X59779503Y-88921668D01*
X59811693Y-88983681D01*
X59813471Y-88996048D01*
X59824244Y-89112310D01*
X59882596Y-89317392D01*
X59882596Y-89317394D01*
X59977632Y-89508253D01*
X59977634Y-89508255D01*
X60103677Y-89675162D01*
X60106129Y-89678408D01*
X60266334Y-89824455D01*
X60302616Y-89884166D01*
X60300855Y-89954014D01*
X60270477Y-90003773D01*
X59042071Y-91232181D01*
X58980748Y-91265666D01*
X58954390Y-91268500D01*
X58894001Y-91268500D01*
X58826962Y-91248815D01*
X58818515Y-91242876D01*
X58722842Y-91169464D01*
X58576762Y-91108956D01*
X58576760Y-91108955D01*
X58420001Y-91088318D01*
X58419999Y-91088318D01*
X58263239Y-91108955D01*
X58263237Y-91108956D01*
X58117160Y-91169463D01*
X57991718Y-91265718D01*
X57895463Y-91391160D01*
X57834956Y-91537237D01*
X57834955Y-91537239D01*
X57814318Y-91693998D01*
X57814318Y-91694001D01*
X57834955Y-91850760D01*
X57834956Y-91850762D01*
X57838053Y-91858239D01*
X57870798Y-91937294D01*
X57878266Y-92006763D01*
X57846990Y-92069242D01*
X57818238Y-92092131D01*
X57777740Y-92115513D01*
X57777734Y-92115517D01*
X55740071Y-94153181D01*
X55678748Y-94186666D01*
X55652390Y-94189500D01*
X55583496Y-94189500D01*
X55516457Y-94169815D01*
X55470702Y-94117011D01*
X55460557Y-94049315D01*
X55469682Y-93980001D01*
X55469682Y-93979998D01*
X55449044Y-93823239D01*
X55449044Y-93823238D01*
X55394938Y-93692616D01*
X55385500Y-93645165D01*
X55385500Y-93255381D01*
X55375117Y-93168925D01*
X55375117Y-93168924D01*
X55371037Y-93158578D01*
X55320862Y-93031342D01*
X55319950Y-93030139D01*
X55231500Y-92913499D01*
X55113660Y-92824139D01*
X55106266Y-92819982D01*
X55107353Y-92818047D01*
X55061601Y-92782453D01*
X55038405Y-92716546D01*
X55054523Y-92648561D01*
X55104838Y-92600082D01*
X55111833Y-92596887D01*
X55113652Y-92595864D01*
X55113658Y-92595862D01*
X55231500Y-92506500D01*
X55320862Y-92388658D01*
X55375117Y-92251077D01*
X55385500Y-92164618D01*
X55385500Y-91712609D01*
X55405185Y-91645570D01*
X55421814Y-91624933D01*
X57380269Y-89666477D01*
X57441590Y-89632994D01*
X57511282Y-89637978D01*
X57561180Y-89675162D01*
X57562267Y-89674172D01*
X57566123Y-89678402D01*
X57566126Y-89678405D01*
X57566128Y-89678407D01*
X57723698Y-89822052D01*
X57904981Y-89934298D01*
X58103802Y-90011321D01*
X58313390Y-90050500D01*
X58313392Y-90050500D01*
X58526608Y-90050500D01*
X58526610Y-90050500D01*
X58736198Y-90011321D01*
X58935019Y-89934298D01*
X59116302Y-89822052D01*
X59273872Y-89678407D01*
X59402366Y-89508255D01*
X59497405Y-89317389D01*
X59555756Y-89112310D01*
X59566529Y-88996047D01*
X59592315Y-88931111D01*
X59636869Y-88899194D01*
X59600497Y-88878331D01*
X59568307Y-88816318D01*
X59566529Y-88803951D01*
X59565849Y-88796613D01*
X59555756Y-88687690D01*
X59497405Y-88482611D01*
X59497403Y-88482606D01*
X59497403Y-88482605D01*
X59402367Y-88291746D01*
X59273872Y-88121593D01*
X59185546Y-88041073D01*
X59116302Y-87977948D01*
X58935019Y-87865702D01*
X58935017Y-87865701D01*
X58835608Y-87827190D01*
X58736198Y-87788679D01*
X58539385Y-87751888D01*
X58477106Y-87720221D01*
X58441833Y-87659908D01*
X58444767Y-87590100D01*
X58484976Y-87532960D01*
X58539384Y-87508111D01*
X58736198Y-87471321D01*
X58935019Y-87394298D01*
X59116302Y-87282052D01*
X59273872Y-87138407D01*
X59402366Y-86968255D01*
X59457570Y-86857389D01*
X59497403Y-86777394D01*
X59497403Y-86777393D01*
X59497405Y-86777389D01*
X59555756Y-86572310D01*
X59566529Y-86456047D01*
X59592315Y-86391111D01*
X59636869Y-86359194D01*
X59600497Y-86338331D01*
X59568307Y-86276318D01*
X59566529Y-86263951D01*
X59562029Y-86215387D01*
X59555756Y-86147690D01*
X59497405Y-85942611D01*
X59497403Y-85942606D01*
X59497403Y-85942605D01*
X59402367Y-85751746D01*
X59273872Y-85581593D01*
X59146133Y-85465143D01*
X59116302Y-85437948D01*
X58935019Y-85325702D01*
X58935017Y-85325701D01*
X58835608Y-85287190D01*
X58736198Y-85248679D01*
X58526610Y-85209500D01*
X58313390Y-85209500D01*
X58103802Y-85248679D01*
X58103799Y-85248679D01*
X58103799Y-85248680D01*
X57904982Y-85325701D01*
X57904980Y-85325702D01*
X57723699Y-85437947D01*
X57566127Y-85581593D01*
X57437632Y-85751746D01*
X57342596Y-85942605D01*
X57342596Y-85942607D01*
X57284244Y-86147689D01*
X57273471Y-86263951D01*
X57247685Y-86328888D01*
X57203130Y-86360804D01*
X57239503Y-86381668D01*
X57271693Y-86443681D01*
X57273471Y-86456048D01*
X57284244Y-86572310D01*
X57335559Y-86752660D01*
X57334973Y-86822527D01*
X57303974Y-86874276D01*
X57052930Y-87125320D01*
X56991607Y-87158805D01*
X56921915Y-87153821D01*
X56865982Y-87111949D01*
X56841565Y-87046485D01*
X56856417Y-86978212D01*
X56859828Y-86972351D01*
X56862353Y-86968271D01*
X56862366Y-86968255D01*
X56938036Y-86816288D01*
X56957403Y-86777394D01*
X56957403Y-86777393D01*
X56957405Y-86777389D01*
X57015756Y-86572310D01*
X57026529Y-86456047D01*
X57052315Y-86391111D01*
X57096869Y-86359194D01*
X57060497Y-86338331D01*
X57028307Y-86276318D01*
X57026529Y-86263951D01*
X57022029Y-86215387D01*
X57015756Y-86147690D01*
X56957405Y-85942611D01*
X56957403Y-85942606D01*
X56957403Y-85942605D01*
X56862367Y-85751746D01*
X56733872Y-85581593D01*
X56606133Y-85465143D01*
X56576302Y-85437948D01*
X56395019Y-85325702D01*
X56395017Y-85325701D01*
X56295608Y-85287190D01*
X56196198Y-85248679D01*
X55986610Y-85209500D01*
X55773390Y-85209500D01*
X55563802Y-85248679D01*
X55563799Y-85248679D01*
X55563799Y-85248680D01*
X55364982Y-85325701D01*
X55364980Y-85325702D01*
X55183699Y-85437947D01*
X55026127Y-85581593D01*
X54897632Y-85751746D01*
X54802596Y-85942605D01*
X54802596Y-85942607D01*
X54744244Y-86147689D01*
X54733471Y-86263951D01*
X54707685Y-86328888D01*
X54663130Y-86360804D01*
X54699503Y-86381668D01*
X54731693Y-86443681D01*
X54733470Y-86456047D01*
X54744244Y-86572310D01*
X54795559Y-86752662D01*
X54802596Y-86777392D01*
X54802596Y-86777394D01*
X54897632Y-86968253D01*
X55016244Y-87125319D01*
X55026128Y-87138407D01*
X55183698Y-87282052D01*
X55364981Y-87394298D01*
X55563802Y-87471321D01*
X55760613Y-87508111D01*
X55822893Y-87539779D01*
X55858166Y-87600092D01*
X55855232Y-87669900D01*
X55815023Y-87727040D01*
X55760613Y-87751888D01*
X55563802Y-87788679D01*
X55563799Y-87788679D01*
X55563799Y-87788680D01*
X55364982Y-87865701D01*
X55364980Y-87865702D01*
X55183699Y-87977947D01*
X55026127Y-88121593D01*
X54897632Y-88291746D01*
X54802596Y-88482605D01*
X54802596Y-88482607D01*
X54744244Y-88687689D01*
X54733471Y-88803951D01*
X54707685Y-88868888D01*
X54663130Y-88900804D01*
X54699503Y-88921668D01*
X54731693Y-88983681D01*
X54733471Y-88996048D01*
X54744244Y-89112310D01*
X54802596Y-89317392D01*
X54802596Y-89317394D01*
X54897632Y-89508253D01*
X54941028Y-89565718D01*
X55026128Y-89678407D01*
X55183698Y-89822052D01*
X55364981Y-89934298D01*
X55563802Y-90011321D01*
X55563806Y-90011321D01*
X55563807Y-90011322D01*
X55569309Y-90012888D01*
X55568568Y-90015489D01*
X55620646Y-90041898D01*
X55655985Y-90102172D01*
X55653127Y-90171983D01*
X55623359Y-90219892D01*
X54870071Y-90973181D01*
X54808748Y-91006666D01*
X54782390Y-91009500D01*
X54330381Y-91009500D01*
X54243925Y-91019882D01*
X54243924Y-91019882D01*
X54106339Y-91074139D01*
X53988499Y-91163499D01*
X53899139Y-91281339D01*
X53844882Y-91418924D01*
X53844882Y-91418925D01*
X53834500Y-91505381D01*
X53834500Y-92164618D01*
X53844882Y-92251074D01*
X53844882Y-92251075D01*
X53899139Y-92388660D01*
X53988499Y-92506500D01*
X54106339Y-92595860D01*
X54106342Y-92595862D01*
X54106343Y-92595862D01*
X54113734Y-92600018D01*
X54112647Y-92601951D01*
X54158403Y-92637554D01*
X54181595Y-92703463D01*
X54165472Y-92771447D01*
X54115154Y-92819922D01*
X54108163Y-92823113D01*
X54106339Y-92824139D01*
X53988499Y-92913499D01*
X53899139Y-93031339D01*
X53844882Y-93168924D01*
X53844882Y-93168925D01*
X53834500Y-93255381D01*
X53834500Y-93914618D01*
X53844882Y-94001074D01*
X53844883Y-94001079D01*
X53852349Y-94020009D01*
X53858631Y-94089596D01*
X53826295Y-94151532D01*
X53765606Y-94186154D01*
X53736995Y-94189500D01*
X53551496Y-94189500D01*
X53484457Y-94169815D01*
X53438702Y-94117011D01*
X53428557Y-94049315D01*
X53437682Y-93980001D01*
X53437682Y-93979998D01*
X53417044Y-93823239D01*
X53417044Y-93823238D01*
X53362938Y-93692616D01*
X53353500Y-93645165D01*
X53353500Y-93255381D01*
X53343117Y-93168925D01*
X53343117Y-93168924D01*
X53339037Y-93158578D01*
X53288862Y-93031342D01*
X53287950Y-93030139D01*
X53199500Y-92913499D01*
X53081660Y-92824139D01*
X53074266Y-92819982D01*
X53075353Y-92818047D01*
X53029601Y-92782453D01*
X53006405Y-92716546D01*
X53022523Y-92648561D01*
X53072838Y-92600082D01*
X53079833Y-92596887D01*
X53081652Y-92595864D01*
X53081658Y-92595862D01*
X53199500Y-92506500D01*
X53288862Y-92388658D01*
X53343117Y-92251077D01*
X53353500Y-92164618D01*
X53353500Y-91505382D01*
X53351258Y-91486717D01*
X53343117Y-91418925D01*
X53343117Y-91418924D01*
X53339795Y-91410499D01*
X53288862Y-91281342D01*
X53264204Y-91248825D01*
X53199500Y-91163499D01*
X53081660Y-91074139D01*
X53081658Y-91074138D01*
X52944077Y-91019883D01*
X52944076Y-91019882D01*
X52944074Y-91019882D01*
X52857619Y-91009500D01*
X52857618Y-91009500D01*
X52298382Y-91009500D01*
X52298381Y-91009500D01*
X52211925Y-91019882D01*
X52211924Y-91019882D01*
X52074339Y-91074139D01*
X51956499Y-91163499D01*
X51867139Y-91281339D01*
X51812882Y-91418924D01*
X51812882Y-91418925D01*
X51802500Y-91505381D01*
X51802500Y-91957390D01*
X51782815Y-92024429D01*
X51766181Y-92045071D01*
X51588071Y-92223181D01*
X51526748Y-92256666D01*
X51500390Y-92259500D01*
X51445500Y-92259500D01*
X51378461Y-92239815D01*
X51332706Y-92187011D01*
X51321500Y-92135500D01*
X51321500Y-91505381D01*
X51311117Y-91418925D01*
X51311117Y-91418924D01*
X51307795Y-91410499D01*
X51256862Y-91281342D01*
X51232204Y-91248825D01*
X51167500Y-91163499D01*
X51049660Y-91074139D01*
X51049658Y-91074138D01*
X50912077Y-91019883D01*
X50912076Y-91019882D01*
X50912074Y-91019882D01*
X50825619Y-91009500D01*
X50825618Y-91009500D01*
X50373609Y-91009500D01*
X50306570Y-90989815D01*
X50285928Y-90973181D01*
X49896819Y-90584071D01*
X49863334Y-90522748D01*
X49860500Y-90496390D01*
X49860500Y-87478984D01*
X49860500Y-87478982D01*
X49831503Y-87370763D01*
X49820336Y-87351421D01*
X49803863Y-87283521D01*
X49826716Y-87217494D01*
X49881637Y-87174303D01*
X49951190Y-87167662D01*
X50011259Y-87197782D01*
X50103698Y-87282052D01*
X50284981Y-87394298D01*
X50483802Y-87471321D01*
X50693390Y-87510500D01*
X50693392Y-87510500D01*
X50906608Y-87510500D01*
X50906610Y-87510500D01*
X51116198Y-87471321D01*
X51315019Y-87394298D01*
X51496302Y-87282052D01*
X51653872Y-87138407D01*
X51782366Y-86968255D01*
X51837570Y-86857389D01*
X51877403Y-86777394D01*
X51877403Y-86777393D01*
X51877405Y-86777389D01*
X51935756Y-86572310D01*
X51946529Y-86456047D01*
X51972315Y-86391111D01*
X52014622Y-86360804D01*
X52123130Y-86360804D01*
X52159503Y-86381668D01*
X52191693Y-86443681D01*
X52193470Y-86456047D01*
X52204244Y-86572310D01*
X52255559Y-86752662D01*
X52262596Y-86777392D01*
X52262596Y-86777394D01*
X52357632Y-86968253D01*
X52476244Y-87125319D01*
X52486128Y-87138407D01*
X52643698Y-87282052D01*
X52824981Y-87394298D01*
X53023802Y-87471321D01*
X53220613Y-87508111D01*
X53282893Y-87539779D01*
X53318166Y-87600092D01*
X53315232Y-87669900D01*
X53275023Y-87727040D01*
X53220613Y-87751888D01*
X53023802Y-87788679D01*
X53023799Y-87788679D01*
X53023799Y-87788680D01*
X52824982Y-87865701D01*
X52824980Y-87865702D01*
X52643699Y-87977947D01*
X52486127Y-88121593D01*
X52357632Y-88291746D01*
X52262596Y-88482605D01*
X52262596Y-88482607D01*
X52204244Y-88687689D01*
X52184571Y-88899999D01*
X52184571Y-88900000D01*
X52204244Y-89112310D01*
X52262596Y-89317392D01*
X52262596Y-89317394D01*
X52357632Y-89508253D01*
X52401028Y-89565718D01*
X52486128Y-89678407D01*
X52643698Y-89822052D01*
X52824981Y-89934298D01*
X53023802Y-90011321D01*
X53233390Y-90050500D01*
X53233392Y-90050500D01*
X53446608Y-90050500D01*
X53446610Y-90050500D01*
X53656198Y-90011321D01*
X53855019Y-89934298D01*
X54036302Y-89822052D01*
X54193872Y-89678407D01*
X54322366Y-89508255D01*
X54417405Y-89317389D01*
X54475756Y-89112310D01*
X54486529Y-88996047D01*
X54512315Y-88931111D01*
X54556869Y-88899194D01*
X54520497Y-88878331D01*
X54488307Y-88816318D01*
X54486529Y-88803951D01*
X54485849Y-88796613D01*
X54475756Y-88687690D01*
X54417405Y-88482611D01*
X54417403Y-88482606D01*
X54417403Y-88482605D01*
X54322367Y-88291746D01*
X54193872Y-88121593D01*
X54105546Y-88041073D01*
X54036302Y-87977948D01*
X53855019Y-87865702D01*
X53855017Y-87865701D01*
X53755608Y-87827190D01*
X53656198Y-87788679D01*
X53459385Y-87751888D01*
X53397106Y-87720221D01*
X53361833Y-87659908D01*
X53364767Y-87590100D01*
X53404976Y-87532960D01*
X53459384Y-87508111D01*
X53656198Y-87471321D01*
X53855019Y-87394298D01*
X54036302Y-87282052D01*
X54193872Y-87138407D01*
X54322366Y-86968255D01*
X54377570Y-86857389D01*
X54417403Y-86777394D01*
X54417403Y-86777393D01*
X54417405Y-86777389D01*
X54475756Y-86572310D01*
X54486529Y-86456047D01*
X54512315Y-86391111D01*
X54556869Y-86359194D01*
X54520497Y-86338331D01*
X54488307Y-86276318D01*
X54486529Y-86263951D01*
X54482029Y-86215387D01*
X54475756Y-86147690D01*
X54417405Y-85942611D01*
X54417403Y-85942606D01*
X54417403Y-85942605D01*
X54322367Y-85751746D01*
X54193872Y-85581593D01*
X54066133Y-85465143D01*
X54036302Y-85437948D01*
X53855019Y-85325702D01*
X53855017Y-85325701D01*
X53755608Y-85287190D01*
X53656198Y-85248679D01*
X53446610Y-85209500D01*
X53233390Y-85209500D01*
X53023802Y-85248679D01*
X53023799Y-85248679D01*
X53023799Y-85248680D01*
X52824982Y-85325701D01*
X52824980Y-85325702D01*
X52643699Y-85437947D01*
X52486127Y-85581593D01*
X52357632Y-85751746D01*
X52262596Y-85942605D01*
X52262596Y-85942607D01*
X52204244Y-86147689D01*
X52193471Y-86263951D01*
X52167685Y-86328888D01*
X52123130Y-86360804D01*
X52014622Y-86360804D01*
X52016869Y-86359194D01*
X51980497Y-86338331D01*
X51948307Y-86276318D01*
X51946529Y-86263951D01*
X51942029Y-86215387D01*
X51935756Y-86147690D01*
X51877405Y-85942611D01*
X51877403Y-85942606D01*
X51877403Y-85942605D01*
X51782367Y-85751746D01*
X51653872Y-85581593D01*
X51526133Y-85465143D01*
X51496302Y-85437948D01*
X51315019Y-85325702D01*
X51315017Y-85325701D01*
X51215608Y-85287190D01*
X51116198Y-85248679D01*
X50906610Y-85209500D01*
X50693390Y-85209500D01*
X50483802Y-85248679D01*
X50483799Y-85248679D01*
X50483799Y-85248680D01*
X50284982Y-85325701D01*
X50284980Y-85325702D01*
X50103699Y-85437947D01*
X49946127Y-85581593D01*
X49817632Y-85751746D01*
X49722596Y-85942605D01*
X49722596Y-85942607D01*
X49664244Y-86147689D01*
X49653471Y-86263951D01*
X49627685Y-86328888D01*
X49583130Y-86360804D01*
X49619503Y-86381668D01*
X49651693Y-86443681D01*
X49653470Y-86456047D01*
X49664244Y-86572310D01*
X49715559Y-86752662D01*
X49722596Y-86777392D01*
X49722596Y-86777394D01*
X49817632Y-86968253D01*
X49820179Y-86972366D01*
X49838732Y-87039727D01*
X49817922Y-87106426D01*
X49764356Y-87151285D01*
X49695039Y-87160063D01*
X49631981Y-87129973D01*
X49627069Y-87125321D01*
X49376025Y-86874277D01*
X49342540Y-86812954D01*
X49344439Y-86752664D01*
X49395756Y-86572310D01*
X49406529Y-86456047D01*
X49432315Y-86391111D01*
X49476869Y-86359194D01*
X49440497Y-86338331D01*
X49408307Y-86276318D01*
X49406529Y-86263951D01*
X49402029Y-86215387D01*
X49395756Y-86147690D01*
X49337405Y-85942611D01*
X49337403Y-85942606D01*
X49337403Y-85942605D01*
X49242367Y-85751746D01*
X49113872Y-85581593D01*
X48986133Y-85465143D01*
X48956302Y-85437948D01*
X48775019Y-85325702D01*
X48775017Y-85325701D01*
X48675608Y-85287190D01*
X48576198Y-85248679D01*
X48366610Y-85209500D01*
X48153390Y-85209500D01*
X47943802Y-85248679D01*
X47943799Y-85248679D01*
X47943799Y-85248680D01*
X47744982Y-85325701D01*
X47744980Y-85325702D01*
X47563699Y-85437947D01*
X47406127Y-85581593D01*
X47277632Y-85751746D01*
X47182596Y-85942605D01*
X47182596Y-85942607D01*
X47124244Y-86147689D01*
X47113471Y-86263951D01*
X47087685Y-86328888D01*
X47043130Y-86360804D01*
X47079503Y-86381668D01*
X47111693Y-86443681D01*
X47113470Y-86456047D01*
X47124244Y-86572310D01*
X47175559Y-86752662D01*
X47182596Y-86777392D01*
X47182596Y-86777394D01*
X47277632Y-86968253D01*
X47396244Y-87125319D01*
X47406128Y-87138407D01*
X47563698Y-87282052D01*
X47744981Y-87394298D01*
X47943802Y-87471321D01*
X48140613Y-87508111D01*
X48202893Y-87539779D01*
X48238166Y-87600092D01*
X48235232Y-87669900D01*
X48195023Y-87727040D01*
X48140613Y-87751888D01*
X47943802Y-87788679D01*
X47943799Y-87788679D01*
X47943799Y-87788680D01*
X47744982Y-87865701D01*
X47744980Y-87865702D01*
X47563699Y-87977947D01*
X47406127Y-88121593D01*
X47277632Y-88291746D01*
X47182596Y-88482605D01*
X47182596Y-88482607D01*
X47124244Y-88687689D01*
X47113471Y-88803951D01*
X47087685Y-88868888D01*
X47043130Y-88900804D01*
X47079503Y-88921668D01*
X47111693Y-88983681D01*
X47113471Y-88996048D01*
X47124244Y-89112310D01*
X47182596Y-89317392D01*
X47182596Y-89317394D01*
X47277632Y-89508253D01*
X47321028Y-89565718D01*
X47406128Y-89678407D01*
X47563698Y-89822052D01*
X47744981Y-89934298D01*
X47943802Y-90011321D01*
X48153390Y-90050500D01*
X48153392Y-90050500D01*
X48366608Y-90050500D01*
X48366610Y-90050500D01*
X48576198Y-90011321D01*
X48775019Y-89934298D01*
X48820223Y-89906308D01*
X48887583Y-89887753D01*
X48954282Y-89908561D01*
X48999144Y-89962127D01*
X49009500Y-90011736D01*
X49009500Y-90435500D01*
X48989815Y-90502539D01*
X48937011Y-90548294D01*
X48885500Y-90559500D01*
X41428610Y-90559500D01*
X41361571Y-90539815D01*
X41340929Y-90523181D01*
X41101819Y-90284071D01*
X41068334Y-90222748D01*
X41065500Y-90196390D01*
X41065500Y-90053919D01*
X41085185Y-89986880D01*
X41137989Y-89941125D01*
X41144687Y-89938300D01*
X41155019Y-89934298D01*
X41336302Y-89822052D01*
X41493872Y-89678407D01*
X41622366Y-89508255D01*
X41717405Y-89317389D01*
X41775756Y-89112310D01*
X41786529Y-88996047D01*
X41812315Y-88931111D01*
X41856869Y-88899194D01*
X41820497Y-88878331D01*
X41788307Y-88816318D01*
X41786529Y-88803951D01*
X41785849Y-88796613D01*
X41775756Y-88687690D01*
X41717405Y-88482611D01*
X41717403Y-88482606D01*
X41717403Y-88482605D01*
X41622367Y-88291746D01*
X41493872Y-88121593D01*
X41405546Y-88041073D01*
X41336302Y-87977948D01*
X41155019Y-87865702D01*
X41155017Y-87865701D01*
X41055608Y-87827190D01*
X40956198Y-87788679D01*
X40759385Y-87751888D01*
X40697106Y-87720221D01*
X40661833Y-87659908D01*
X40664767Y-87590100D01*
X40704976Y-87532960D01*
X40759384Y-87508111D01*
X40956198Y-87471321D01*
X41155019Y-87394298D01*
X41336302Y-87282052D01*
X41493872Y-87138407D01*
X41622366Y-86968255D01*
X41677570Y-86857389D01*
X41717403Y-86777394D01*
X41717403Y-86777393D01*
X41717405Y-86777389D01*
X41775756Y-86572310D01*
X41786529Y-86456047D01*
X41812315Y-86391111D01*
X41854622Y-86360804D01*
X41963130Y-86360804D01*
X41999503Y-86381668D01*
X42031693Y-86443681D01*
X42033470Y-86456047D01*
X42044244Y-86572310D01*
X42095559Y-86752662D01*
X42102596Y-86777392D01*
X42102596Y-86777394D01*
X42197632Y-86968253D01*
X42316244Y-87125319D01*
X42326128Y-87138407D01*
X42483698Y-87282052D01*
X42664981Y-87394298D01*
X42863802Y-87471321D01*
X43060613Y-87508111D01*
X43122893Y-87539779D01*
X43158166Y-87600092D01*
X43155232Y-87669900D01*
X43115023Y-87727040D01*
X43060613Y-87751888D01*
X42863802Y-87788679D01*
X42863799Y-87788679D01*
X42863799Y-87788680D01*
X42664982Y-87865701D01*
X42664980Y-87865702D01*
X42483699Y-87977947D01*
X42326127Y-88121593D01*
X42197632Y-88291746D01*
X42102596Y-88482605D01*
X42102596Y-88482607D01*
X42044244Y-88687689D01*
X42033471Y-88803951D01*
X42007685Y-88868888D01*
X41963130Y-88900804D01*
X41999503Y-88921668D01*
X42031693Y-88983681D01*
X42033471Y-88996048D01*
X42044244Y-89112310D01*
X42102596Y-89317392D01*
X42102596Y-89317394D01*
X42197632Y-89508253D01*
X42241028Y-89565718D01*
X42326128Y-89678407D01*
X42483698Y-89822052D01*
X42664981Y-89934298D01*
X42863802Y-90011321D01*
X43073390Y-90050500D01*
X43073392Y-90050500D01*
X43286608Y-90050500D01*
X43286610Y-90050500D01*
X43496198Y-90011321D01*
X43695019Y-89934298D01*
X43876302Y-89822052D01*
X44033872Y-89678407D01*
X44162366Y-89508255D01*
X44257405Y-89317389D01*
X44315756Y-89112310D01*
X44326529Y-88996047D01*
X44352315Y-88931111D01*
X44396869Y-88899194D01*
X44360497Y-88878331D01*
X44328307Y-88816318D01*
X44326529Y-88803951D01*
X44325849Y-88796613D01*
X44315756Y-88687690D01*
X44257405Y-88482611D01*
X44257403Y-88482606D01*
X44257403Y-88482605D01*
X44162367Y-88291746D01*
X44033872Y-88121593D01*
X43945546Y-88041073D01*
X43876302Y-87977948D01*
X43695019Y-87865702D01*
X43695017Y-87865701D01*
X43595608Y-87827190D01*
X43496198Y-87788679D01*
X43299385Y-87751888D01*
X43237106Y-87720221D01*
X43201833Y-87659908D01*
X43204767Y-87590100D01*
X43244976Y-87532960D01*
X43299384Y-87508111D01*
X43496198Y-87471321D01*
X43695019Y-87394298D01*
X43876302Y-87282052D01*
X44033872Y-87138407D01*
X44162366Y-86968255D01*
X44217570Y-86857389D01*
X44257403Y-86777394D01*
X44257403Y-86777393D01*
X44257405Y-86777389D01*
X44315756Y-86572310D01*
X44326529Y-86456047D01*
X44352315Y-86391111D01*
X44394622Y-86360804D01*
X44503130Y-86360804D01*
X44539503Y-86381668D01*
X44571693Y-86443681D01*
X44573470Y-86456047D01*
X44584244Y-86572310D01*
X44635559Y-86752662D01*
X44642596Y-86777392D01*
X44642596Y-86777394D01*
X44737632Y-86968253D01*
X44856244Y-87125319D01*
X44866128Y-87138407D01*
X45023698Y-87282052D01*
X45204981Y-87394298D01*
X45403802Y-87471321D01*
X45600613Y-87508111D01*
X45662893Y-87539779D01*
X45698166Y-87600092D01*
X45695232Y-87669900D01*
X45655023Y-87727040D01*
X45600613Y-87751888D01*
X45403802Y-87788679D01*
X45403799Y-87788679D01*
X45403799Y-87788680D01*
X45204982Y-87865701D01*
X45204980Y-87865702D01*
X45023699Y-87977947D01*
X44866127Y-88121593D01*
X44737632Y-88291746D01*
X44642596Y-88482605D01*
X44642596Y-88482607D01*
X44584244Y-88687689D01*
X44573471Y-88803951D01*
X44547685Y-88868888D01*
X44503130Y-88900804D01*
X44539503Y-88921668D01*
X44571693Y-88983681D01*
X44573471Y-88996048D01*
X44584244Y-89112310D01*
X44642596Y-89317392D01*
X44642596Y-89317394D01*
X44737632Y-89508253D01*
X44781028Y-89565718D01*
X44866128Y-89678407D01*
X45023698Y-89822052D01*
X45204981Y-89934298D01*
X45403802Y-90011321D01*
X45613390Y-90050500D01*
X45613392Y-90050500D01*
X45826608Y-90050500D01*
X45826610Y-90050500D01*
X46036198Y-90011321D01*
X46235019Y-89934298D01*
X46416302Y-89822052D01*
X46573872Y-89678407D01*
X46702366Y-89508255D01*
X46797405Y-89317389D01*
X46855756Y-89112310D01*
X46866529Y-88996047D01*
X46892315Y-88931111D01*
X46936869Y-88899194D01*
X46900497Y-88878331D01*
X46868307Y-88816318D01*
X46866529Y-88803951D01*
X46865849Y-88796613D01*
X46855756Y-88687690D01*
X46797405Y-88482611D01*
X46797403Y-88482606D01*
X46797403Y-88482605D01*
X46702367Y-88291746D01*
X46573872Y-88121593D01*
X46485546Y-88041073D01*
X46416302Y-87977948D01*
X46235019Y-87865702D01*
X46235017Y-87865701D01*
X46135608Y-87827190D01*
X46036198Y-87788679D01*
X45839385Y-87751888D01*
X45777106Y-87720221D01*
X45741833Y-87659908D01*
X45744767Y-87590100D01*
X45784976Y-87532960D01*
X45839384Y-87508111D01*
X46036198Y-87471321D01*
X46235019Y-87394298D01*
X46416302Y-87282052D01*
X46573872Y-87138407D01*
X46702366Y-86968255D01*
X46757570Y-86857389D01*
X46797403Y-86777394D01*
X46797403Y-86777393D01*
X46797405Y-86777389D01*
X46855756Y-86572310D01*
X46866529Y-86456047D01*
X46892315Y-86391111D01*
X46936869Y-86359194D01*
X46900497Y-86338331D01*
X46868307Y-86276318D01*
X46866529Y-86263951D01*
X46862029Y-86215387D01*
X46855756Y-86147690D01*
X46797405Y-85942611D01*
X46797403Y-85942606D01*
X46797403Y-85942605D01*
X46702367Y-85751746D01*
X46573872Y-85581593D01*
X46446133Y-85465143D01*
X46416302Y-85437948D01*
X46235019Y-85325702D01*
X46235017Y-85325701D01*
X46135608Y-85287190D01*
X46036198Y-85248679D01*
X45826610Y-85209500D01*
X45613390Y-85209500D01*
X45403802Y-85248679D01*
X45403799Y-85248679D01*
X45403799Y-85248680D01*
X45204982Y-85325701D01*
X45204980Y-85325702D01*
X45023699Y-85437947D01*
X44866127Y-85581593D01*
X44737632Y-85751746D01*
X44642596Y-85942605D01*
X44642596Y-85942607D01*
X44584244Y-86147689D01*
X44573471Y-86263951D01*
X44547685Y-86328888D01*
X44503130Y-86360804D01*
X44394622Y-86360804D01*
X44396869Y-86359194D01*
X44360497Y-86338331D01*
X44328307Y-86276318D01*
X44326529Y-86263951D01*
X44322029Y-86215387D01*
X44315756Y-86147690D01*
X44257405Y-85942611D01*
X44257403Y-85942606D01*
X44257403Y-85942605D01*
X44162367Y-85751746D01*
X44033872Y-85581593D01*
X43906133Y-85465143D01*
X43876302Y-85437948D01*
X43695019Y-85325702D01*
X43695017Y-85325701D01*
X43595608Y-85287190D01*
X43496198Y-85248679D01*
X43286610Y-85209500D01*
X43073390Y-85209500D01*
X42863802Y-85248679D01*
X42863799Y-85248679D01*
X42863799Y-85248680D01*
X42664982Y-85325701D01*
X42664980Y-85325702D01*
X42483699Y-85437947D01*
X42326127Y-85581593D01*
X42197632Y-85751746D01*
X42102596Y-85942605D01*
X42102596Y-85942607D01*
X42044244Y-86147689D01*
X42033471Y-86263951D01*
X42007685Y-86328888D01*
X41963130Y-86360804D01*
X41854622Y-86360804D01*
X41856869Y-86359194D01*
X41820497Y-86338331D01*
X41788307Y-86276318D01*
X41786529Y-86263951D01*
X41782029Y-86215387D01*
X41775756Y-86147690D01*
X41717405Y-85942611D01*
X41717403Y-85942606D01*
X41717403Y-85942605D01*
X41622367Y-85751746D01*
X41493872Y-85581593D01*
X41366133Y-85465143D01*
X41336302Y-85437948D01*
X41155019Y-85325702D01*
X41155017Y-85325701D01*
X41055608Y-85287190D01*
X40956198Y-85248679D01*
X40746610Y-85209500D01*
X40533390Y-85209500D01*
X40323802Y-85248679D01*
X40323799Y-85248679D01*
X40323799Y-85248680D01*
X40124982Y-85325701D01*
X40124980Y-85325702D01*
X39943699Y-85437947D01*
X39786127Y-85581593D01*
X39657632Y-85751746D01*
X39562596Y-85942605D01*
X39562596Y-85942607D01*
X39504244Y-86147689D01*
X39493471Y-86263951D01*
X39467685Y-86328888D01*
X39423130Y-86360804D01*
X39459503Y-86381668D01*
X39491693Y-86443681D01*
X39493470Y-86456047D01*
X39504244Y-86572310D01*
X39555559Y-86752662D01*
X39562596Y-86777392D01*
X39562596Y-86777394D01*
X39657632Y-86968253D01*
X39660179Y-86972366D01*
X39678732Y-87039727D01*
X39657922Y-87106426D01*
X39604356Y-87151285D01*
X39535039Y-87160063D01*
X39471981Y-87129973D01*
X39467069Y-87125321D01*
X39216025Y-86874277D01*
X39182540Y-86812954D01*
X39184439Y-86752664D01*
X39235756Y-86572310D01*
X39246529Y-86456047D01*
X39272315Y-86391111D01*
X39316869Y-86359194D01*
X39280497Y-86338331D01*
X39248307Y-86276318D01*
X39246529Y-86263951D01*
X39242029Y-86215387D01*
X39235756Y-86147690D01*
X39177405Y-85942611D01*
X39177403Y-85942606D01*
X39177403Y-85942605D01*
X39082367Y-85751746D01*
X38953872Y-85581593D01*
X38826133Y-85465143D01*
X38796302Y-85437948D01*
X38615019Y-85325702D01*
X38615017Y-85325701D01*
X38515608Y-85287190D01*
X38416198Y-85248679D01*
X38206610Y-85209500D01*
X37993390Y-85209500D01*
X37783802Y-85248679D01*
X37783799Y-85248679D01*
X37783799Y-85248680D01*
X37584982Y-85325701D01*
X37584980Y-85325702D01*
X37403699Y-85437947D01*
X37246127Y-85581593D01*
X37117632Y-85751746D01*
X37022596Y-85942605D01*
X37022596Y-85942607D01*
X36964244Y-86147689D01*
X36948580Y-86316740D01*
X36944571Y-86360000D01*
X36568500Y-86360000D01*
X36568500Y-84960000D01*
X36588185Y-84892961D01*
X36640989Y-84847206D01*
X36692500Y-84836000D01*
X69987500Y-84836000D01*
X70054539Y-84855685D01*
G37*
%TD.AperFunction*%
%TD*%
M02*
