%TF.GenerationSoftware,KiCad,Pcbnew,8.0.2-8.0.2-0~ubuntu24.04.1*%
%TF.CreationDate,2024-05-05T00:33:56+09:00*%
%TF.ProjectId,development_hat,64657665-6c6f-4706-9d65-6e745f686174,rev?*%
%TF.SameCoordinates,Original*%
%TF.FileFunction,Soldermask,Bot*%
%TF.FilePolarity,Negative*%
%FSLAX46Y46*%
G04 Gerber Fmt 4.6, Leading zero omitted, Abs format (unit mm)*
G04 Created by KiCad (PCBNEW 8.0.2-8.0.2-0~ubuntu24.04.1) date 2024-05-05 00:33:56*
%MOMM*%
%LPD*%
G01*
G04 APERTURE LIST*
G04 Aperture macros list*
%AMRoundRect*
0 Rectangle with rounded corners*
0 $1 Rounding radius*
0 $2 $3 $4 $5 $6 $7 $8 $9 X,Y pos of 4 corners*
0 Add a 4 corners polygon primitive as box body*
4,1,4,$2,$3,$4,$5,$6,$7,$8,$9,$2,$3,0*
0 Add four circle primitives for the rounded corners*
1,1,$1+$1,$2,$3*
1,1,$1+$1,$4,$5*
1,1,$1+$1,$6,$7*
1,1,$1+$1,$8,$9*
0 Add four rect primitives between the rounded corners*
20,1,$1+$1,$2,$3,$4,$5,0*
20,1,$1+$1,$4,$5,$6,$7,0*
20,1,$1+$1,$6,$7,$8,$9,0*
20,1,$1+$1,$8,$9,$2,$3,0*%
G04 Aperture macros list end*
%ADD10C,1.400000*%
%ADD11C,1.600000*%
%ADD12R,1.600000X1.600000*%
%ADD13RoundRect,0.237500X-0.237500X0.250000X-0.237500X-0.250000X0.237500X-0.250000X0.237500X0.250000X0*%
%ADD14RoundRect,0.237500X0.250000X0.237500X-0.250000X0.237500X-0.250000X-0.237500X0.250000X-0.237500X0*%
%ADD15RoundRect,0.237500X0.237500X-0.250000X0.237500X0.250000X-0.237500X0.250000X-0.237500X-0.250000X0*%
%ADD16R,1.700000X1.700000*%
%ADD17O,1.700000X1.700000*%
G04 APERTURE END LIST*
D10*
%TO.C,SW1*%
X45720000Y-104775000D03*
X48260000Y-104775000D03*
X50800000Y-104775000D03*
X53340000Y-104775000D03*
X53340000Y-97155000D03*
X50800000Y-97155000D03*
X48260000Y-97155000D03*
X45720000Y-97155000D03*
%TD*%
%TO.C,SW2*%
X45720000Y-114935000D03*
X48260000Y-114935000D03*
X50800000Y-114935000D03*
X53340000Y-114935000D03*
X53340000Y-107315000D03*
X50800000Y-107315000D03*
X48260000Y-107315000D03*
X45720000Y-107315000D03*
%TD*%
D11*
%TO.C,U1*%
X58420000Y-98425000D03*
X60960000Y-98425000D03*
X63500000Y-98425000D03*
X66040000Y-98425000D03*
X68580000Y-98425000D03*
X68580000Y-113665000D03*
X66040000Y-113665000D03*
X63500000Y-113665000D03*
X60960000Y-113665000D03*
D12*
X58420000Y-113665000D03*
%TD*%
D13*
%TO.C,R9*%
X46506000Y-93575500D03*
X46506000Y-95400500D03*
%TD*%
%TO.C,R10*%
X44480000Y-93575500D03*
X44480000Y-95400500D03*
%TD*%
%TO.C,R4*%
X53250000Y-101322500D03*
X53250000Y-103147500D03*
%TD*%
D14*
%TO.C,R15*%
X63500000Y-107315000D03*
X61675000Y-107315000D03*
%TD*%
D13*
%TO.C,R13*%
X50770000Y-111482500D03*
X50770000Y-113307500D03*
%TD*%
%TO.C,R6*%
X52584000Y-93575500D03*
X52584000Y-95400500D03*
%TD*%
%TO.C,R11*%
X45720000Y-111482500D03*
X45720000Y-113307500D03*
%TD*%
%TO.C,R17*%
X39370000Y-111482500D03*
X39370000Y-113307500D03*
%TD*%
%TO.C,R5*%
X54610000Y-93575500D03*
X54610000Y-95400500D03*
%TD*%
%TO.C,R3*%
X50740000Y-101322500D03*
X50740000Y-103147500D03*
%TD*%
D15*
%TO.C,R16*%
X39370000Y-101242500D03*
X39370000Y-99417500D03*
%TD*%
D13*
%TO.C,R1*%
X45720000Y-101322500D03*
X45720000Y-103147500D03*
%TD*%
%TO.C,R7*%
X50558000Y-93575500D03*
X50558000Y-95400500D03*
%TD*%
%TO.C,R12*%
X48230000Y-111482500D03*
X48230000Y-113307500D03*
%TD*%
%TO.C,R2*%
X48230000Y-101322500D03*
X48230000Y-103147500D03*
%TD*%
%TO.C,R8*%
X48532000Y-93575500D03*
X48532000Y-95400500D03*
%TD*%
%TO.C,R14*%
X53280000Y-111482500D03*
X53280000Y-113307500D03*
%TD*%
D16*
%TO.C,J1*%
X68580000Y-86360000D03*
D17*
X68580000Y-88900000D03*
X66040000Y-86360000D03*
X66040000Y-88900000D03*
X63500000Y-86360000D03*
X63500000Y-88900000D03*
X60960000Y-86360000D03*
X60960000Y-88900000D03*
X58420000Y-86360000D03*
X58420000Y-88900000D03*
X55880000Y-86360000D03*
X55880000Y-88900000D03*
X53340000Y-86360000D03*
X53340000Y-88900000D03*
X50800000Y-86360000D03*
X50800000Y-88900000D03*
X48260000Y-86360000D03*
X48260000Y-88900000D03*
X45720000Y-86360000D03*
X45720000Y-88900000D03*
X43180000Y-86360000D03*
X43180000Y-88900000D03*
X40640000Y-86360000D03*
X40640000Y-88900000D03*
X38100000Y-86360000D03*
X38100000Y-88900000D03*
%TD*%
M02*
