%TF.GenerationSoftware,KiCad,Pcbnew,8.0.2-8.0.2-0~ubuntu24.04.1*%
%TF.CreationDate,2024-05-05T00:10:18+09:00*%
%TF.ProjectId,development_hat,64657665-6c6f-4706-9d65-6e745f686174,rev?*%
%TF.SameCoordinates,Original*%
%TF.FileFunction,Drillmap*%
%TF.FilePolarity,Positive*%
%FSLAX45Y45*%
G04 Gerber Fmt 4.5, Leading zero omitted, Abs format (unit mm)*
G04 Created by KiCad (PCBNEW 8.0.2-8.0.2-0~ubuntu24.04.1) date 2024-05-05 00:10:18*
%MOMM*%
%LPD*%
G01*
G04 APERTURE LIST*
%ADD10C,0.200000*%
G04 APERTURE END LIST*
D10*
X3606800Y-8432800D02*
X7061200Y-8432800D01*
X7061200Y-11684000D01*
X3606800Y-11684000D01*
X3606800Y-8432800D01*
X3857577Y-12005484D02*
X3857577Y-11805484D01*
X3857577Y-11805484D02*
X3905196Y-11805484D01*
X3905196Y-11805484D02*
X3933767Y-11815008D01*
X3933767Y-11815008D02*
X3952815Y-11834055D01*
X3952815Y-11834055D02*
X3962339Y-11853103D01*
X3962339Y-11853103D02*
X3971862Y-11891198D01*
X3971862Y-11891198D02*
X3971862Y-11919769D01*
X3971862Y-11919769D02*
X3962339Y-11957865D01*
X3962339Y-11957865D02*
X3952815Y-11976912D01*
X3952815Y-11976912D02*
X3933767Y-11995960D01*
X3933767Y-11995960D02*
X3905196Y-12005484D01*
X3905196Y-12005484D02*
X3857577Y-12005484D01*
X4057577Y-12005484D02*
X4057577Y-11872150D01*
X4057577Y-11910246D02*
X4067101Y-11891198D01*
X4067101Y-11891198D02*
X4076624Y-11881674D01*
X4076624Y-11881674D02*
X4095672Y-11872150D01*
X4095672Y-11872150D02*
X4114720Y-11872150D01*
X4181386Y-12005484D02*
X4181386Y-11872150D01*
X4181386Y-11805484D02*
X4171862Y-11815008D01*
X4171862Y-11815008D02*
X4181386Y-11824531D01*
X4181386Y-11824531D02*
X4190910Y-11815008D01*
X4190910Y-11815008D02*
X4181386Y-11805484D01*
X4181386Y-11805484D02*
X4181386Y-11824531D01*
X4305196Y-12005484D02*
X4286148Y-11995960D01*
X4286148Y-11995960D02*
X4276624Y-11976912D01*
X4276624Y-11976912D02*
X4276624Y-11805484D01*
X4409958Y-12005484D02*
X4390910Y-11995960D01*
X4390910Y-11995960D02*
X4381386Y-11976912D01*
X4381386Y-11976912D02*
X4381386Y-11805484D01*
X4638529Y-12005484D02*
X4638529Y-11805484D01*
X4638529Y-11805484D02*
X4705196Y-11948341D01*
X4705196Y-11948341D02*
X4771863Y-11805484D01*
X4771863Y-11805484D02*
X4771863Y-12005484D01*
X4952815Y-12005484D02*
X4952815Y-11900722D01*
X4952815Y-11900722D02*
X4943291Y-11881674D01*
X4943291Y-11881674D02*
X4924244Y-11872150D01*
X4924244Y-11872150D02*
X4886148Y-11872150D01*
X4886148Y-11872150D02*
X4867101Y-11881674D01*
X4952815Y-11995960D02*
X4933767Y-12005484D01*
X4933767Y-12005484D02*
X4886148Y-12005484D01*
X4886148Y-12005484D02*
X4867101Y-11995960D01*
X4867101Y-11995960D02*
X4857577Y-11976912D01*
X4857577Y-11976912D02*
X4857577Y-11957865D01*
X4857577Y-11957865D02*
X4867101Y-11938817D01*
X4867101Y-11938817D02*
X4886148Y-11929293D01*
X4886148Y-11929293D02*
X4933767Y-11929293D01*
X4933767Y-11929293D02*
X4952815Y-11919769D01*
X5048053Y-11872150D02*
X5048053Y-12072150D01*
X5048053Y-11881674D02*
X5067101Y-11872150D01*
X5067101Y-11872150D02*
X5105196Y-11872150D01*
X5105196Y-11872150D02*
X5124244Y-11881674D01*
X5124244Y-11881674D02*
X5133767Y-11891198D01*
X5133767Y-11891198D02*
X5143291Y-11910246D01*
X5143291Y-11910246D02*
X5143291Y-11967388D01*
X5143291Y-11967388D02*
X5133767Y-11986436D01*
X5133767Y-11986436D02*
X5124244Y-11995960D01*
X5124244Y-11995960D02*
X5105196Y-12005484D01*
X5105196Y-12005484D02*
X5067101Y-12005484D01*
X5067101Y-12005484D02*
X5048053Y-11995960D01*
X5229005Y-11986436D02*
X5238529Y-11995960D01*
X5238529Y-11995960D02*
X5229005Y-12005484D01*
X5229005Y-12005484D02*
X5219482Y-11995960D01*
X5219482Y-11995960D02*
X5229005Y-11986436D01*
X5229005Y-11986436D02*
X5229005Y-12005484D01*
X5229005Y-11881674D02*
X5238529Y-11891198D01*
X5238529Y-11891198D02*
X5229005Y-11900722D01*
X5229005Y-11900722D02*
X5219482Y-11891198D01*
X5219482Y-11891198D02*
X5229005Y-11881674D01*
X5229005Y-11881674D02*
X5229005Y-11900722D01*
M02*
